<?xml version="1.0" encoding="UTF-8"?>
<svg width="250px" height="250px" viewBox="0 0 250 250" version="1.1" xmlns="http://www.w3.org/2000/svg" xmlns:xlink="http://www.w3.org/1999/xlink">
    <!-- Generator: Sketch 43.2 (39069) - http://www.bohemiancoding.com/sketch -->
    <title>Elder-Small Copy</title>
    <desc>Created with Sketch.</desc>
    <defs></defs>
    <g id="Page-2" stroke="none" stroke-width="1" fill="none" fill-rule="evenodd">
        <g id="Elder-Small-Copy">
            <g id="Group" transform="translate(21.000000, 24.659209)" fill="#EBD9D1">
                <polygon id="Rectangle-2-Copy-2" points="0 108 208 108 208 126 0 126"></polygon>
                <polygon id="Rectangle-2-Copy-6" points="0 144.453255 208 144.453255 208 162.453255 0 162.453255"></polygon>
                <polygon id="Rectangle-2-Copy-7" points="0 180.246758 208 180.246758 208 198.246758 0 198.246758"></polygon>
                <polygon id="Rectangle-2-Copy-3" points="0 71.5467452 208 71.5467452 208 89.5467452 0 89.5467452"></polygon>
                <polygon id="Rectangle-2-Copy-4" points="0 35.0934904 208 35.0934904 208 53.0934904 0 53.0934904"></polygon>
                <polygon id="Rectangle-2-Copy-5" points="0 0.071660243 208 0.071660243 208 18.0716602 0 18.0716602"></polygon>
            </g>
            <g id="Group-7-Copy-2" transform="translate(36.141936, 34.071660)" fill-rule="nonzero" fill="#344567">
                <circle id="Oval" transform="translate(21.234811, 159.276347) rotate(-48.160000) translate(-21.234811, -159.276347) " cx="21.2348113" cy="159.276347" r="4.32801556"></circle>
                <circle id="Oval" transform="translate(9.945210, 174.515113) rotate(-74.995080) translate(-9.945210, -174.515113) " cx="9.94521005" cy="174.515113" r="4.34637071"></circle>
                <circle id="Oval" transform="translate(5.430964, 158.575083) rotate(-75.000000) translate(-5.430964, -158.575083) " cx="5.43096402" cy="158.575083" r="4.32801556"></circle>
                <path d="M22.8411711,159.914543 L19.8668521,160.648589 L25.9298871,170.591585 L8.77035402,158.198589 L7.31179371,160.534193 L25.5866964,173.928161 L10.2289143,173.928161 L10.448175,176.673687 L30.6964241,176.797617 C31.2229212,176.797617 31.6497314,176.370806 31.6497314,175.844309 L31.6497314,174.166488 C31.6503042,173.988005 31.6007591,173.812946 31.5067353,173.661235 L22.8411711,159.914543 Z" id="Shape"></path>
                <circle id="Oval" transform="translate(156.188658, 159.121016) rotate(-41.840000) translate(-156.188658, -159.121016) " cx="156.188658" cy="159.121016" r="4.32801556"></circle>
                <circle id="Oval" transform="translate(168.262595, 173.317708) rotate(-15.000000) translate(-168.262595, -173.317708) " cx="168.262595" cy="173.317708" r="4.32801556"></circle>
                <circle id="Oval" transform="translate(172.009468, 158.385848) rotate(-15.000000) translate(-172.009468, -158.385848) " cx="172.009468" cy="158.385848" r="4.32801556"></circle>
                <path d="M170.155763,160.314932 L168.697202,157.979329 L151.537669,170.372325 L157.64837,160.438862 L154.674051,159.704815 L145.998953,173.432442 C145.904929,173.584152 145.855384,173.759211 145.855957,173.937694 L145.855957,175.615515 C145.855957,176.142013 146.282767,176.568823 146.809265,176.568823 L167.057514,176.444893 L167.276774,173.699368 L151.918992,173.699368 L170.155763,160.314932 Z" id="Shape"></path>
                <path d="M164.045062,174.652675 L171.042338,175.996838 L171.833584,173.632636 L164.817241,172.050146 L164.045062,174.652675 L164.045062,174.652675 Z M61.9267743,154.823881 L62.5559571,156.892558 L55.3298871,156.892558 L55.3298871,165.405593 L63.1470077,165.405593 L63.1470077,167.541002 L55.3298871,167.541002 L55.3298871,176.120768 L62.4796925,176.120768 L62.4796925,178.218045 L52.9466186,178.218045 L52.9466186,167.550535 L51.2973968,167.550535 L51.2973968,165.415126 L52.870354,165.415126 L52.870354,154.833414 L61.9267743,154.823881 Z M69.6962295,154.823881 L69.6962295,176.130301 L75.9689921,176.130301 L75.9689921,178.218045 L67.2748287,178.218045 L67.2748287,154.823881 L69.6962295,154.823881 Z M82.4514824,154.823881 C83.7315226,154.804563 85.0099342,154.922816 86.264712,155.176605 C91.2908818,156.440694 94.882618,160.866184 95.0854457,166.044906 C95.2882735,171.223628 92.0536626,175.916476 87.1417548,177.569796 C85.366791,178.072772 83.522138,178.285245 81.6793034,178.198978 L78.6001206,178.198978 L78.6001206,154.823881 L82.4514824,154.823881 Z M82.2798871,176.130301 C83.8162991,176.169098 85.3470892,175.930114 86.7985641,175.424854 C90.4476357,173.980708 92.8103316,170.415738 92.718603,166.492364 C92.7835024,162.939908 90.8847917,159.64099 87.7804707,157.912597 C86.407857,157.198225 84.87524,156.847069 83.3285252,156.892558 L80.9929221,156.892558 L80.9929221,176.130301 L82.2798871,176.130301 Z M108.352844,154.823881 L108.982027,156.892558 L101.76549,156.892558 L101.76549,165.405593 L109.592144,165.405593 L109.592144,167.541002 L101.775023,167.541002 L101.775023,176.120768 L108.924829,176.120768 L108.924829,178.218045 L99.3917548,178.218045 L99.3917548,167.550535 L97.7806653,167.550535 L97.7806653,165.415126 L99.3536225,165.415126 L99.3536225,154.833414 L108.352844,154.823881 Z M116.656152,154.823881 C119.315879,154.823881 121.069965,155.10034 122.375996,155.777189 C124.674793,156.995795 126.08544,159.410883 126.01763,162.011819 C126.037122,165.536436 123.445447,168.531532 119.954595,169.018628 L126.751677,177.17894 L124.968992,178.580301 L116.103233,168.09392 L116.103233,178.218045 L113.758097,178.218045 L113.758097,154.823881 L116.656152,154.823881 Z M116.065101,167.47427 C117.437587,167.580335 118.817528,167.415131 120.126191,166.988084 C122.272811,166.278995 123.689026,164.232485 123.59623,161.973687 C123.659123,160.094663 122.635115,158.347171 120.965101,157.483609 C119.898708,157.047661 118.751049,156.846089 117.599926,156.892558 L116.055568,156.892558 L116.065101,167.47427 Z M87.294284,107.158512 C85.7594591,70.6373053 65.6256069,44.8408073 46.0828054,33.9349707 C46.0828054,33.9349707 49.3049844,31.2847762 49.9913657,31.7232976 C77.3798871,49.4643481 93.1285252,79.2838034 92.6423385,108.130885 C92.6328054,108.130885 87.3610155,108.731469 87.294284,107.158512 L87.294284,107.158512 Z M35.7966186,5.94586565 L38.5993423,7.0993676 L40.4010933,27.013959 L26.6544007,43.6015077 L24.7477859,41.4089007 C24.7477859,41.4089007 35.2341672,29.969212 36.6831945,25.0596789 C38.0464241,20.3598734 35.7966186,5.94586565 35.7966186,5.94586565 L35.7966186,5.94586565 Z" id="Shape"></path>
                <polyline id="Shape" points="52.1458404 34.6594843 33.8137392 34.8215466 34.690782 31.9711575 51.2497314 31.6660991 52.1458404 34.6594843"></polyline>
                <circle id="Oval" transform="translate(51.354421, 15.077911) rotate(-17.070000) translate(-51.354421, -15.077911) " cx="51.3544211" cy="15.0779113" r="4.22315175"></circle>
                <circle id="Oval" transform="translate(34.115746, 20.893040) rotate(-43.910000) translate(-34.115746, -20.893040) " cx="34.115746" cy="20.8930401" r="4.22315175"></circle>
                <circle id="Oval" transform="translate(27.669622, 9.697644) rotate(-43.910000) translate(-27.669622, -9.697644) " cx="27.6696224" cy="9.69764376" r="4.22315175"></circle>
                <circle id="Oval" transform="translate(15.240054, 8.633422) rotate(-43.910000) translate(-15.240054, -8.633422) " cx="15.2400542" cy="8.6334221" r="4.22315175"></circle>
                <circle id="Oval" transform="translate(20.393458, 20.513328) rotate(-43.910000) translate(-20.393458, -20.513328) " cx="20.3934582" cy="20.5133281" r="4.22315175"></circle>
                <circle id="Oval" transform="translate(38.496749, 6.522587) rotate(-43.910000) translate(-38.496749, -6.522587) " cx="38.4967488" cy="6.52258659" r="4.22315175"></circle>
                <circle id="Oval" transform="translate(25.762504, 42.621827) rotate(-88.910000) translate(-25.762504, -42.621827) " cx="25.7625039" cy="42.6218269" r="4.22315175"></circle>
                <circle id="Oval" transform="translate(15.298167, 32.105121) rotate(-88.910000) translate(-15.298167, -32.105121) " cx="15.2981668" cy="32.105121" r="4.22315175"></circle>
                <circle id="Oval" transform="translate(26.775730, 29.463789) rotate(-88.910000) translate(-26.775730, -29.463789) " cx="26.77573" cy="29.463789" r="4.22315175"></circle>
                <polyline id="Shape" points="49.638642 33.849173 49.4765797 15.5075388 52.3269688 16.3941147 52.6320272 32.943531 49.638642 33.849173"></polyline>
                <path d="M52.736891,35.9750485 L37.4839727,26.499173 L38.68514,24.0968384 L52.6034279,32.5812742 C52.6737539,33.0832184 52.8891172,33.5537043 53.2230778,33.9349707 L52.736891,35.9750485 Z" id="Shape"></path>
                <path d="M49.3335836,33.6013131 L39.075996,9.05364775 L41.4783307,7.83341429 L51.6215213,31.6946983 L49.3335836,33.6013131 M36.9596536,24.1063715 L30.4390311,21.7040369 L30.9728832,19.3398345 L37.6269688,21.5419746 L36.9596536,24.1063715 M37.398175,29.0349707 L18.1127665,33.2199902 L17.5121828,30.8653209 L36.8261906,26.4515077 L37.398175,29.0349707 M29.8479805,19.5876944 L26.1872801,10.0355544 L29.2283307,9.33963997 L32.5649065,18.9680446 L29.8479805,19.5876944" id="Shape"></path>
                <path d="M22.564712,21.7040369 L31.8594591,21.6849707 L32.5553735,18.9680446 L22.2977859,19.1682392 L22.564712,21.7040369 M18.5131556,10.4264104 L22.173856,19.9785505 L19.1328054,20.6744649 L15.7962295,11.0460602 L18.5131556,10.4264104" id="Shape"></path>
                <path d="M25.7964241,8.31006799 L16.501677,8.32913413 L15.8057626,11.0460602 L26.0633501,10.8458657 L25.7964241,8.31006799 L25.7964241,8.31006799 Z M23.2701595,92.6205738 C29.523856,95.480496 39.5240505,93.4499513 39.8195758,92.8207684 C40.1151011,92.1915855 35.3199649,83.3734921 28.7898093,80.3705738 C20.9726886,76.776605 16.0917548,79.1694065 12.7742451,79.0168773 C11.3156848,78.9501458 9.1421439,78.6832197 9.1421439,78.6832197 C9.1421439,78.6832197 10.7913657,80.2466439 11.7732723,81.3524804 C13.7847509,83.6308851 15.3672412,88.9980057 23.2701595,92.6205738 L23.2701595,92.6205738 Z M28.5038171,100.046838 C34.6526497,96.9771886 44.5479805,98.2260213 44.8625719,98.8456711 C45.1771634,99.4653209 40.1913657,107.349173 33.8900038,110.809679 C28.9137392,113.536138 21.5732723,113.164348 18.2652957,113.45034 C16.8716543,113.647734 15.4926745,113.937543 14.1374746,114.31785 C14.1374746,114.31785 16.2252178,112.306371 17.1594591,111.162403 C19.08514,108.845866 23.0508988,102.81143 28.5038171,100.046838 L28.5038171,100.046838 Z" id="Shape"></path>
                <rect id="Rectangle-path" transform="translate(45.317630, 97.942449) rotate(-129.260000) translate(-45.317630, -97.942449) " x="44.4739528" y="95.2922548" width="1.68735409" height="5.30038911" rx="0.724513619"></rect>
                <path d="M40.8110155,107.759095 C46.0542062,103.316683 55.968603,102.182247 56.4261906,102.706566 C56.8837781,103.230885 53.9094591,112.077578 48.60907,116.929912 C44.4240505,120.743142 37.1693813,122.134971 34.0520661,123.212208 C32.7419828,123.733834 31.4680882,124.342118 30.2388365,125.033025 C30.2388365,125.033025 31.7927276,122.583025 32.4219104,121.219796 C33.7470077,118.50287 36.1874746,111.696255 40.8110155,107.759095 Z" id="Shape"></path>
                <rect id="Rectangle-path" transform="translate(56.642039, 101.681875) rotate(-142.990000) translate(-56.642039, -101.681875) " x="55.7983618" y="99.0316806" width="1.68735409" height="5.30038911" rx="0.724513619"></rect>
                <path d="M55.7588754,113.783998 C60.4205486,108.731469 70.1252178,106.395866 70.6400038,106.862986 C71.1547898,107.330107 69.2863073,116.472325 64.6151011,121.934776 C60.9353346,126.253259 53.9285252,128.493531 50.93514,129.942558 C49.7038961,130.622669 48.5191871,131.383813 47.3888365,132.220963 C47.3888365,132.220963 48.6281361,129.599368 49.0952567,128.198006 C50.0580972,125.309484 51.6310544,118.264543 55.7588754,113.783998 L55.7588754,113.783998 Z" id="Shape"></path>
                <rect id="Rectangle-path" transform="translate(70.725119, 105.825690) rotate(-150.010000) translate(-70.725119, -105.825690) " x="69.8814422" y="103.175495" width="1.68735409" height="5.30038911" rx="0.724513619"></rect>
                <path d="M64.472105,84.7081225 C65.9211322,91.4289396 73.0518715,98.3690174 73.7668521,98.2260213 C74.4818326,98.0830252 77.4752178,89.2649318 76.2359182,82.1818579 C75.2826108,76.5954765 70.3635447,71.104426 68.5236614,68.3303014 C67.8053408,67.1187726 67.1683968,65.8608081 66.6170466,64.5647372 C66.6170466,64.5647372 66.3501206,67.4246594 66.0450622,68.8927528 C65.4158793,71.876605 63.18514,78.7499513 64.472105,84.7081225 L64.472105,84.7081225 Z" id="Shape"></path>
                <rect id="Rectangle-path" transform="translate(73.310027, 99.168300) rotate(-179.460000) translate(-73.310027, -99.168300) " x="72.4663495" y="96.518105" width="1.68735409" height="5.30038911" rx="0.724513619"></rect>
                <path d="M35.6822217,81.0474221 C38.2180194,87.4345816 46.4355291,93.0972275 47.1219104,92.8493676 C47.8082918,92.6015077 49.3049844,83.3925583 46.9121828,76.6431419 C45.005568,71.2950874 39.2857237,66.6810797 37.0168521,64.2501458 C36.1100965,63.1754183 35.2757059,62.0416662 34.5191867,60.8563715 C34.5191867,60.8563715 34.7384474,63.7162937 34.6717159,65.2225193 C34.4905875,68.2445038 33.4324163,75.3943092 35.6822217,81.0474221 Z" id="Shape"></path>
                <rect id="Rectangle-path" transform="translate(46.784701, 93.862270) rotate(171.040000) translate(-46.784701, -93.862270) " x="45.9410238" y="91.2120754" width="1.68735409" height="5.30038911" rx="0.724513619"></rect>
                <path d="M49.9722995,83.5355544 C50.9256069,90.3421692 57.5987587,97.8351653 58.2470077,97.7017022 C58.8952567,97.5682392 62.6131556,89.036138 61.9267743,81.8767995 C61.3643229,76.2332197 56.8837781,70.4371108 55.2536225,67.500924 C54.6279234,66.2417246 54.086525,64.9423685 53.6329999,63.6114299 C53.6329999,63.6114299 53.1563462,66.471352 52.736891,67.89178 C51.8598482,70.8184337 49.133389,77.5011186 49.9722995,83.5355544 L49.9722995,83.5355544 Z" id="Shape"></path>
                <rect id="Rectangle-path" transform="translate(57.717907, 98.612532) rotate(-175.230000) translate(-57.717907, -98.612532) " x="56.8742303" y="95.9623372" width="1.68735409" height="5.30038911" rx="0.724513619"></rect>
                <path d="M139.983584,91.2573443 C139.831054,90.7711575 139.640393,89.7987839 139.440198,90.199173 C135.6937,97.8256322 110.307124,99.0839979 89.105568,105.452091 C67.7610155,98.8933365 41.8405875,97.6635699 38.0464241,89.9799123 C37.8462295,89.5795232 37.646035,90.5518968 37.5030388,91.0380836 C37.3600427,91.5242703 37.3409766,92.3250485 37.6651011,92.5824415 C48.0752178,100.847617 68.7810544,100.695087 89.0865019,110.132831 C89.1532334,110.199562 89.3534279,110.218628 89.3820272,110.132831 C109.706541,100.656955 129.420938,101.066877 139.907319,92.7921692 C140.09798,92.5443092 140.09798,91.7339979 139.983584,91.2573443 L139.983584,91.2573443 Z" id="Shape"></path>
                <path d="M154.168798,92.8684337 C147.915101,95.7283559 137.914907,93.6978112 137.619381,93.0686283 C137.323856,92.4394454 142.118992,83.621352 148.649148,80.6184337 C156.466268,77.0244649 161.347202,79.4172664 164.664712,79.2647372 C166.123272,79.1980057 168.296813,78.9310797 168.296813,78.9310797 C168.296813,78.9310797 166.647591,80.4945038 165.665685,81.6003404 C163.644673,83.8406127 162.024051,89.2363326 154.168798,92.8684337 Z M148.93514,100.332831 C142.786307,97.2631808 132.890977,98.5120135 132.576385,99.1316633 C132.261794,99.7513131 137.247591,107.635165 143.548953,111.095671 C148.525218,113.82213 155.865685,113.45034 159.173661,113.736333 C160.567303,113.933726 161.946283,114.223535 163.301482,114.603842 C163.301482,114.603842 161.213739,112.592364 160.279498,111.448395 C158.353817,109.093726 154.397591,103.05929 148.93514,100.332831 L148.93514,100.332831 Z" id="Shape"></path>
                <rect id="Rectangle-path" transform="translate(132.110244, 98.186009) rotate(-50.740000) translate(-132.110244, -98.186009) " x="131.266567" y="95.5358143" width="1.68735409" height="5.30038911" rx="0.724513619"></rect>
                <path d="M136.618408,108.006955 C131.375218,103.564543 121.460821,102.430107 121.003233,102.954426 C120.545646,103.478745 123.519965,112.325438 128.820354,117.177772 C133.005373,120.991002 140.260043,122.382831 143.377358,123.460068 C144.687441,123.981694 145.961336,124.589978 147.190587,125.280885 C147.190587,125.280885 145.636696,122.830885 145.007514,121.467656 C143.691949,118.741196 141.270549,111.944115 136.618408,108.006955 L136.618408,108.006955 Z" id="Shape"></path>
                <rect id="Rectangle-path" transform="translate(120.818292, 102.356702) rotate(-36.869898) translate(-120.818292, -102.356702) " x="119.974615" y="99.7065077" width="1.68735409" height="5.30038911" rx="0.724513619"></rect>
                <path d="M121.670549,114.031858 C117.008875,108.979329 107.304206,106.643726 106.78942,107.110846 C106.274634,107.577967 108.143117,116.720185 112.814323,122.182636 C116.494089,126.501119 123.500899,128.741391 126.494284,130.190418 C127.725528,130.870529 128.910237,131.631673 130.040587,132.468823 C130.040587,132.468823 128.801288,129.847228 128.334167,128.445866 C127.38086,125.547811 125.79837,118.50287 121.670549,114.031858 L121.670549,114.031858 Z" id="Shape"></path>
                <rect id="Rectangle-path" transform="translate(106.706346, 106.063556) rotate(-29.990000) translate(-106.706346, -106.063556) " x="105.862669" y="103.413361" width="1.68735409" height="5.30038911" rx="0.724513619"></rect>
                <path d="M112.957319,84.9464493 C111.508292,91.6672664 104.377552,98.6073443 103.662572,98.4643481 C102.947591,98.321352 99.9542062,89.5032586 101.193506,82.4201847 C102.146813,76.8338034 107.065879,71.3427528 108.905763,68.5686283 C109.624083,67.3570994 110.261027,66.099135 110.812377,64.8030641 C110.812377,64.8030641 111.079303,67.6629863 111.384362,69.1310797 C112.023078,72.1244649 114.244284,78.9978112 112.957319,84.9464493 Z" id="Shape"></path>
                <rect id="Rectangle-path" transform="translate(104.112490, 99.412569) rotate(-0.540000) translate(-104.112490, -99.412569) " x="103.268813" y="96.7623746" width="1.68735409" height="5.30038911" rx="0.724513619"></rect>
                <path d="M141.747202,81.295282 C139.211405,87.6824415 130.993895,93.3450874 130.307514,93.0972275 C129.621132,92.8493676 128.12444,83.6404182 130.517241,76.8910018 C132.423856,71.5429474 138.1437,66.9289396 140.412572,64.4980057 C141.336734,63.4155296 142.187094,62.2721616 142.957903,61.0756322 C142.957903,61.0756322 142.738642,63.9355544 142.805373,65.44178 C142.957903,68.4923637 143.997008,75.6326361 141.747202,81.295282 Z" id="Shape"></path>
                <rect id="Rectangle-path" transform="translate(130.639398, 94.102712) rotate(8.960000) translate(-130.639398, -94.102712) " x="129.795721" y="91.452517" width="1.68735409" height="5.30038911" rx="0.724513619"></rect>
                <path d="M127.457124,83.7738812 C126.503817,90.580496 119.830665,98.0734921 119.182416,97.9400291 C118.534167,97.806566 114.816268,89.2744649 115.531249,82.1246594 C116.0937,76.4810797 120.574245,70.6849707 122.204401,67.7487839 C122.8301,66.4895845 123.371498,65.1902284 123.825023,63.8592898 C123.825023,63.8592898 124.301677,66.719212 124.721132,68.13964 C125.579109,71.0567606 128.305568,77.7394454 127.457124,83.7738812 L127.457124,83.7738812 Z" id="Shape"></path>
                <rect id="Rectangle-path" transform="translate(119.708883, 98.846529) rotate(-4.770000) translate(-119.708883, -98.846529) " x="118.865206" y="96.1963348" width="1.68735409" height="5.30038911" rx="0.724513619"></rect>
                <circle id="Oval" transform="translate(83.483854, 26.767031) rotate(-87.010000) translate(-83.483854, -26.767031) " cx="83.4838542" cy="26.7670313" r="4.22315175"></circle>
                <circle id="Oval" transform="translate(82.044036, 44.925466) rotate(-60.170000) translate(-82.044036, -44.925466) " cx="82.0440356" cy="44.925466" r="4.22315175"></circle>
                <circle id="Oval" transform="translate(94.928045, 37.153428) rotate(-60.170000) translate(-94.928045, -37.153428) " cx="94.9280453" cy="37.1534278" r="4.22315175"></circle>
                <polyline id="Shape" points="92.9283307 34.5832197 72.4512879 31.3610407 83.5191867 28.682247 81.9652957 26.1273832 63.5950622 30.3219357 63.5950622 31.1131808 79.0195758 46.2517022 81.0596536 44.4976166 70.4398093 33.9063715 92.327747 37.2143481 92.9283307 34.5832197"></polyline>
                <polyline id="Shape" points="78.2187976 42.9437256 82.1464241 48.6921692 84.3199649 47.5958657 80.5544007 41.6662937 78.2187976 42.9437256"></polyline>
            </g>
        </g>
    </g>
</svg>