<?xml version="1.0" encoding="UTF-8"?>
<svg width="250px" height="250px" viewBox="0 0 250 250" version="1.1" xmlns="http://www.w3.org/2000/svg" xmlns:xlink="http://www.w3.org/1999/xlink" style="background: #FFFFFF;">
    <!-- Generator: Sketch 43.2 (39069) - http://www.bohemiancoding.com/sketch -->
    <title>Artboard</title>
    <desc>Created with Sketch.</desc>
    <defs></defs>
    <g id="Page-2" stroke="none" stroke-width="1" fill="none" fill-rule="evenodd">
        <g id="Artboard">
            <polygon id="Triangle-Copy-9" fill="#EBD9D1" points="250.016181 76.8874298 -0.428544173 -0.879233662 -0.428544173 154.654093"></polygon>
            <g id="Group-3-Copy-3" transform="translate(25.131601, 67.120766)" fill-rule="nonzero">
                <path d="M71.4971537,156.774598 C69.3321261,166.812453 67.2753499,179.704208 67.2753499,179.704208 C67.2753499,179.704208 64.9725479,166.517222 63.0830692,156.459685 C60.3078975,141.776861 66.5569544,137.869971 68.7515051,137.810924 C71.2609688,137.742037 73.8491609,145.85105 71.4971537,156.774598 Z" id="Shape" fill="#344567"></path>
                <path d="M64.5887475,164.59822 L64.736363,169.686035 C64.7444714,169.984416 64.9492149,170.241349 65.2382558,170.315861 L67.3934423,170.866959 L64.5887475,164.59822 Z" id="Shape" fill="#344567"></path>
                <path d="M63.4471875,158.762487 L63.594803,163.850301 C63.6029114,164.148682 63.8076549,164.405615 64.0966958,164.480128 L66.2518823,165.031226 L63.4471875,158.762487 Z" id="Shape" fill="#344567"></path>
                <path d="M62.6500637,152.838184 L62.1088068,158.368845 C62.07311,158.721927 62.3192478,159.041474 62.6697458,159.097082 L64.6379527,159.411995 L62.6500637,152.838184 Z" id="Shape" fill="#344567"></path>
                <path d="M62.6106996,147.041815 L61.1640675,152.316609 C61.0708713,152.652169 61.2506248,153.003117 61.577391,153.123574 L63.5455979,153.851811 L62.6106996,147.041815 Z" id="Shape" fill="#344567"></path>
                <path d="M70.0800447,161.921459 L69.9324292,167.009274 C69.9243208,167.307654 69.7195773,167.564587 69.4305364,167.6391 L67.2753499,168.190198 L70.0800447,161.921459 Z" id="Shape" fill="#344567"></path>
                <path d="M71.2117637,156.075884 L71.0641482,161.163699 C71.0560398,161.46208 70.8512963,161.719013 70.5622554,161.793525 L68.4070689,162.344623 L71.2117637,156.075884 Z" id="Shape" fill="#344567"></path>
                <path d="M72.3828468,150.151582 L72.5599854,155.692084 C72.5956822,156.045166 72.3495444,156.364713 71.9990464,156.420321 L69.9717933,156.725393 L72.3828468,150.151582 Z" id="Shape" fill="#344567"></path>
                <path d="M71.9203181,144.52251 L73.3275861,149.787463 C73.4207823,150.123023 73.2410288,150.473971 72.9142626,150.594428 L71.7333385,151.204572 L71.9203181,144.52251 Z" id="Shape" fill="#344567"></path>
                <path d="M63.8113058,142.396846 L61.7348475,147.455138 C61.6049747,147.776234 61.7415826,148.143367 62.0497606,148.301467 L63.8900341,149.285571 L63.8113058,142.396846 Z" id="Shape" fill="#344567"></path>
                <path d="M70.4638451,139.021372 L72.6977599,143.400632 C72.8027309,143.597453 72.8027309,143.833637 72.6977599,144.030458 L71.7136564,145.772321 L70.4638451,139.021372 Z" id="Shape" fill="#344567"></path>
                <path d="M62.8272023,120.93355 L62.9748179,115.845736 C62.9829262,115.547355 63.1876698,115.290422 63.4767106,115.215909 L65.6318972,114.664811 L62.8272023,120.93355 Z" id="Shape" fill="#344567"></path>
                <path d="M62.718951,127.58609 L62.1776941,122.055428 C62.1419973,121.702347 62.3881351,121.382799 62.738633,121.327192 L64.7068399,121.012279 L62.718951,127.58609 Z" id="Shape" fill="#344567"></path>
                <path d="M62.3843558,131.689801 L60.9377237,126.415007 C60.8445275,126.079447 61.024281,125.728499 61.3510472,125.608042 L63.3192541,124.879805 L62.3843558,131.689801 Z" id="Shape" fill="#344567"></path>
                <path d="M69.0861002,121.12053 L68.9384847,116.032715 C68.9303763,115.734335 68.7256328,115.477402 68.436592,115.402889 L66.2814054,114.851791 L69.0861002,121.12053 Z" id="Shape" fill="#344567"></path>
                <path d="M69.4895826,127.084197 L69.6864033,121.553536 C69.7221001,121.200454 69.4759623,120.880906 69.1254644,120.825299 L67.0982113,120.520227 L69.4895826,127.084197 Z" id="Shape" fill="#344567"></path>
                <path d="M69.4502185,132.43772 L70.8574864,127.21213 C70.9506827,126.87657 70.7709291,126.525623 70.444163,126.405166 L69.2632389,125.795021 L69.4502185,132.43772 Z" id="Shape" fill="#344567"></path>
                <path d="M62.718951,136.393815 L60.6523337,131.335524 C60.5224609,131.014428 60.6590688,130.647295 60.9672468,130.489195 L62.8075203,129.505091 L62.718951,136.393815 Z" id="Shape" fill="#344567"></path>
                <path d="M68.9188027,136.334769 L71.1527175,131.955509 C71.2576885,131.758688 71.2576885,131.522503 71.1527175,131.325683 L70.168614,129.58382 L68.9188027,136.334769 Z" id="Shape" fill="#344567"></path>
                <path d="M70.2375013,127.094038 C68.1905661,117.02666 66.0156975,104.164428 66.0156975,104.164428 C66.0156975,104.164428 63.4963927,117.31205 61.8332579,127.408951 C60.0717127,138.05695 63.5259158,139.464218 66.0550616,139.464218 C69.1254644,139.464218 71.7431795,134.484655 70.2375013,127.094038 Z" id="Shape" fill="#344567"></path>
                <path d="M179.44346,129.721594 C183.799364,131.116592 188.240216,132.230914 192.738698,133.057705 C197.803683,133.832916 202.917728,134.244013 208.041506,134.287834 C204.810961,135.258777 201.472174,135.824057 198.102061,135.970651 C192.108871,136.374133 184.610003,138.096314 179.099024,139.139464 C162.615291,142.249231 158.236031,135.20305 158.167144,132.782156 C158.098257,129.977461 167.388193,126.267391 179.44346,129.721594 Z" id="Shape" fill="#344567"></path>
                <path d="M188.231504,137.466488 L193.949145,137.299191 C194.287206,137.29099 194.577708,137.056974 194.657699,136.728411 L195.267844,134.307516 L188.231504,137.466488 Z" id="Shape" fill="#344567"></path>
                <path d="M181.677375,138.745823 L187.395016,138.578525 C187.733077,138.570324 188.023579,138.336308 188.10357,138.007745 L188.713715,135.586851 L181.677375,138.745823 Z" id="Shape" fill="#344567"></path>
                <path d="M175.024836,139.641357 L181.224687,140.251501 C181.621327,140.292896 181.98068,140.015805 182.041493,139.621675 L182.395771,137.377919 L175.024836,139.641357 Z" id="Shape" fill="#344567"></path>
                <path d="M168.519912,139.690562 L174.424533,141.304492 C174.80083,141.410668 175.195407,141.20909 175.329908,140.841963 L176.156555,138.667094 L168.519912,139.690562 Z" id="Shape" fill="#344567"></path>
                <path d="M185.220147,131.542186 L190.937788,131.837417 C191.275849,131.845617 191.566352,132.079633 191.646343,132.408197 L192.256487,134.829091 L185.220147,131.542186 Z" id="Shape" fill="#344567"></path>
                <path d="M178.666018,130.026666 L184.383659,130.193964 C184.72172,130.202165 185.012223,130.436181 185.092214,130.764744 L185.702358,133.185638 L178.666018,130.026666 Z" id="Shape" fill="#344567"></path>
                <path d="M172.013479,128.72765 L178.223172,128.501306 C178.619812,128.459911 178.979165,128.737002 179.039978,129.131132 L179.384414,131.404411 L172.013479,128.72765 Z" id="Shape" fill="#344567"></path>
                <path d="M165.695535,129.229542 L171.600156,127.654977 C171.976453,127.548801 172.37103,127.750379 172.505531,128.117506 L173.194403,129.436204 L165.695535,129.229542 Z" id="Shape" fill="#344567"></path>
                <path d="M163.314005,138.34234 L168.992282,140.654983 C169.359474,140.82542 169.795623,140.672768 169.976385,140.310547 L171.058899,138.24393 L163.314005,138.34234 Z" id="Shape" fill="#344567"></path>
                <path d="M159.525207,130.872995 L164.445724,128.363531 C164.666926,128.244557 164.933076,128.244557 165.154278,128.363531 L167.122485,129.446045 L159.525207,130.872995 Z" id="Shape" fill="#344567"></path>
                <path d="M88.8961025,151.450598 C87.4888346,171.772334 81.7318295,181.15084 81.7318295,181.15084 C81.7318295,181.15084 81.023275,162.147803 80.747726,151.391552 C80.3540846,131.29616 82.4010198,132.939612 84.3692267,133.057705 C86.3374336,133.175797 90.3230525,130.912359 88.8961025,151.450598 Z" id="Shape" fill="#344567"></path>
                <path d="M88.3056405,135.527804 L90.0671856,140.684506 C90.1781355,141.012768 90.0201532,141.371431 89.7030673,141.511153 L88.5024611,142.180344 L88.3056405,135.527804 Z" id="Shape" fill="#344567"></path>
                <path d="M81.6235781,136.797298 L79.8620329,141.914636 C79.751083,142.242898 79.9090653,142.60156 80.2261512,142.741283 L81.4267574,143.410473 L81.6235781,136.797298 Z" id="Shape" fill="#344567"></path>
                <path d="M88.5123022,141.117512 L90.0179804,146.352942 C90.112291,146.685787 89.9373599,147.035649 89.614498,147.159907 L88.3745277,147.76021 L88.5123022,141.117512 Z" id="Shape" fill="#344567"></path>
                <path d="M81.3480291,143.144765 L79.9604433,148.409718 C79.8741508,148.744875 80.0576493,149.090535 80.3836077,149.206842 L81.6334191,149.787463 L81.3480291,143.144765 Z" id="Shape" fill="#344567"></path>
                <path d="M81.023275,149.787463 L80.0391715,155.150827 C79.9813509,155.48979 80.189833,155.817405 80.5213822,155.908587 L81.8105577,156.390797 L81.023275,149.787463 Z" id="Shape" fill="#344567"></path>
                <path d="M81.4169164,156.066043 L80.4328129,161.429407 C80.3749923,161.76837 80.5834744,162.095985 80.9150236,162.187167 L82.2041991,162.669377 L81.4169164,156.066043 Z" id="Shape" fill="#344567"></path>
                <path d="M88.6795998,147.770051 L90.0278215,153.044846 C90.1141139,153.380002 89.9306155,153.725662 89.604657,153.841969 L88.3548456,154.412749 L88.6795998,147.770051 Z" id="Shape" fill="#344567"></path>
                <path d="M87.7840656,154.068313 L89.1322873,159.343108 C89.2185798,159.678264 89.0350813,160.023924 88.7091229,160.140232 L87.4593115,160.711012 L87.7840656,154.068313 Z" id="Shape" fill="#344567"></path>
                <path d="M105.527451,150.003966 C103.559244,170.286338 97.5955769,179.527069 97.5955769,179.527069 C97.5955769,179.527069 97.3790742,160.514191 97.4184383,149.75794 C97.4971666,129.642866 99.5441018,131.345365 101.492627,131.473298 C103.441151,131.601232 107.485817,129.505091 105.527451,150.003966 Z" id="Shape" fill="#344567"></path>
                <path d="M105.350312,134.041808 L107.003606,139.257556 C107.106135,139.588108 106.939706,139.942302 106.619806,140.074362 L105.399517,140.71403 L105.350312,134.041808 Z" id="Shape" fill="#344567"></path>
                <path d="M98.6387266,135.153845 L96.739407,140.261342 C96.6198328,140.587304 96.7694149,140.950575 97.0838432,141.09783 L98.2746083,141.796543 L98.6387266,135.153845 Z" id="Shape" fill="#344567"></path>
                <path d="M105.409358,139.661039 L106.777262,144.935833 C106.863554,145.27099 106.680056,145.61665 106.354098,145.732957 L105.104286,146.303737 L105.409358,139.661039 Z" id="Shape" fill="#344567"></path>
                <path d="M98.19588,141.491471 L96.6705197,146.726902 C96.5762092,147.059746 96.7511402,147.409608 97.0740021,147.533866 L98.3041314,148.144011 L98.19588,141.491471 Z" id="Shape" fill="#344567"></path>
                <path d="M97.7038283,148.104646 L96.6016325,153.438487 C96.5307796,153.778383 96.731647,154.116011 97.0641611,154.215929 L98.3434956,154.727663 L97.7038283,148.104646 Z" id="Shape" fill="#344567"></path>
                <path d="M97.9498542,154.412749 L96.8476583,159.74659 C96.7768054,160.086486 96.9776728,160.424114 97.3101869,160.524032 L98.5895214,161.035766 L97.9498542,154.412749 Z" id="Shape" fill="#344567"></path>
                <path d="M105.409358,146.313578 L106.619806,151.627737 C106.697321,151.968063 106.500241,152.31081 106.167118,152.415019 L104.897624,152.946435 L105.409358,146.313578 Z" id="Shape" fill="#344567"></path>
                <path d="M104.346527,152.592158 L105.556974,157.906317 C105.634489,158.246643 105.437409,158.58939 105.104286,158.693599 L103.834793,159.225015 L104.346527,152.592158 Z" id="Shape" fill="#344567"></path>
                <path d="M105.596338,110.964583 C103.628131,90.6920516 101.728811,84.8858413 101.728811,84.8858413 C101.728811,84.8858413 97.4085973,100.503563 97.4873256,111.259814 C97.6349411,131.374888 99.6818762,129.662548 101.630401,129.524773 C103.578926,129.386999 107.633432,131.453616 105.596338,110.964583 Z" id="Shape" fill="#344567"></path>
                <path d="M105.478246,126.907058 L107.092175,121.701151 C107.194704,121.3706 107.028276,121.016405 106.708375,120.884345 L105.488087,120.254519 L105.478246,126.907058 Z" id="Shape" fill="#344567"></path>
                <path d="M98.76666,125.834386 L96.8574994,120.73673 C96.7365298,120.413335 96.881465,120.050997 97.1920945,119.900242 L98.3730187,119.201528 L98.76666,125.834386 Z" id="Shape" fill="#344567"></path>
                <path d="M105.51761,121.30751 L106.865831,116.032715 C106.951087,115.694791 106.76271,115.348007 106.432826,115.235591 L105.183014,114.664811 L105.51761,121.30751 Z" id="Shape" fill="#344567"></path>
                <path d="M98.3041314,119.496759 L96.759089,114.27117 C96.6636078,113.941007 96.8337594,113.592196 97.1527304,113.464205 L98.3828597,112.854061 L98.3041314,119.496759 Z" id="Shape" fill="#344567"></path>
                <path d="M97.7825566,112.893425 L96.6606787,107.559585 C96.5898258,107.219689 96.7906932,106.882061 97.1232073,106.782143 L98.4025418,106.270409 L97.7825566,112.893425 Z" id="Shape" fill="#344567"></path>
                <path d="M98.0089004,106.575481 L96.8870225,101.241641 C96.8161696,100.901745 97.017037,100.564117 97.3495511,100.464199 L98.6288856,99.952465 L98.0089004,106.575481 Z" id="Shape" fill="#344567"></path>
                <path d="M105.497928,114.65497 L106.688693,109.340812 C106.760484,109.003762 106.56457,108.667301 106.236005,108.56337 L104.966512,108.031954 L105.497928,114.65497 Z" id="Shape" fill="#344567"></path>
                <path d="M104.415414,108.386232 L105.606179,103.072073 C105.677971,102.735023 105.482056,102.398562 105.153491,102.294631 L103.883998,101.763215 L104.415414,108.386232 Z" id="Shape" fill="#344567"></path>
                <path d="M121.273106,150.003966 C119.304899,170.286338 113.341232,179.527069 113.341232,179.527069 C113.341232,179.527069 113.124729,160.514191 113.164093,149.75794 C113.242822,129.642866 115.289757,131.345365 117.238282,131.473298 C119.186806,131.601232 123.231472,129.505091 121.273106,150.003966 Z" id="Shape" fill="#344567"></path>
                <path d="M121.086126,134.041808 L122.749261,139.257556 C122.85179,139.588108 122.685361,139.942302 122.365461,140.074362 L121.145172,140.71403 L121.086126,134.041808 Z" id="Shape" fill="#344567"></path>
                <path d="M114.384382,135.153845 L112.485062,140.261342 C112.365488,140.587304 112.51507,140.950575 112.829498,141.09783 L114.020263,141.796543 L114.384382,135.153845 Z" id="Shape" fill="#344567"></path>
                <path d="M121.155013,139.661039 L122.522917,144.935833 C122.60921,145.27099 122.425711,145.61665 122.099753,145.732957 L120.849941,146.303737 L121.155013,139.661039 Z" id="Shape" fill="#344567"></path>
                <path d="M113.941535,141.491471 L112.416175,146.726902 C112.321864,147.059746 112.496795,147.409608 112.819657,147.533866 L114.049786,148.144011 L113.941535,141.491471 Z" id="Shape" fill="#344567"></path>
                <path d="M113.439642,148.104646 L112.337447,153.438487 C112.266594,153.778383 112.467461,154.116011 112.799975,154.215929 L114.07931,154.727663 L113.439642,148.104646 Z" id="Shape" fill="#344567"></path>
                <path d="M113.695509,154.412749 L112.593313,159.74659 C112.522461,160.086486 112.723328,160.424114 113.055842,160.524032 L114.335176,161.035766 L113.695509,154.412749 Z" id="Shape" fill="#344567"></path>
                <path d="M121.155013,146.313578 L122.365461,151.627737 C122.442976,151.968063 122.245896,152.31081 121.912773,152.415019 L120.64328,152.946435 L121.155013,146.313578 Z" id="Shape" fill="#344567"></path>
                <path d="M120.092182,152.592158 L121.302629,157.906317 C121.380144,158.246643 121.183065,158.58939 120.849941,158.693599 L119.580448,159.225015 L120.092182,152.592158 Z" id="Shape" fill="#344567"></path>
                <path d="M138.494916,150.673156 C136.526709,170.955528 130.563042,180.19626 130.563042,180.19626 C130.563042,180.19626 130.346539,161.183381 130.385904,150.427131 C130.464632,130.312056 132.511567,132.014555 134.460092,132.142489 C136.408617,132.270422 140.463123,130.174282 138.494916,150.673156 Z" id="Shape" fill="#344567"></path>
                <path d="M138.288254,134.730681 L139.921866,139.926747 C140.024395,140.257298 139.857966,140.611493 139.538066,140.743553 L138.317777,141.38322 L138.288254,134.730681 Z" id="Shape" fill="#344567"></path>
                <path d="M131.606192,135.823035 L129.637985,140.930532 C129.518411,141.256494 129.667993,141.619765 129.982421,141.76702 L131.173186,142.465734 L131.606192,135.823035 Z" id="Shape" fill="#344567"></path>
                <path d="M147.214072,151.637578 C148.985459,160.829104 156.533532,171.103144 156.533532,171.103144 C156.533532,171.103144 159.26934,158.536143 157.852231,149.285571 C155.785613,135.823035 151.76063,134.002444 147.430575,134.002444 C144.183034,134.002444 143.887803,133.303731 145.629666,143.400632 L147.214072,151.637578 Z" id="Shape" fill="#344567"></path>
                <path d="M145.186819,135.212891 L144.576675,140.62546 C144.539201,140.969008 144.769487,141.284585 145.108091,141.353697 L146.42679,141.747338 L145.186819,135.212891 Z" id="Shape" fill="#344567"></path>
                <path d="M152.971078,136.010015 L156.789399,139.887383 C157.024535,140.143374 157.024535,140.536767 156.789399,140.792758 L155.992275,141.914636 L152.971078,136.010015 Z" id="Shape" fill="#344567"></path>
                <path d="M156.208778,142.003205 L158.629672,146.923722 C158.781355,147.235109 158.670361,147.610781 158.373806,147.789733 L157.261769,148.606539 L156.208778,142.003205 Z" id="Shape" fill="#344567"></path>
                <path d="M157.192881,147.583072 L159.161088,152.670886 C159.282058,152.994281 159.137123,153.356619 158.826493,153.507374 L157.645569,154.215929 L157.192881,147.583072 Z" id="Shape" fill="#344567"></path>
                <path d="M157.970323,153.497533 L159.121724,158.821533 C159.193516,159.158583 158.997602,159.495044 158.669037,159.598975 L157.399543,160.120549 L157.970323,153.497533 Z" id="Shape" fill="#344567"></path>
                <path d="M145.777281,140.389275 L145.167137,145.801844 C145.129663,146.145392 145.359949,146.460969 145.698553,146.530081 L147.017252,146.923722 L145.777281,140.389275 Z" id="Shape" fill="#344567"></path>
                <path d="M146.505518,146.067552 L146.082354,151.499803 C146.057536,151.845642 146.300986,152.153159 146.643292,152.208358 L147.971832,152.552794 L146.505518,146.067552 Z" id="Shape" fill="#344567"></path>
                <path d="M147.715965,153.113733 L148.513089,158.50662 C148.563444,158.848883 148.866374,159.096347 149.211802,159.0774 L150.589547,159.0774 L147.715965,153.113733 Z" id="Shape" fill="#344567"></path>
                <path d="M146.741703,114.418786 C148.513089,105.227259 156.061162,94.9532195 156.061162,94.9532195 C156.061162,94.9532195 158.79697,107.52022 157.379861,116.770793 C155.313244,130.223487 151.288261,132.073601 146.948365,132.073601 C143.700823,132.073601 143.405592,132.772315 145.147455,122.675413 L146.741703,114.418786 Z" id="Shape" fill="#344567"></path>
                <path d="M144.704609,130.833631 L144.094465,125.421062 C144.05699,125.077514 144.287276,124.761938 144.62588,124.692826 L145.944579,124.299184 L144.704609,130.833631 Z" id="Shape" fill="#344567"></path>
                <path d="M152.488867,130.016825 L156.307188,126.139458 C156.542324,125.883466 156.542324,125.490074 156.307188,125.234082 L155.510064,124.112205 L152.488867,130.016825 Z" id="Shape" fill="#344567"></path>
                <path d="M155.775772,124.043317 L158.196667,119.1228 C158.348349,118.811413 158.237356,118.435742 157.9408,118.256789 L156.828763,117.439983 L155.775772,124.043317 Z" id="Shape" fill="#344567"></path>
                <path d="M156.759876,118.463451 L158.728083,113.375636 C158.849052,113.052241 158.704117,112.689903 158.393488,112.539148 L157.212563,111.830594 L156.759876,118.463451 Z" id="Shape" fill="#344567"></path>
                <path d="M157.488112,112.548989 L158.639513,107.224989 C158.688465,106.898562 158.492089,106.585198 158.176985,106.486912 L156.907491,105.965337 L157.488112,112.548989 Z" id="Shape" fill="#344567"></path>
                <path d="M145.295071,125.667088 L144.684927,120.254519 C144.647453,119.910971 144.877738,119.595395 145.216342,119.526282 L146.535041,119.132641 L145.295071,125.667088 Z" id="Shape" fill="#344567"></path>
                <path d="M78.5433343,108.110683 C78.664213,98.0258577 81.2127678,88.118562 85.9733153,79.2272465 C85.9733153,79.2272465 84.1035188,96.0750975 86.3767977,107.972908 C89.890047,126.346119 86.3767977,131.837417 83.5228977,132.073601 C80.2851974,132.34915 80.2950384,134.169742 79.2420478,119.841196 C79.2322067,119.841196 78.5433343,112.224235 78.5433343,108.110683 Z" id="Shape" fill="#344567"></path>
                <path d="M80.5509053,130.105394 L78.2776264,125.184877 C78.1354054,124.871105 78.2546397,124.500627 78.5531753,124.328707 L79.6848943,123.541425 L80.5509053,130.105394 Z" id="Shape" fill="#344567"></path>
                <path d="M86.0717256,129.327953 L88.6303946,124.515687 C88.7935842,124.209226 88.6952873,123.82886 88.4040508,123.639835 L87.321537,122.793506 L86.0717256,129.327953 Z" id="Shape" fill="#344567"></path>
                <path d="M87.5183577,120.795776 L88.6992818,115.481617 C88.7710734,115.144568 88.5751593,114.808106 88.2465942,114.704176 L86.9771008,114.17276 L87.5183577,120.795776 Z" id="Shape" fill="#344567"></path>
                <path d="M86.6425056,112.391533 L87.3805832,106.998646 C87.4249482,106.657689 87.2037101,106.338595 86.8688494,106.260568 L85.5599919,105.837404 L86.6425056,112.391533 Z" id="Shape" fill="#344567"></path>
                <path d="M85.1368274,103.288576 L86.4063208,97.9940992 C86.4847944,97.656597 86.2926538,97.3150137 85.9634743,97.2068164 L84.7038219,96.6557185 L85.1368274,103.288576 Z" id="Shape" fill="#344567"></path>
                <path d="M79.6652122,123.541425 L78.0808057,118.325676 C77.9794673,117.992456 78.1506675,117.637215 78.4744471,117.50887 L79.7045764,116.888885 L79.6652122,123.541425 Z" id="Shape" fill="#344567"></path>
                <path d="M78.9861809,115.481617 L77.1557485,110.354438 C77.0434774,110.028776 77.196773,109.671086 77.5100257,109.527792 L78.7106319,108.84876 L78.9861809,115.481617 Z" id="Shape" fill="#344567"></path>
                <path d="M78.7598371,107.028169 L77.5297078,101.723851 C77.4512342,101.386349 77.6433748,101.044766 77.9725543,100.936568 L79.2420478,100.395312 L78.7598371,107.028169 Z" id="Shape" fill="#344567"></path>
                <path d="M122.631169,106.044065 C122.631169,89.7866765 115.201188,79.1682003 115.201188,79.1682003 C115.201188,79.1682003 117.070984,94.0084802 114.797705,105.906291 C111.284456,124.279502 114.797705,129.770799 117.651605,130.006984 C120.889305,130.282533 120.879464,132.103124 121.932455,117.774578 C121.932455,117.774578 122.631169,110.157618 122.631169,106.044065 Z" id="Shape" fill="#344567"></path>
                <path d="M120.613756,128.0683 L122.887035,123.147783 C123.029256,122.834011 122.910022,122.463533 122.611486,122.291613 L121.479767,121.50433 L120.613756,128.0683 Z" id="Shape" fill="#344567"></path>
                <path d="M115.092936,127.261336 L112.534267,122.44907 C112.371078,122.142609 112.469374,121.762243 112.760611,121.573218 L113.843125,120.726889 L115.092936,127.261336 Z" id="Shape" fill="#344567"></path>
                <path d="M113.656145,118.729159 L112.475221,113.415 C112.403429,113.07795 112.599343,112.741489 112.927909,112.637558 L114.197402,112.106143 L113.656145,118.729159 Z" id="Shape" fill="#344567"></path>
                <path d="M114.522156,110.334756 L113.784079,104.941869 C113.739714,104.600913 113.960952,104.281819 114.295812,104.203792 L115.60467,103.780627 L114.522156,110.334756 Z" id="Shape" fill="#344567"></path>
                <path d="M116.027834,101.221958 L114.758341,95.9274819 C114.679867,95.5899798 114.872008,95.2483965 115.201188,95.1401992 L116.46084,94.5891013 L116.027834,101.221958 Z" id="Shape" fill="#344567"></path>
                <path d="M121.49945,121.474807 L123.083856,116.259059 C123.185195,115.925838 123.013994,115.570598 122.690215,115.442253 L121.460085,114.822268 L121.49945,121.474807 Z" id="Shape" fill="#344567"></path>
                <path d="M122.178481,113.375636 L124.008913,108.248457 C124.121184,107.922795 123.967889,107.565105 123.654636,107.42181 L122.45403,106.742779 L122.178481,113.375636 Z" id="Shape" fill="#344567"></path>
                <path d="M122.404825,104.961552 L123.634954,99.657234 C123.713428,99.3197318 123.521287,98.9781485 123.192107,98.8699512 L121.922614,98.3286943 L122.404825,104.961552 Z" id="Shape" fill="#344567"></path>
                <path d="M131.438894,106.988805 C132.523412,96.95546 136.010497,87.3313763 141.604683,78.9320155 C141.604683,78.9320155 138.120957,95.5239995 139.242835,107.589108 C140.974857,126.218186 136.930192,131.345365 134.086133,131.306001 C130.838591,131.306001 130.671294,133.077387 130.996048,118.709477 C131.005889,118.729159 131.045253,111.082675 131.438894,106.988805 Z" id="Shape" fill="#344567"></path>
                <path d="M131.320802,129.121291 L129.529734,123.97443 C129.418784,123.646168 129.576766,123.287506 129.893852,123.147783 L131.094458,122.478593 L131.320802,129.121291 Z" id="Shape" fill="#344567"></path>
                <path d="M136.890827,128.835901 L139.902184,124.299184 C140.096066,124.010251 140.036173,123.620945 139.764409,123.40365 L138.780306,122.419547 L136.890827,128.835901 Z" id="Shape" fill="#344567"></path>
                <path d="M139.154265,120.471022 L140.837082,115.294638 C140.940858,114.966724 140.77916,114.613542 140.463123,114.477832 L139.252676,113.828324 L139.154265,120.471022 Z" id="Shape" fill="#344567"></path>
                <path d="M139.095219,112.037255 L140.354871,106.732938 C140.433345,106.395436 140.241204,106.053852 139.912025,105.945655 L138.652373,105.394557 L139.095219,112.037255 Z" id="Shape" fill="#344567"></path>
                <path d="M138.494916,102.826047 L140.266302,97.669345 C140.377252,97.341083 140.21927,96.9824206 139.902184,96.8426981 L138.701578,96.1735078 L138.494916,102.826047 Z" id="Shape" fill="#344567"></path>
                <path d="M131.074776,122.458911 L129.992262,117.115229 C129.927974,116.775789 130.132641,116.443204 130.464632,116.347628 L131.743966,115.845736 L131.074776,122.458911 Z" id="Shape" fill="#344567"></path>
                <path d="M131.173186,114.359739 L129.844647,109.075104 C129.759391,108.73718 129.947768,108.390396 130.277652,108.27798 L131.537305,107.717041 L131.173186,114.359739 Z" id="Shape" fill="#344567"></path>
                <path d="M131.763648,105.925973 L131.055094,100.523245 C131.011468,100.179244 131.237843,99.8589025 131.576669,99.7851674 L132.885526,99.371844 L131.763648,105.925973 Z" id="Shape" fill="#344567"></path>
                <path d="M146.023307,119.97897 L145.600143,114.546719 C145.575325,114.20088 145.818776,113.893364 146.161082,113.838165 L147.489621,113.493728 L146.023307,119.97897 Z" id="Shape" fill="#344567"></path>
                <path d="M147.233755,112.94263 L148.030878,107.549744 C148.081234,107.20748 148.384163,106.960017 148.729592,106.978964 L150.107337,106.978964 L147.233755,112.94263 Z" id="Shape" fill="#344567"></path>
                <path d="M138.3473,140.330229 L139.715204,145.605024 C139.801497,145.94018 139.617998,146.28584 139.29204,146.402147 L138.042228,146.972927 L138.3473,140.330229 Z" id="Shape" fill="#344567"></path>
                <path d="M131.143663,142.160662 L129.637985,147.396092 C129.543674,147.728936 129.718606,148.078798 130.041467,148.203057 L131.271597,148.813201 L131.143663,142.160662 Z" id="Shape" fill="#344567"></path>
                <path d="M130.622088,148.80336 L129.519893,154.137201 C129.44904,154.477096 129.649907,154.814724 129.982421,154.914642 L131.261756,155.426376 L130.622088,148.80336 Z" id="Shape" fill="#344567"></path>
                <path d="M130.897637,155.08194 L129.795442,160.41578 C129.724589,160.755676 129.925456,161.093304 130.25797,161.193222 L131.537305,161.704956 L130.897637,155.08194 Z" id="Shape" fill="#344567"></path>
                <path d="M138.3473,146.982769 L139.557748,152.296927 C139.635263,152.637254 139.438183,152.98 139.10506,153.08421 L137.835567,153.615626 L138.3473,146.982769 Z" id="Shape" fill="#344567"></path>
                <path d="M137.29431,153.261348 L138.504757,158.575507 C138.582272,158.915834 138.385193,159.25858 138.052069,159.36279 L136.782576,159.894206 L137.29431,153.261348 Z" id="Shape" fill="#344567"></path>
                <path d="M158.954427,132.290104 C158.954427,132.290104 117.346533,128.875265 106.462349,128.717809 C96.1981501,128.560352 83.6508312,129.505091 73.3472681,133.697372 C72.5403033,134.022126 63.5062337,138.81471 63.3881413,138.854074 C60.9672468,139.887383 23.9747985,161.596705 23.9747985,161.596705 L18.7984144,169.233347 C18.7984144,169.233347 61.1542265,144.571715 63.7030544,143.144765 C64.6871579,142.613349 71.8120668,138.440751 73.878684,137.594422 C88.0792967,131.807893 97.1625714,131.433934 106.452508,131.689801 C109.483547,131.768529 152.80378,135.025912 158.846175,135.419553 C159.030372,135.430407 159.210876,135.364725 159.345022,135.238032 C159.479168,135.111339 159.555049,134.934879 159.55473,134.750363 L159.55473,132.978977 C159.56693,132.627214 159.304552,132.326125 158.954427,132.290104 Z" id="Shape" fill="#344567"></path>
                <path d="M38.4804832,44.0357075 C38.1655701,31.0947472 34.7507312,20.3483376 29.0134081,13.5285008 C24.6833529,8.40132184 18.0800189,6.00995047 15.8854682,3.874446 C8.99674408,-2.83713947 6.72346513,0.0266015462 14.9013647,16.3036725 C14.3601078,17.0614321 11.5062079,21.302918 11.0436792,24.6587107 C10.6500379,27.2370617 19.6742664,50.206036 21.3866064,60.0175474 C17.7552647,57.4982425 7.60915823,47.8343467 4.38129894,43.7207944 C0.444885176,38.7018668 -1.72998343,40.3059554 2.07849689,47.7457774 C4.50923239,52.479315 5.64095135,55.3135329 9.32149822,64.6821977 C11.1519306,69.3271659 15.7476937,66.5323121 14.0550358,72.9880307 C12.7560192,81.8843258 15.4819858,97.4626833 25.3230202,113.149292 C32.4971343,124.614097 32.989186,133.569439 31.0701843,139.582311 C27.2026578,151.696624 22.695464,156.567936 11.7915979,178.661058 C10.5319455,181.200045 11.4865258,188.876052 14.7439082,181.800348 C23.1284695,163.564911 22.8135564,165.208364 36.148158,145.85105 C57.3654282,115.038771 52.7598241,63.9638022 38.4804832,44.0357075 Z" id="Shape" fill="#344567"></path>
                <path d="M40.7537621,72.200748 L37.8703391,65.3120239 C36.3056146,70.3014283 29.1019774,72.200748 29.1019774,72.200748 C29.1019774,72.200748 36.3056146,72.200748 37.8703391,77.1901524 L40.7537621,72.200748 Z" id="Shape" fill="#FFFFFF"></path>
                <polygon id="Shape" fill="#FFFFFF" points="28.2458074 85.9880372 25.3623843 80.9887917 22.4888023 85.9880372 25.3623843 90.9774416"></polygon>
                <path d="M40.9210597,99.2537516 C41.009629,99.1750233 37.7325646,93.7230902 37.7325646,93.7230902 L34.5440694,99.2537516 C36.7386201,101.162912 37.7325646,111.643614 37.7325646,111.643614 C37.7325646,111.643614 38.8839656,101.162912 40.9210597,99.2537516 Z" id="Shape" fill="#FFFFFF"></path>
                <g id="Group-5" transform="translate(58.048304, 15.551276)" fill="#344567">
                    <path d="M10.2406727,0.55557577 L9.80766716,2.9666292 C9.02925574,2.81908162 8.23802609,2.74984903 7.4458189,2.75996748 C5.54649926,2.75996748 4.77889857,3.68502471 4.77889857,4.72817436 C4.77889857,5.77132401 5.44808891,6.47987849 7.14074683,7.68048469 C9.34513854,9.24520916 10.6638372,10.7410464 10.6638372,13.0536895 C10.6638372,15.8583843 8.32167096,17.9742067 4.26716478,17.9742067 C3.03997381,17.9764228 1.81604549,17.8477619 0.616141014,17.5904063 L1.04914653,15.1596708 C1.89654123,15.3120562 2.75679886,15.3812723 3.61765651,15.3663326 C5.75316098,15.3663326 6.67821822,14.3822291 6.67821822,13.3981257 C6.67821822,12.4140222 6.05823305,11.498806 4.36557513,10.2883588 C2.21038859,8.69411123 0.822802737,7.33604848 0.822802737,5.04308746 C0.822802737,2.23839266 2.97798927,0.211139566 6.78646959,0.211139566 C7.94692269,0.201048572 9.10506202,0.316532551 10.2406727,0.55557577 L10.2406727,0.55557577 Z" id="Shape"></path>
                    <polygon id="Shape" points="12.9863213 0.348914047 23.201315 0.348914047 24.1854184 2.74028541 20.5343947 2.74028541 20.5343947 17.7970681 16.5979809 17.7970681 16.5979809 2.74028541 12.9863213 2.74028541"></polygon>
                    <path d="M36.4276653,0.348914047 L40.5904228,17.7970681 L36.2997318,17.7970681 L35.6797466,14.1755674 L31.9007894,14.1755674 L31.3103274,17.7478629 L27.2262981,17.7478629 L31.4087377,0.299708875 L36.4276653,0.348914047 Z M32.2944308,11.8334012 L35.2959463,11.8334012 L34.1937504,5.18086195 L33.9870887,2.66155714 L33.6524936,2.66155714 L33.4458318,5.18086195 L32.2944308,11.8334012 Z" id="Shape"></path>
                    <path d="M50.1165441,0.161934393 C51.5384351,0.174759737 52.9569324,0.303115636 54.35803,0.545734736 L53.8758193,2.9666292 C52.9307408,2.82907309 51.9769559,2.76000591 51.0219193,2.75996748 C47.7350138,2.75996748 47.0166183,4.51167161 47.0166183,9.07791158 C47.0166183,13.4473309 47.50867,15.3466505 49.7425848,15.3466505 C50.2093981,15.373908 50.6757578,15.2860431 51.1006476,15.0907836 L51.1006476,7.61159745 L54.9780151,7.61159745 L54.9780151,17.787227 L51.1006476,17.787227 L51.1006476,16.2520257 C50.532677,17.3841103 49.3313709,18.0549695 48.069609,17.9446836 C44.4185852,17.9446836 43.0113173,14.9923733 43.0113173,9.08775261 C43.0113173,3.18313196 44.8515907,0.161934393 50.1165441,0.161934393 Z" id="Shape"></path>
                    <polygon id="Shape" points="63.2936892 17.787227 59.4163217 17.787227 59.4163217 0.348914047 63.2936892 0.348914047 63.2936892 7.62143848 67.5056519 7.62143848 67.5056519 0.348914047 71.4420657 0.348914047 71.4420657 17.787227 67.5056519 17.787227 67.5056519 10.0029688 63.2936892 10.0029688"></polygon>
                    <path d="M82.0408598,0.161934393 C86.7153511,0.161934393 88.1324601,3.35042954 88.1324601,9.07791158 C88.1324601,14.8053936 86.4594842,17.9348426 81.7849929,17.9348426 C77.1105015,17.9348426 75.6737105,14.7758705 75.6737105,9.07791158 C75.6737105,3.37995265 77.2876402,0.161934393 82.0408598,0.161934393 Z M81.9129263,15.3466505 C83.7630408,15.3466505 84.1468411,13.2406691 84.1468411,9.04838847 C84.1468411,4.85610781 83.7630408,2.75012645 81.9129263,2.75012645 C80.0628119,2.75012645 79.6790115,4.88563091 79.6790115,9.04838847 C79.6790115,13.211146 80.0628119,15.3466505 81.9129263,15.3466505 Z" id="Shape"></path>
                    <path d="M104.065095,5.82052918 C104.065095,8.59570089 102.707032,10.337564 100.571528,10.9575491 L104.704762,17.787227 L100.414071,17.787227 L97.3535093,11.5676933 L96.0446518,11.5676933 L96.0446518,17.787227 L92.2558535,17.787227 L92.2558535,0.348914047 L98.8296645,0.348914047 C101.919749,0.348914047 104.065095,2.29743886 104.065095,5.82052918 Z M97.1763707,2.74028541 L96.0151287,2.74028541 L96.0151287,9.18616295 L97.4322376,9.18616295 C99.2036238,9.18616295 100.030271,8.33983399 100.030271,5.91893953 C100.030271,3.49804506 99.3020342,2.74028541 97.245258,2.74028541 L97.1763707,2.74028541 Z" id="Shape"></path>
                    <polygon id="Shape" points="111.603327 2.99615231 111.239209 2.99615231 111.957604 10.3966102 111.957604 17.7970681 108.237693 17.7970681 108.237693 0.348914047 113.660103 0.348914047 118.826646 15.1596708 119.210447 15.1596708 118.492051 7.73953089 118.492051 0.348914047 122.221803 0.348914047 122.221803 17.787227 116.85844 17.787227"></polygon>
                    <polyline id="Shape" points="26.0847381 0.348914047 32.7963236 0.348914047 32.7963236 2.74028541 27.3640726 2.74028541"></polyline>
                    <path d="M31.9303125,29.6358325 L31.497307,31.9976807 C30.7352294,31.8519668 29.960503,31.7827359 29.1846639,31.791019 C27.3247084,31.791019 26.5669488,32.6963942 26.5669488,33.7001797 C26.5669488,34.7039652 27.216457,35.4125197 28.8795919,36.65249 C31.0446194,38.1876914 32.3239539,39.6048003 32.3239539,41.9076024 C32.3239539,44.653251 30.0309929,46.6903451 26.055215,46.6903451 C24.8545378,46.693116 23.6569927,46.5677531 22.4829195,46.3163858 L22.906084,43.9545376 C23.7374602,44.1018629 24.5812197,44.1677816 25.4253888,44.1513582 C27.5116881,44.1513582 28.3776991,43.1672548 28.3776991,42.1831514 C28.3776991,41.1990479 27.777396,40.3231959 26.1142612,39.1422717 C23.9984388,37.5873883 22.640376,36.1899614 22.640376,34.0150928 C22.640376,31.2694442 24.7561984,29.2815552 28.4761094,29.2815552 C29.6370504,29.2719414 30.7954936,29.3907561 31.9303125,29.6358325 L31.9303125,29.6358325 Z" id="Shape"></path>
                    <path d="M36.7228963,29.4390118 L40.6593101,29.4390118 L40.6593101,39.7622569 C40.6593101,42.2520386 40.8856539,44.1415172 42.6275169,44.1415172 C44.36938,44.1415172 44.7138162,42.2520386 44.7138162,39.7622569 L44.7138162,29.4390118 L48.4337272,29.4390118 L48.4337272,40.3330369 C48.4337272,43.9348555 47.0264593,46.6706631 42.4208552,46.6706631 C37.8152511,46.6706631 36.6638501,43.9250144 36.6638501,40.3330369 L36.7228963,29.4390118 Z" id="Shape"></path>
                    <polygon id="Shape" points="58.4223772 29.4390118 60.7645434 40.8054065 61.0892975 44.0529479 61.4140516 44.0529479 61.7388058 40.8054065 64.080972 29.4291708 69.5427461 29.4291708 71.2747681 46.5132065 67.2596261 46.5132065 66.7577333 35.0188783 66.669164 31.7024497 66.364092 31.7024497 65.9606095 35.0484014 63.4216227 46.5230475 58.9144289 46.5230475 56.375442 35.0484014 55.9719596 31.7024497 55.6668875 31.7024497 55.6176824 35.0188783 55.1157896 46.5132065 51.2679452 46.5132065 53.0294903 29.4291708"></polygon>
                    <path d="M83.3989225,29.4390118 L87.4731108,46.5230475 L83.2709891,46.5230475 L82.670686,43.0294803 L78.970457,43.0294803 L78.389836,46.5230475 L74.394376,46.5230475 L78.4784053,29.4390118 L83.3989225,29.4390118 Z M79.3444164,40.6873141 L82.2967267,40.6873141 L81.1945308,34.1725493 L80.9878691,31.7024497 L80.663115,31.7024497 L80.4662943,34.1725493 L79.3444164,40.6873141 Z" id="Shape"></path>
                    <path d="M89.9136873,38.0105528 C89.9136873,32.2043425 91.6457094,29.2520321 96.6055907,29.2520321 C97.871418,29.2480345 99.1343437,29.3733378 100.374707,29.6259914 L99.9220193,31.9878397 C99.1338817,31.8386497 98.3326954,31.7694114 97.530648,31.781178 C94.4897683,31.781178 93.830419,33.493518 93.830419,37.9711886 C93.830419,42.4488593 94.4799273,44.1119941 97.9341304,44.1119941 C98.7726522,44.1665621 99.6115332,44.0109632 100.374707,43.6593065 C100.374707,45.519262 99.1445776,46.6116168 96.4382931,46.6116168 C91.4488887,46.650981 89.9136873,43.797081 89.9136873,38.0105528 Z" id="Shape"></path>
                    <polyline id="Shape" points="75.7327567 31.7713369 74.9061098 31.7713369 73.9908936 29.4291708 79.4625088 29.4291708 79.4625088 31.7713369 79.5510781 31.7713369"></polyline>
                </g>
            </g>
        </g>
    </g>
</svg>