<svg xmlns="http://www.w3.org/2000/svg" width="585.01" height="73.53" viewBox="0 0 585.01 73.53"><title>Botanic-Logo</title><path d="M-1,1H23C31.16,1,35.57,4.7,35.57,14.4v7.87c0,6.82-4.32,10.08-6.62,10.85,3.26,1,8,3.74,8,12.19V55.87c0,11.13-4.42,16.51-13,16.51H-1ZM14.84,13.15V28.51H17c1.82,0,2.88-.86,2.88-3.55V16.51c0-2.21-.58-3.36-2.78-3.36Zm0,27.74V59.71h2.88c1.92,0,2.69-.77,2.69-3.84V44.54c0-2.5-.67-3.65-3-3.65Z" fill="#354766"/><path d="M79.73,54c0,12.29-6.91,19.39-17.66,19.39H59c-11.52,0-17.85-7-17.85-19.39V20.16C41.14,7.87,46.33,0,58.9,0H62C74.64,0,79.73,8,79.73,20.16ZM63.32,18.53c0-2.69-.86-4-2.88-4s-2.88,1.34-2.88,4V55.1c0,2.11.77,3.55,3,3.55,2,0,2.78-1.44,2.78-3.55Z" fill="#354766"/><path d="M116.69,1V15.74h-8.93V72.38H92V15.74H83.09V1Z" fill="#354766"/><path d="M136.47,61.92h-7.3l-1.06,10.46H114.39L123.51,1H143l10,71.42H137.62ZM130.61,47.8H135l-2.21-21.69Z" fill="#354766"/><path d="M171.32,1l8.16,34.56V1H193V72.38H179.09l-9.41-37.25V72.38H156V1Z" fill="#354766"/><path d="M213.94,72.38H198.1V1h15.84Z" fill="#354766"/><path d="M240.34,41.18H256V56c0,9-4.42,17.57-16.9,17.57h-2.78c-13.34,0-17.57-8-17.57-18.91V18.33C218.74,8.06,223.35,0,236.21,0h2.88C251.76,0,256,7.3,256,16.7V28.41H240.34v-11c0-2.3-.58-3.55-2.59-3.55s-2.59,1.06-2.59,3.55V55.48c0,2.4.67,3.74,2.69,3.74s2.5-1.54,2.5-3.74Z" fill="#354766"/><path d="M288.82,72.38H273V1h24.86c7,0,11.81,4.13,11.81,12.58v9.41c0,6.62-3.46,9.6-6.24,10.85a9.75,9.75,0,0,1,6.24,9.31V66.71a11.32,11.32,0,0,0,1,5.18v.48H295c-.67-.86-1.25-2.5-1.25-5.09V46.56c0-2.4-.58-3.46-2.69-3.46h-2.21Zm0-42.72h2c2,0,2.88-1,2.88-3.46v-9.6c0-2.5-.48-3.36-2.59-3.36h-2.3Z" fill="#354766"/><path d="M352.85,54c0,12.29-6.91,19.39-17.66,19.39h-3.07c-11.52,0-17.85-7-17.85-19.39V20.16C314.26,7.87,319.44,0,332,0h3.07c12.67,0,17.76,8,17.76,20.16ZM336.43,18.53c0-2.69-.86-4-2.88-4s-2.88,1.34-2.88,4V55.1c0,2.11.77,3.55,3,3.55,2,0,2.78-1.44,2.78-3.55Z" fill="#354766"/><path d="M357.55,1h18.91l3.94,33.41L384.53,1h17.85V72.38H388.75v-39l-6,39H377l-6-39v39H357.55Z" fill="#354766"/><path d="M427.63,61.92h-7.29l-1.06,10.46H405.55L414.67,1h19.49l10,71.42H428.78ZM421.78,47.8h4.42L424,26.11Z" fill="#354766"/><path d="M462.48,1l8.16,34.56V1h13.54V72.38H470.25l-9.41-37.25V72.38H447.12V1Z" fill="#354766"/><path d="M522,1V15.74h-8.93V72.38H497.33V15.74H488.4V1Z" fill="#354766"/><path d="M542,72.38H526.13V1H542Z" fill="#354766"/><path d="M568.36,41.18H584V56c0,9-4.42,17.57-16.89,17.57h-2.78c-13.34,0-17.57-8-17.57-18.91V18.33C546.76,8.06,551.37,0,564.24,0h2.88C579.79,0,584,7.3,584,16.7V28.41H568.36v-11c0-2.3-.58-3.55-2.59-3.55s-2.59,1.06-2.59,3.55V55.48c0,2.4.67,3.74,2.69,3.74s2.5-1.54,2.5-3.74Z" fill="#354766"/></svg>