
<svg xmlns="http://www.w3.org/2000/svg" viewBox="0 0 252.32 190.52"><circle cx="55.32" cy="167.13" r="4.54" transform="translate(-106.1 96.86) rotate(-48.16)" fill="#344567"/><circle cx="42.67" cy="183.06" r="4.54" transform="matrix(0.26, -0.97, 0.97, 0.26, -145.19, 176.91)" fill="#344567"/><circle cx="38.74" cy="166.39" r="4.54" transform="translate(-132.01 160.75) rotate(-75)" fill="#344567"/><path d="M57 167.8l-3.12.77L60.24 179l-18-13-1.53 2.45 19.17 14.05H43.77l.23 2.88 21.24.13a1 1 0 0 0 1-1v-1.76a1 1 0 0 0-.15-.53z" fill="#344567"/><circle cx="196.88" cy="166.96" r="4.54" transform="translate(-61.17 173.91) rotate(-41.84)" fill="#344567"/><circle cx="209.54" cy="181.88" r="4.54" transform="translate(-39.93 60.41) rotate(-15)" fill="#344567"/><circle cx="213.47" cy="166.21" r="4.54" transform="translate(-35.74 60.9) rotate(-15)" fill="#344567"/><path d="M211.53 168.22l-1.53-2.45-18 13 6.41-10.42-3.12-.77-9.1 14.4a1 1 0 0 0-.15.53v1.76a1 1 0 0 0 1 1l21.24-.13.23-2.88H192.4z" fill="#344567"/><path fill="#344567" d="M205.12 183.26l7.34 1.41.83-2.48-7.36-1.66-.81 2.73M98 162.46l.66 2.17h-7.58v8.93h8.2v2.24h-8.2v9h7.5v2.2h-10v-11.19h-1.73v-2.24h1.65v-11.1zM106.15 162.46v22.35h6.58V187h-9.12v-24.54zM119.53 162.46a18.75 18.75 0 0 1 4 .37 12.25 12.25 0 0 1 .92 23.49 17.94 17.94 0 0 1-5.73.66h-3.23v-24.52zm-.18 22.35a13.39 13.39 0 0 0 4.74-.74 9.83 9.83 0 0 0 6.21-9.37 10.09 10.09 0 0 0-5.18-9 9.51 9.51 0 0 0-4.67-1.07H118v20.18zM146.7 162.46l.66 2.17h-7.57v8.93H148v2.24h-8.2v9h7.5v2.2h-10v-11.19h-1.69v-2.24h1.65v-11.1zM155.41 162.46c2.79 0 4.63.29 6 1a7.19 7.19 0 0 1 3.82 6.54 7.38 7.38 0 0 1-6.36 7.35l7.13 8.56-1.87 1.47-9.3-11V187h-2.46v-24.54zm-.62 13.27a11 11 0 0 0 4.26-.51 5.31 5.31 0 0 0 3.64-5.26 5.11 5.11 0 0 0-2.76-4.71 8.43 8.43 0 0 0-3.53-.62h-1.62zM124.61 112.46C123 74.15 101.88 47.09 81.38 35.65c0 0 3.38-2.78 4.1-2.32 28.73 18.61 45.25 49.89 44.74 80.15-.01 0-5.54.63-5.61-1.02zM70.59 6.29l2.94 1.21 1.89 20.89L61 45.79l-2-2.3s11-12 12.52-17.15c1.43-4.93-.93-20.05-.93-20.05z"/><path fill="#344567" d="M87.74 36.41l-19.23.17.92-2.99 17.37-.32.94 3.14"/><circle cx="86.91" cy="15.87" r="4.43" transform="translate(-0.83 26.21) rotate(-17.07)" fill="#344567"/><circle cx="68.82" cy="21.97" r="4.43" transform="translate(4.01 53.87) rotate(-43.91)" fill="#344567"/><circle cx="62.07" cy="10.22" r="4.43" transform="translate(10.26 45.91) rotate(-43.91)" fill="#344567"/><circle cx="49.02" cy="9.1" r="4.43" transform="translate(7.4 36.55) rotate(-43.91)" fill="#344567"/><circle cx="54.43" cy="21.57" r="4.43" transform="translate(0.26 43.78) rotate(-43.91)" fill="#344567"/><circle cx="73.42" cy="6.89" r="4.43" transform="translate(15.75 52.85) rotate(-43.91)" fill="#344567"/><circle cx="60.06" cy="44.76" r="4.43" transform="translate(14.17 103.96) rotate(-88.91)" fill="#344567"/><circle cx="49.08" cy="33.73" r="4.43" transform="translate(14.43 82.16) rotate(-88.91)" fill="#344567"/><circle cx="61.13" cy="30.95" r="4.43" transform="translate(29.02 91.49) rotate(-88.91)" fill="#344567"/><path fill="#344567" d="M85.11 35.56l-.17-19.24 2.99.93.32 17.36-3.14.95"/><path d="M88.36 37.79l-16-9.94 1.26-2.52 14.6 8.9a2.73 2.73 0 0 0 .65 1.42z" fill="#344567"/><path fill="#344567" d="M84.79 35.3L74.03 9.55l2.52-1.28L87.19 33.3l-2.4 2M71.81 25.34l-6.84-2.52.56-2.48 6.98 2.31-.7 2.69M72.27 30.51L52.04 34.9l-.63-2.47 20.26-4.63.6 2.71M64.35 20.6l-3.84-10.02 3.19-.73 3.5 10.1-2.85.65"/><path fill="#344567" d="M56.71 22.82l9.75-.02.73-2.85-10.76.21.28 2.66M52.46 10.99l3.84 10.02-3.19.73-3.5-10.1 2.85-.65"/><path fill="#344567" d="M60.1 8.77l-9.75.02-.73 2.85 10.76-.21-.28-2.66M57.45 97.21c6.56 3 17.05.87 17.36.21s-4.72-9.91-11.57-13.06c-8.2-3.77-13.32-1.26-16.8-1.42-1.53-.07-3.81-.35-3.81-.35s1.73 1.64 2.76 2.8c2.11 2.39 3.77 8.02 12.06 11.82zM62.94 105c6.45-3.22 16.83-1.91 17.16-1.26s-4.9 8.92-11.51 12.55c-5.22 2.86-12.92 2.47-16.39 2.77a33.32 33.32 0 0 0-4.33.91s2.19-2.11 3.17-3.31c2.02-2.43 6.18-8.76 11.9-11.66z"/><rect x="79.69" y="100.01" width="1.77" height="5.56" rx=".76" ry=".76" transform="translate(51.98 230.23) rotate(-129.26)" fill="#344567"/><path d="M75.85 113.09c5.5-4.66 15.9-5.85 16.38-5.3s-2.64 9.83-8.2 14.92c-4.39 4-12 5.46-15.27 6.59a33.32 33.32 0 0 0-4 1.91s1.63-2.57 2.29-4c1.39-2.85 3.95-9.99 8.8-14.12z" fill="#344567"/><rect x="91.57" y="103.93" width="1.77" height="5.56" rx=".76" ry=".76" transform="translate(102.05 247.58) rotate(-142.99)" fill="#344567"/><path d="M91.53 119.41c4.89-5.3 15.07-7.75 15.61-7.26s-1.42 10.08-6.32 15.81c-3.86 4.53-11.21 6.88-14.35 8.4a33.32 33.32 0 0 0-3.72 2.39s1.3-2.75 1.79-4.22c1.01-3.03 2.66-10.42 6.99-15.12z" fill="#344567"/><rect x="106.34" y="108.27" width="1.77" height="5.56" rx=".76" ry=".76" transform="translate(144.59 260.84) rotate(-150.01)" fill="#344567"/><path d="M100.67 88.91c1.52 7.05 9 14.33 9.75 14.18s3.89-9.4 2.59-16.83c-1-5.86-6.16-11.62-8.09-14.53a33.32 33.32 0 0 1-2-3.95s-.28 3-.6 4.54c-.66 3.13-3 10.34-1.65 16.59z" fill="#344567"/><rect x="109.06" y="101.3" width="1.77" height="5.56" rx=".76" ry=".76" transform="translate(218.9 209.19) rotate(-179.46)" fill="#344567"/><path d="M70.47 85.07c2.66 6.7 11.28 12.64 12 12.38s2.29-9.92-.22-17c-2-5.61-8-10.45-10.38-13a33.32 33.32 0 0 1-2.62-3.56s.23 3 .16 4.58c-.19 3.17-1.3 10.67 1.06 16.6z" fill="#344567"/><rect x="81.24" y="95.72" width="1.77" height="5.56" rx=".76" ry=".76" transform="translate(178.58 183.02) rotate(171.04)" fill="#344567"/><path d="M85.46 87.68c1 7.14 8 15 8.68 14.86s4.58-9.09 3.86-16.6c-.59-5.92-5.29-12-7-15.08a33.32 33.32 0 0 1-1.7-4.08s-.5 3-.94 4.49c-.92 3.07-3.78 10.08-2.9 16.41z" fill="#344567"/><rect x="92.71" y="100.71" width="1.77" height="5.56" rx=".76" ry=".76" transform="translate(178.25 214.41) rotate(-175.23)" fill="#344567"/><path d="M179.88 95.78c-.16-.51-.36-1.53-.57-1.11-3.93 8-30.56 9.32-52.8 16-22.39-6.88-49.58-8.17-53.56-16.23-.21-.42-.42.6-.57 1.11s-.17 1.35.17 1.62c10.92 8.67 32.64 8.51 53.94 18.41.07.07.28.09.31 0 21.32-9.94 42-9.51 53-18.19.2-.26.2-1.11.08-1.61z" fill="#344567"/><path d="M194.76 97.47c-6.56 3-17.05.87-17.36.21s4.72-9.91 11.57-13.06c8.2-3.77 13.32-1.26 16.8-1.42 1.53-.07 3.81-.35 3.81-.35s-1.73 1.64-2.76 2.8C204.7 88 203 93.66 194.76 97.47zM189.27 105.3c-6.45-3.22-16.83-1.91-17.16-1.26s4.9 8.92 11.51 12.55c5.22 2.86 12.92 2.47 16.39 2.77a33.32 33.32 0 0 1 4.33.91s-2.19-2.11-3.17-3.31c-2.02-2.47-6.17-8.8-11.9-11.66z" fill="#344567"/><rect x="170.74" y="100.27" width="1.77" height="5.56" rx=".76" ry=".76" transform="translate(-16.78 170.72) rotate(-50.74)" fill="#344567"/><path d="M176.35 113.35c-5.5-4.66-15.9-5.85-16.38-5.3s2.64 9.83 8.2 14.92c4.39 4 12 5.46 15.27 6.59a33.32 33.32 0 0 1 4 1.91s-1.63-2.57-2.29-4c-1.38-2.86-3.92-9.99-8.8-14.12z" fill="#344567"/><rect x="158.87" y="104.19" width="1.77" height="5.56" rx=".76" ry=".76" transform="matrix(0.8, -0.6, 0.6, 0.8, -32.21, 117.7)" fill="#344567"/><path d="M160.67 119.67c-4.89-5.3-15.07-7.75-15.61-7.26s1.42 10.08 6.32 15.81c3.86 4.53 11.21 6.88 14.35 8.4a33.32 33.32 0 0 1 3.72 2.39s-1.3-2.75-1.79-4.22c-1-3.04-2.66-10.43-6.99-15.12z" fill="#344567"/><rect x="144.09" y="108.53" width="1.77" height="5.56" rx=".76" ry=".76" transform="translate(-36.23 87.37) rotate(-29.99)" fill="#344567"/><path d="M151.53 89.16c-1.52 7.05-9 14.33-9.75 14.18s-3.89-9.4-2.59-16.83c1-5.86 6.16-11.62 8.09-14.53a33.32 33.32 0 0 0 2-3.95s.28 3 .6 4.54c.67 3.14 3 10.35 1.65 16.59z" fill="#344567"/><rect x="141.37" y="101.55" width="1.77" height="5.56" rx=".76" ry=".76" transform="translate(-0.98 1.35) rotate(-0.54)" fill="#344567"/><path d="M181.73 85.33c-2.66 6.7-11.28 12.64-12 12.38s-2.29-9.92.22-17c2-5.61 8-10.45 10.38-13a33.32 33.32 0 0 0 2.67-3.59s-.23 3-.16 4.58c.16 3.2 1.25 10.69-1.11 16.63z" fill="#344567"/><rect x="169.2" y="95.98" width="1.77" height="5.56" rx=".76" ry=".76" transform="translate(17.45 -25.28) rotate(8.96)" fill="#344567"/><path d="M166.74 87.93c-1 7.14-8 15-8.68 14.86s-4.58-9.09-3.83-16.59c.59-5.92 5.29-12 7-15.08a33.32 33.32 0 0 0 1.7-4.08s.5 3 .94 4.49c.9 3.06 3.76 10.07 2.87 16.4z" fill="#344567"/><rect x="157.73" y="100.96" width="1.77" height="5.56" rx=".76" ry=".76" transform="translate(-8.08 13.55) rotate(-4.77)" fill="#344567"/><circle cx="120.61" cy="28.12" r="4.43" transform="translate(86.24 147.11) rotate(-87.01)" fill="#344567"/><circle cx="119.1" cy="47.18" r="4.43" transform="translate(18.93 127.03) rotate(-60.17)" fill="#344567"/><circle cx="132.62" cy="39.03" r="4.43" transform="translate(32.79 134.66) rotate(-60.17)" fill="#344567"/><path fill="#344567" d="M130.52 36.33l-21.48-3.38 11.61-2.81-1.63-2.68-19.27 4.4v.83l16.18 15.88 2.14-1.84-11.14-11.11 22.96 3.47.63-2.76"/><path fill="#344567" d="M115.09 45.1l4.12 6.03 2.28-1.15-3.95-6.22-2.45 1.34"/></svg>