<?xml version="1.0" encoding="UTF-8"?>
<svg viewBox="0 0 250 250" version="1.1" xmlns="http://www.w3.org/2000/svg" xmlns:xlink="http://www.w3.org/1999/xlink">
    <!-- Generator: Sketch 43.2 (39069) - http://www.bohemiancoding.com/sketch -->
    <title>Elder-Small Copy</title>
    <desc>Created with Sketch.</desc>
    <defs></defs>
    <g id="Page-2" stroke="none" stroke-width="1" fill="none" fill-rule="evenodd">
        <g id="Elder-Small-Copy">
            <polygon id="Rectangle" fill="#EBD9D1" points="71.0352556 85.3952556 217.144744 85.3952556 217.144744 178.504744 71.0352556 178.504744"></polygon>
            <g id="Group-5" transform="translate(24.580000, 29.920000)" fill-rule="nonzero" fill="#344567">
                <path d="M51.6731345,36.5799653 C51.6731345,36.5799653 55.1820875,33.6939034 55.9295567,34.1714532 C85.7556565,53.4914573 102.905923,85.9648441 102.376466,117.379316 C102.366085,117.379316 96.6251054,118.033352 96.5524347,116.320401 C94.8810104,76.5488077 72.9552454,48.4564213 51.6731345,36.5799653 Z M43.5236433,7.35599352 L45.4857501,29.0429836 L30.5156019,47.1068241 L28.4392984,44.719075 C28.4392984,44.719075 39.8589676,32.261254 41.4369583,26.9147725 C42.9215153,21.7966844 40.4714772,6.0998299 40.4714772,6.0998299 L43.5236433,7.35599352 Z" id="Shape"></path>
                <polyline id="Shape" points="58.2757797 37.3689606 38.3121215 37.5454464 39.2672211 34.4413727 57.299917 34.1091641 58.2757797 37.3689606"></polyline>
                <circle id="Oval" transform="translate(57.413924, 16.044628) rotate(-17.070000) translate(-57.413924, -16.044628) " cx="57.413924" cy="16.0446276" r="4.59901226"></circle>
                <circle id="Oval" transform="translate(38.641007, 22.377303) rotate(-43.910000) translate(-38.641007, -22.377303) " cx="38.6410069" cy="22.3773029" r="4.59901226"></circle>
                <circle id="Oval" transform="translate(31.621178, 10.185516) rotate(-43.910000) translate(-31.621178, -10.185516) " cx="31.6211783" cy="10.1855163" r="4.59901226"></circle>
                <circle id="Oval" transform="translate(18.085378, 9.026579) rotate(-43.910000) translate(-18.085378, -9.026579) " cx="18.0853785" cy="9.02657887" r="4.59901226"></circle>
                <circle id="Oval" transform="translate(23.697435, 21.963796) rotate(-43.910000) translate(-23.697435, -21.963796) " cx="23.6974354" cy="21.9637965" r="4.59901226"></circle>
                <circle id="Oval" transform="translate(43.411919, 6.727879) rotate(-43.910000) translate(-43.411919, -6.727879) " cx="43.4119189" cy="6.72787901" r="4.59901226"></circle>
                <circle id="Oval" transform="translate(29.544326, 46.039952) rotate(-88.910000) translate(-29.544326, -46.039952) " cx="29.5443262" cy="46.0399517" r="4.59901226"></circle>
                <circle id="Oval" transform="translate(18.148663, 34.587259) rotate(-88.910000) translate(-18.148663, -34.587259) " cx="18.1486632" cy="34.5872589" r="4.59901226"></circle>
                <circle id="Oval" transform="translate(30.647729, 31.710848) rotate(-88.910000) translate(-30.647729, -31.710848) " cx="30.6477294" cy="31.7108485" r="4.59901226"></circle>
                <polyline id="Shape" points="55.5454406 36.4865317 55.3689548 16.512492 58.4730285 17.4779731 58.8052371 35.5002875 55.5454406 36.4865317"></polyline>
                <path d="M58.9194338,38.8016101 L42.3090058,28.4823817 L43.617077,25.8662392 L58.7740925,35.1057898 C58.8506775,35.6524071 59.0852081,36.1647662 59.4488912,36.5799653 L58.9194338,38.8016101 Z" id="Shape"></path>
                <path d="M55.213232,36.2166122 L44.0427192,9.48420461 L46.6588616,8.15537037 L57.7047962,34.1403087 L55.213232,36.2166122 M41.7380223,25.8766208 L34.6370643,23.2604783 L35.2184293,20.685862 L42.4647285,23.0839925 L41.7380223,25.8766208 M42.2155721,31.2438653 L21.2137622,35.8013515 L20.5597266,33.2371167 L41.592681,28.4304741 L42.2155721,31.2438653 M33.9934102,20.9557815 L30.0069075,10.5535009 L33.3186116,9.79565014 L36.9521427,20.2809828 L33.9934102,20.9557815" id="Shape"></path>
                <path d="M26.0619308,23.2604783 L36.1839104,23.2397153 L36.9417612,20.2809828 L25.7712484,20.4989947 L26.0619308,23.2604783 M21.6497859,10.9791431 L25.6362886,21.3814237 L22.3245845,22.1392745 L18.6910534,11.6539418 L21.6497859,10.9791431" id="Shape"></path>
                <path d="M29.5812653,8.67444624 L19.4592857,8.69520928 L18.7014349,11.6539418 L29.8719478,11.4359299 L29.5812653,8.67444624 L29.5812653,8.67444624 Z M26.8301631,100.488587 C33.6404386,103.603042 44.5306505,101.391779 44.8524775,100.706599 C45.1743046,100.021419 39.9524013,90.4185151 32.8410618,87.1483371 C24.3282174,83.234505 19.0128805,85.8402659 15.4001124,85.6741616 C13.8117402,85.601491 11.4447542,85.3108085 11.4447542,85.3108085 C11.4447542,85.3108085 13.2407567,87.0133774 14.310053,88.2176334 C16.5005532,90.6988161 18.2238851,96.5436104 26.8301631,100.488587 L26.8301631,100.488587 Z M32.5296163,108.575789 C39.2256951,105.232941 50.0017102,106.592919 50.3443003,107.267718 C50.6868904,107.942517 45.2573567,116.528032 38.3951736,120.296523 C32.9760215,123.265637 24.982253,122.860757 21.3798665,123.172203 C19.862191,123.387164 18.360482,123.702766 16.8846694,124.116921 C16.8846694,124.116921 19.1582217,121.926421 20.1756104,120.680639 C22.272677,118.15793 26.5913882,111.586429 32.5296163,108.575789 L32.5296163,108.575789 Z" id="Shape"></path>
                <rect id="Rectangle-path" transform="translate(50.839858, 106.284110) rotate(-129.260000) translate(-50.839858, -106.284110) " x="49.921094" y="103.398048" width="1.8375286" height="5.77212374" rx="0.788995331"></rect>
                <path d="M45.9321554,116.974437 C51.64199,112.13665 62.4387682,110.901249 62.937081,111.472233 C63.4353939,112.043216 60.1963604,121.677264 54.4242367,126.961457 C49.8667505,131.114064 41.9664157,132.629765 38.5716594,133.802877 C37.1449787,134.370927 35.7577075,135.033349 34.4190524,135.785747 C34.4190524,135.785747 36.1112398,133.117697 36.79642,131.63314 C38.2394509,128.674407 40.8971194,121.262004 45.9321554,116.974437 Z" id="Shape"></path>
                <rect id="Rectangle-path" transform="translate(63.172140, 110.356344) rotate(-142.990000) translate(-63.172140, -110.356344) " x="62.2533755" y="107.470282" width="1.8375286" height="5.77212374" rx="0.788995331"></rect>
                <path d="M62.2103748,123.535556 C67.2869369,118.033352 77.8553217,115.48988 78.4159236,115.998574 C78.9765256,116.507269 76.9417482,126.463144 71.8548046,132.411753 C67.8475388,137.114581 60.2171235,139.554237 56.957327,141.132228 C55.6165023,141.872869 54.3263543,142.701755 53.0954024,143.613411 C53.0954024,143.613411 54.4449997,140.758494 54.9536941,139.23241 C56.0022273,136.086811 57.7151777,128.414869 62.2103748,123.535556 L62.2103748,123.535556 Z" id="Shape"></path>
                <rect id="Rectangle-path" transform="translate(78.508614, 114.868959) rotate(-150.010000) translate(-78.508614, -114.868959) " x="77.58985" y="111.982897" width="1.8375286" height="5.77212374" rx="0.788995331"></rect>
                <path d="M71.6990818,91.8719276 C73.2770725,99.1908974 81.0424476,106.748642 81.8210614,106.592919 C82.5996752,106.437197 85.8594717,96.8342929 84.5098744,89.1208254 C83.4717227,83.0372562 78.1148596,77.0575021 76.1112268,74.0364805 C75.3289756,72.7171255 74.6353436,71.3472022 74.0349233,69.9357811 C74.0349233,69.9357811 73.7442408,73.0502363 73.4120322,74.64899 C72.7268521,77.898405 70.297577,85.3834791 71.6990818,91.8719276 L71.6990818,91.8719276 Z" id="Shape"></path>
                <rect id="Rectangle-path" transform="translate(81.323578, 107.619060) rotate(-179.460000) translate(-81.323578, -107.619060) " x="80.4048141" y="104.732999" width="1.8375286" height="5.77212374" rx="0.788995331"></rect>
                <path d="M40.3468989,87.8854248 C43.1083826,94.8410416 52.0572507,101.007663 52.80472,100.737744 C53.5521892,100.467824 55.1820875,90.4392782 52.5763266,83.0891638 C50.5000231,77.2651324 44.2711126,72.240478 41.8003114,69.593191 C40.8128546,68.4228128 39.9042032,67.1881567 39.0803538,65.8973708 C39.0803538,65.8973708 39.3191287,69.011826 39.2464581,70.6521058 C39.0492093,73.9430468 37.8968608,81.729185 40.3468989,87.8854248 Z" id="Shape"></path>
                <rect id="Rectangle-path" transform="translate(52.437499, 101.840794) rotate(171.040000) translate(-52.437499, -101.840794) " x="51.5187345" y="98.9547323" width="1.8375286" height="5.77212374" rx="0.788995331"></rect>
                <path d="M55.9087937,90.5950009 C56.9469454,98.0074044 64.2140077,106.167277 64.9199509,106.021936 C65.6258941,105.876595 69.6746859,96.5851365 68.9272166,88.7886169 C68.3147071,82.6427585 63.4353939,76.3307959 61.6601544,73.1332885 C60.9787681,71.7620203 60.3891852,70.3470215 59.8952964,68.8976293 C59.8952964,68.8976293 59.3762205,72.0120846 58.9194338,73.5589307 C57.9643342,76.7460566 54.9952201,84.0235003 55.9087937,90.5950009 L55.9087937,90.5950009 Z" id="Shape"></path>
                <rect id="Rectangle-path" transform="translate(64.343761, 107.013829) rotate(-175.230000) translate(-64.343761, -107.013829) " x="63.4249963" y="104.127767" width="1.8375286" height="5.77212374" rx="0.788995331"></rect>
                <path d="M153.931082,99.0040301 C153.764978,98.4745727 153.557347,97.4156579 153.339336,97.8516817 C149.259399,106.156896 121.613418,107.527256 98.5249231,114.46211 C75.2807054,107.319626 47.0533593,105.98041 42.9215153,97.6129067 C42.7035034,97.176883 42.4854915,98.2357978 42.3297688,98.7652552 C42.174046,99.2947126 42.153283,100.16676 42.5062546,100.447061 C53.8428717,109.447837 76.3915277,109.281732 98.50416,119.559435 C98.5768307,119.632105 98.7948425,119.652868 98.8259871,119.559435 C120.959382,109.240206 142.428361,109.686612 153.84803,100.675454 C154.05566,100.405535 154.05566,99.523106 153.931082,99.0040301 L153.931082,99.0040301 Z" id="Shape"></path>
                <path d="M169.37878,100.758507 C162.568505,103.872962 151.678293,101.661699 151.356466,100.976518 C151.034639,100.291338 156.256542,90.6884346 163.367881,87.4182566 C171.880726,83.5044245 177.196063,86.1101853 180.808831,85.9440811 C182.397203,85.8714104 184.764189,85.580728 184.764189,85.580728 C184.764189,85.580728 182.968186,87.2832968 181.89889,88.4875529 C179.698008,90.9272095 177.93315,96.8031484 169.37878,100.758507 Z M163.679327,108.887235 C156.983248,105.544386 146.207233,106.904365 145.864643,107.579164 C145.522053,108.253962 150.951586,116.839477 157.81377,120.607968 C163.232922,123.577082 171.22669,123.172203 174.829077,123.483648 C176.346752,123.69861 177.848461,124.014212 179.324274,124.428366 C179.324274,124.428366 177.050722,122.237866 176.033333,120.992084 C173.936266,118.427849 169.627936,111.856349 163.679327,108.887235 L163.679327,108.887235 Z" id="Shape"></path>
                <rect id="Rectangle-path" transform="translate(145.357016, 106.549346) rotate(-50.740000) translate(-145.357016, -106.549346) " x="144.438251" y="103.663284" width="1.8375286" height="5.77212374" rx="0.788995331"></rect>
                <path d="M150.266406,117.244356 C144.556572,112.406569 133.759793,111.171169 133.261481,111.742152 C132.763168,112.313136 136.002201,121.947184 141.774325,127.231376 C146.331811,131.383983 154.232146,132.899685 157.626902,134.072796 C159.053583,134.640847 160.440854,135.303269 161.779509,136.055666 C161.779509,136.055666 160.087322,133.387616 159.402142,131.903059 C157.969492,128.933945 155.332587,121.531923 150.266406,117.244356 L150.266406,117.244356 Z" id="Shape"></path>
                <rect id="Rectangle-path" transform="translate(133.060079, 111.091231) rotate(-36.869898) translate(-133.060079, -111.091231) " x="132.141315" y="108.205169" width="1.8375286" height="5.77212374" rx="0.788995331"></rect>
                <path d="M133.988187,123.805475 C128.911625,118.303271 118.34324,115.759799 117.782638,116.268494 C117.222036,116.777188 119.256814,126.733063 124.343757,132.681673 C128.351023,137.3845 135.981438,139.824157 139.241235,141.402148 C140.582059,142.142789 141.872207,142.971674 143.103159,143.88333 C143.103159,143.88333 141.753562,141.028413 141.244868,139.50233 C140.206716,136.346349 138.483384,128.674407 133.988187,123.805475 L133.988187,123.805475 Z" id="Shape"></path>
                <rect id="Rectangle-path" transform="translate(117.692171, 115.127995) rotate(-29.990000) translate(-117.692171, -115.127995) " x="116.773406" y="112.241933" width="1.8375286" height="5.77212374" rx="0.788995331"></rect>
                <path d="M124.49948,92.1314655 C122.921489,99.4504353 115.156114,107.00818 114.3775,106.852457 C113.598886,106.696735 110.33909,97.0938309 111.688687,89.3803634 C112.726839,83.2967941 118.083702,77.31704 120.087335,74.2960184 C120.869586,72.9766635 121.563218,71.6067402 122.163638,70.195319 C122.163638,70.195319 122.454321,73.3097743 122.786529,74.908528 C123.482091,78.1683245 125.900985,85.6533986 124.49948,92.1314655 Z" id="Shape"></path>
                <rect id="Rectangle-path" transform="translate(114.867461, 107.885070) rotate(-0.540000) translate(-114.867461, -107.885070) " x="113.948696" y="104.999008" width="1.8375286" height="5.77212374" rx="0.788995331"></rect>
                <path d="M155.851663,88.1553443 C153.090179,95.110961 144.141311,101.277582 143.393842,101.007663 C142.646372,100.737744 141.016474,90.7091976 143.622235,83.3590832 C145.698539,77.5350519 151.927449,72.5103974 154.39825,69.8631104 C155.404662,68.6842939 156.330704,67.4391662 157.170115,66.1361457 C157.170115,66.1361457 156.931341,69.2506009 157.004011,70.8908807 C157.170115,74.2129663 158.301701,81.9887229 155.851663,88.1553443 Z" id="Shape"></path>
                <rect id="Rectangle-path" transform="translate(143.755264, 102.102635) rotate(8.960000) translate(-143.755264, -102.102635) " x="142.8365" y="99.2165732" width="1.8375286" height="5.77212374" rx="0.788995331"></rect>
                <path d="M140.289768,90.8545389 C139.251616,98.2669424 131.984554,106.426815 131.278611,106.281474 C130.572668,106.136133 126.523876,96.8446745 127.30249,89.0585363 C127.914999,82.912678 132.794312,76.6007153 134.569552,73.4032079 C135.250938,72.0319397 135.840521,70.6169409 136.33441,69.1675488 C136.33441,69.1675488 136.853486,72.282004 137.310272,73.8288501 C138.244609,77.0055945 141.213723,84.2830383 140.289768,90.8545389 L140.289768,90.8545389 Z" id="Shape"></path>
                <rect id="Rectangle-path" transform="translate(131.851934, 107.268653) rotate(-4.770000) translate(-131.851934, -107.268653) " x="130.933169" y="104.382591" width="1.8375286" height="5.77212374" rx="0.788995331"></rect>
                <circle id="Oval" transform="translate(92.402877, 28.774079) rotate(-87.010000) translate(-92.402877, -28.774079) " cx="92.4028768" cy="28.7740793" r="4.59901226"></circle>
                <circle id="Oval" transform="translate(90.834914, 48.548615) rotate(-60.170000) translate(-90.834914, -48.548615) " cx="90.8349142" cy="48.5486147" r="4.59901226"></circle>
                <circle id="Oval" transform="translate(104.865601, 40.084865) rotate(-60.170000) translate(-104.865601, -40.084865) " cx="104.865601" cy="40.0848651" r="4.59901226"></circle>
                <polyline id="Shape" points="102.687912 37.2859085 80.388412 33.7769556 92.4413538 30.8597492 90.7491665 28.0775025 70.7439822 32.6453702 70.7439822 33.5070361 87.5412775 49.9928859 89.7629223 48.0826867 78.1979118 36.5488208 102.033876 40.1512073 102.687912 37.2859085"></polyline>
                <polyline id="Shape" points="86.6692301 46.3904994 90.9464153 52.6505544 93.3134013 51.4566799 89.2127019 44.999376 86.6692301 46.3904994"></polyline>
                <g id="Group-3" transform="translate(0.000000, 160.380000)">
                    <g id="Group-2" transform="translate(0.544500, 0.231274)">
                        <circle id="Oval" transform="translate(24.069169, 7.697224) rotate(-48.160000) translate(-24.069169, -7.697224) " cx="24.069169" cy="7.69722381" r="4.71320895"></circle>
                        <circle id="Oval" transform="translate(11.774793, 24.292240) rotate(-74.995080) translate(-11.774793, -24.292240) " cx="11.7747932" cy="24.29224" r="4.7331977"></circle>
                        <circle id="Oval" transform="translate(6.858779, 6.933548) rotate(-75.000000) translate(-6.858779, -6.933548) " cx="6.8587793" cy="6.93354789" r="4.71320895"></circle>
                        <path d="M25.8184949,8.3922192 L22.5794614,9.19159605 L29.1821065,20.0195188 L10.495375,6.52354605 L8.90700283,9.06701784 L28.8083719,23.6530499 L12.0837472,23.6530499 L12.3225221,26.642927 L34.3728653,26.7778867 C34.9462207,26.7778867 35.411017,26.3130903 35.411017,25.739735 L35.411017,23.9125879 C35.4116408,23.7182197 35.3576862,23.5275802 35.2552943,23.3623675 L25.8184949,8.3922192 Z" id="Shape"></path>
                    </g>
                    <g id="Group" transform="translate(159.538500, 0.775774)">
                        <circle id="Oval" transform="translate(12.039908, 7.528068) rotate(-41.840000) translate(-12.039908, -7.528068) " cx="12.0399079" cy="7.52806837" r="4.71320895"></circle>
                        <circle id="Oval" transform="translate(25.188425, 22.988266) rotate(-15.000000) translate(-25.188425, -22.988266) " cx="25.1884251" cy="22.9882659" r="4.71320895"></circle>
                        <circle id="Oval" transform="translate(29.268771, 6.727470) rotate(-15.000000) translate(-29.268771, -6.727470) " cx="29.2687706" cy="6.72747023" r="4.71320895"></circle>
                        <path d="M27.2500849,8.82824294 L25.6617128,6.28477115 L6.97498124,19.7807439 L13.629534,8.96320266 L10.3905005,8.16382582 L0.943319564,23.113211 C0.84092765,23.2784238 0.78697307,23.4690633 0.787596802,23.6634315 L0.787596802,25.4905785 C0.787596802,26.0639339 1.25239317,26.5287303 1.82574855,26.5287303 L23.8760917,26.3937706 L24.1148666,23.4038935 L7.39024194,23.4038935 L27.2500849,8.82824294 Z" id="Shape"></path>
                    </g>
                    <path d="M68.5005365,2.54301104 L69.1857166,4.79580034 L61.3165264,4.79580034 L61.3165264,14.0664955 L69.8293707,14.0664955 L69.8293707,16.3919554 L61.3165264,16.3919554 L61.3165264,25.7353212 L69.1026645,25.7353212 L69.1026645,28.019255 L58.721147,28.019255 L58.721147,16.4023369 L56.9251445,16.4023369 L56.9251445,14.076877 L58.6380948,14.076877 L58.6380948,2.55339256 L68.5005365,2.54301104 Z M76.9614732,2.54301104 L76.9614732,25.7457027 L83.7925118,25.7457027 L83.7925118,28.019255 L74.3245678,28.019255 L74.3245678,2.54301104 L76.9614732,2.54301104 Z M90.8519437,2.54301104 C92.2459074,2.52197392 93.6380976,2.65075151 95.0045507,2.92712719 C100.47805,4.30371974 104.38945,9.12307838 104.61033,14.7627069 C104.831209,20.4023354 101.308718,25.5128469 95.9596503,27.3133118 C94.0267148,27.8610527 92.0178876,28.0924359 90.0110408,27.998492 L86.6578106,27.998492 L86.6578106,2.54301104 L90.8519437,2.54301104 Z M90.6650764,25.7457027 C92.338229,25.787952 94.0052595,25.5276983 95.5859157,24.9774704 C99.5597546,23.4047951 102.13273,19.5225433 102.032838,15.2499885 C102.103513,11.3813646 100.035817,7.78884265 96.655212,5.90662271 C95.1604356,5.12867167 93.4914157,4.7462624 91.8070433,4.79580034 L89.2635715,4.79580034 L89.2635715,25.7457027 L90.6650764,25.7457027 Z M119.058527,2.54301104 L119.743707,4.79580034 L111.884898,4.79580034 L111.884898,14.0664955 L120.408124,14.0664955 L120.408124,16.3919554 L111.89528,16.3919554 L111.89528,25.7353212 L119.681418,25.7353212 L119.681418,28.019255 L109.2999,28.019255 L109.2999,16.4023369 L107.545424,16.4023369 L107.545424,14.076877 L109.258374,14.076877 L109.258374,2.55339256 L119.058527,2.54301104 Z M128.100829,2.54301104 C130.997272,2.54301104 132.907471,2.84407505 134.329739,3.58116279 C136.833128,4.9082249 138.369324,7.53825591 138.295479,10.3706752 C138.316705,14.2089836 135.494371,17.4706433 131.692834,18.0010906 L139.094856,26.8876696 L137.153512,28.4137527 L127.4987,16.9940834 L127.4987,28.019255 L124.944847,28.019255 L124.944847,2.54301104 L128.100829,2.54301104 Z M127.457174,16.3192848 C128.951812,16.4347888 130.454567,16.2548815 131.879701,15.7898274 C134.21737,15.0176303 135.759629,12.7889811 135.658573,10.3291492 C135.727064,8.28289287 134.611919,6.37987313 132.793274,5.43945443 C131.631973,4.96470722 130.382172,4.7451955 129.128599,4.79580034 L127.446793,4.79580034 L127.457174,16.3192848 Z" id="Shape"></path>
                </g>
            </g>
        </g>
    </g>
</svg>