<?xml version="1.0" encoding="UTF-8"?>
<svg width="592px" height="75px" viewBox="0 0 592 75" version="1.1" xmlns="http://www.w3.org/2000/svg" xmlns:xlink="http://www.w3.org/1999/xlink">
    <!-- Generator: Sketch 43.2 (39069) - http://www.bohemiancoding.com/sketch -->
    <title>BOTANTIC ROMANTIC</title>
    <desc>Created with Sketch.</desc>
    <defs></defs>
    <g id="Page-1" stroke="none" stroke-width="1" fill="none" fill-rule="evenodd">
        <path d="M0.814323486,72.9149589 L0.814323486,1.49095892 L24.8143235,1.49095892 C32.9743235,1.49095892 37.3903235,5.23495892 37.3903235,14.9309589 L37.3903235,22.8029589 C37.3903235,29.6189589 33.0703235,32.8829589 30.7663235,33.6509589 C34.0303235,34.6109589 38.7343235,37.3949589 38.7343235,45.8429589 L38.7343235,56.4029589 C38.7343235,67.5389589 34.3183235,72.9149589 25.7743235,72.9149589 L0.814323486,72.9149589 Z M19.2463235,41.4269589 L16.6543235,41.4269589 L16.6543235,60.2429589 L19.5343235,60.2429589 C21.4543235,60.2429589 22.2223235,59.4749589 22.2223235,56.4029589 L22.2223235,45.0749589 C22.2223235,42.5789589 21.5503235,41.4269589 19.2463235,41.4269589 Z M18.9583235,13.6829589 L16.6543235,13.6829589 L16.6543235,29.0429589 L18.8623235,29.0429589 C20.6863235,29.0429589 21.7423235,28.1789589 21.7423235,25.4909589 L21.7423235,17.0429589 C21.7423235,14.8349589 21.1663235,13.6829589 18.9583235,13.6829589 Z M79.6303235,20.6909589 L79.6303235,54.5789589 C79.6303235,66.8669589 72.7183235,73.9709589 61.9663235,73.9709589 L58.8943235,73.9709589 C47.3743235,73.9709589 41.0383235,66.9629589 41.0383235,54.5789589 L41.0383235,20.6909589 C41.0383235,8.40295892 46.2223235,0.530958924 58.7983235,0.530958924 L61.8703235,0.530958924 C74.5423235,0.530958924 79.6303235,8.49895892 79.6303235,20.6909589 Z M63.2143235,55.6349589 L63.2143235,19.0589589 C63.2143235,16.3709589 62.3503235,15.0269589 60.3343235,15.0269589 C58.2223235,15.0269589 57.4543235,16.3709589 57.4543235,19.0589589 L57.4543235,55.6349589 C57.4543235,57.7469589 58.2223235,59.1869589 60.4303235,59.1869589 C62.4463235,59.1869589 63.2143235,57.7469589 63.2143235,55.6349589 Z M81.0703235,1.49095892 L114.670323,1.49095892 L114.670323,16.2749589 L105.742323,16.2749589 L105.742323,72.9149589 L89.9983235,72.9149589 L89.9983235,16.2749589 L81.0703235,16.2749589 L81.0703235,1.49095892 Z M133.678323,72.9149589 L132.526323,62.4509589 L125.230323,62.4509589 L124.174323,72.9149589 L110.446323,72.9149589 L119.566323,1.49095892 L139.054323,1.49095892 L149.038323,72.9149589 L133.678323,72.9149589 Z M128.878323,26.6429589 L126.670323,48.3389589 L131.086323,48.3389589 L128.878323,26.6429589 Z M150.094323,1.49095892 L150.094323,72.9149589 L163.822323,72.9149589 L163.822323,35.6669589 L173.230323,72.9149589 L187.150323,72.9149589 L187.150323,1.49095892 L173.614323,1.49095892 L173.614323,36.0509589 L165.454323,1.49095892 L150.094323,1.49095892 Z M189.454323,1.49095892 L189.454323,16.2749589 L198.382323,16.2749589 L198.382323,72.9149589 L214.126323,72.9149589 L214.126323,16.2749589 L223.054323,16.2749589 L223.054323,1.49095892 L189.454323,1.49095892 Z M241.102323,1.49095892 L225.262323,1.49095892 L225.262323,72.9149589 L241.102323,72.9149589 L241.102323,1.49095892 Z M265.582323,56.0189589 C265.582323,58.2269589 265.006323,59.7629589 263.086323,59.7629589 C261.070323,59.7629589 260.398323,58.4189589 260.398323,56.0189589 L260.398323,17.9069589 C260.398323,15.4109589 260.974323,14.3549589 262.990323,14.3549589 C265.006323,14.3549589 265.582323,15.6029589 265.582323,17.9069589 L265.582323,28.9469589 L281.230323,28.9469589 L281.230323,17.2349589 C281.230323,7.82695892 277.006323,0.530958924 264.334323,0.530958924 L261.454323,0.530958924 C248.590323,0.530958924 243.982323,8.59495892 243.982323,18.8669589 L243.982323,55.1549589 C243.982323,66.0989589 248.206323,74.0669589 261.550323,74.0669589 L264.334323,74.0669589 C276.814323,74.0669589 281.230323,65.5229589 281.230323,56.4989589 L281.230323,41.7149589 L265.582323,41.7149589 L265.582323,56.0189589 Z M310.222323,13.7789589 L310.222323,30.1949589 L312.238323,30.1949589 C314.254323,30.1949589 315.118323,29.2349589 315.118323,26.7389589 L315.118323,17.1389589 C315.118323,14.6429589 314.638323,13.7789589 312.526323,13.7789589 L310.222323,13.7789589 Z M310.222323,43.6349589 L310.222323,72.9149589 L294.382323,72.9149589 L294.382323,1.49095892 L319.246323,1.49095892 C326.254323,1.49095892 331.054323,5.61895892 331.054323,14.0669589 L331.054323,23.4749589 C331.054323,30.0989589 327.598323,33.0749589 324.814323,34.3229589 C327.502323,35.3789589 331.054323,38.2589589 331.054323,43.6349589 L331.054323,67.2509589 C331.054323,69.9389589 331.534323,71.4749589 332.014323,72.4349589 L332.014323,72.9149589 L316.366323,72.9149589 C315.694323,72.0509589 315.118323,70.4189589 315.118323,67.8269589 L315.118323,47.0909589 C315.118323,44.6909589 314.542323,43.6349589 312.430323,43.6349589 L310.222323,43.6349589 Z M372.334323,20.6909589 L372.334323,54.5789589 C372.334323,66.8669589 365.422323,73.9709589 354.670323,73.9709589 L351.598323,73.9709589 C340.078323,73.9709589 333.742323,66.9629589 333.742323,54.5789589 L333.742323,20.6909589 C333.742323,8.40295892 338.926323,0.530958924 351.502323,0.530958924 L354.574323,0.530958924 C367.246323,0.530958924 372.334323,8.49895892 372.334323,20.6909589 Z M355.918323,55.6349589 L355.918323,19.0589589 C355.918323,16.3709589 355.054323,15.0269589 353.038323,15.0269589 C350.926323,15.0269589 350.158323,16.3709589 350.158323,19.0589589 L350.158323,55.6349589 C350.158323,57.7469589 350.926323,59.1869589 353.134323,59.1869589 C355.150323,59.1869589 355.918323,57.7469589 355.918323,55.6349589 Z M375.118323,72.9149589 L388.558323,72.9149589 L388.558323,33.9389589 L394.606323,72.9149589 L400.270323,72.9149589 L406.318323,33.9389589 L406.318323,72.9149589 L419.950323,72.9149589 L419.950323,1.49095892 L402.094323,1.49095892 L397.966323,34.8989589 L394.030323,1.49095892 L375.118323,1.49095892 L375.118323,72.9149589 Z M444.430323,72.9149589 L443.278323,62.4509589 L435.982323,62.4509589 L434.926323,72.9149589 L421.198323,72.9149589 L430.318323,1.49095892 L449.806323,1.49095892 L459.790323,72.9149589 L444.430323,72.9149589 Z M439.630323,26.6429589 L437.422323,48.3389589 L441.838323,48.3389589 L439.630323,26.6429589 Z M460.846323,1.49095892 L460.846323,72.9149589 L474.574323,72.9149589 L474.574323,35.6669589 L483.982323,72.9149589 L497.902323,72.9149589 L497.902323,1.49095892 L484.366323,1.49095892 L484.366323,36.0509589 L476.206323,1.49095892 L460.846323,1.49095892 Z M500.206323,1.49095892 L500.206323,16.2749589 L509.134323,16.2749589 L509.134323,72.9149589 L524.878323,72.9149589 L524.878323,16.2749589 L533.806323,16.2749589 L533.806323,1.49095892 L500.206323,1.49095892 Z M551.854323,1.49095892 L536.014323,1.49095892 L536.014323,72.9149589 L551.854323,72.9149589 L551.854323,1.49095892 Z M576.334323,56.0189589 C576.334323,58.2269589 575.758323,59.7629589 573.838323,59.7629589 C571.822323,59.7629589 571.150323,58.4189589 571.150323,56.0189589 L571.150323,17.9069589 C571.150323,15.4109589 571.726323,14.3549589 573.742323,14.3549589 C575.758323,14.3549589 576.334323,15.6029589 576.334323,17.9069589 L576.334323,28.9469589 L591.982323,28.9469589 L591.982323,17.2349589 C591.982323,7.82695892 587.758323,0.530958924 575.086323,0.530958924 L572.206323,0.530958924 C559.342323,0.530958924 554.734323,8.59495892 554.734323,18.8669589 L554.734323,55.1549589 C554.734323,66.0989589 558.958323,74.0669589 572.302323,74.0669589 L575.086323,74.0669589 C587.566323,74.0669589 591.982323,65.5229589 591.982323,56.4989589 L591.982323,41.7149589 L576.334323,41.7149589 L576.334323,56.0189589 Z" id="BOTANTIC-ROMANTIC" fill="#354766"></path>
    </g>
</svg>