<svg xmlns="http://www.w3.org/2000/svg" width="251.4" height="190.52" viewBox="0 0 251.4 190.52"><title>staghorn-sumac</title><path d="M94.92,161.1c-2.2,10.2-4.29,23.3-4.29,23.3S88.29,171,86.37,160.78c-2.82-14.92,3.53-18.89,5.76-18.95C94.68,141.76,97.31,150,94.92,161.1Z" fill="#344567"/><path d="M87.9,169.05l.15,5.17a.68.68,0,0,0,.51.64l2.19.56Z" fill="#344567"/><path d="M86.74,163.12l.15,5.17a.68.68,0,0,0,.51.64l2.19.56Z" fill="#344567"/><path d="M85.93,157.1l-.55,5.62a.68.68,0,0,0,.57.74l2,.32Z" fill="#344567"/><path d="M85.89,151.21l-1.47,5.36a.68.68,0,0,0,.42.82l2,.74Z" fill="#344567"/><path d="M93.48,166.33l-.15,5.17a.68.68,0,0,1-.51.64l-2.19.56Z" fill="#344567"/><path d="M94.63,160.39l-.15,5.17a.68.68,0,0,1-.51.64l-2.19.56Z" fill="#344567"/><path d="M95.82,154.37,96,160a.68.68,0,0,1-.57.74l-2.06.31Z" fill="#344567"/><path d="M95.35,148.65,96.78,154a.68.68,0,0,1-.42.82l-1.2.62Z" fill="#344567"/><path d="M87.11,146.49,85,151.63a.68.68,0,0,0,.32.86l1.87,1Z" fill="#344567"/><path d="M93.87,143.06l2.27,4.45a.68.68,0,0,1,0,.64l-1,1.77Z" fill="#344567"/><path d="M86.11,124.68l.15-5.17a.68.68,0,0,1,.51-.64l2.19-.56Z" fill="#344567"/><path d="M86,131.44l-.55-5.62a.68.68,0,0,1,.57-.74l2-.32Z" fill="#344567"/><path d="M85.66,135.61l-1.47-5.36a.68.68,0,0,1,.42-.82l2-.74Z" fill="#344567"/><path d="M92.47,124.87l-.15-5.17a.68.68,0,0,0-.51-.64l-2.19-.56Z" fill="#344567"/><path d="M92.88,130.93l.2-5.62a.68.68,0,0,0-.57-.74l-2.06-.31Z" fill="#344567"/><path d="M92.84,136.37l1.43-5.31a.68.68,0,0,0-.42-.82l-1.2-.62Z" fill="#344567"/><path d="M86,140.39l-2.1-5.14a.68.68,0,0,1,.32-.86l1.87-1Z" fill="#344567"/><path d="M92.3,140.33l2.27-4.45a.68.68,0,0,0,0-.64l-1-1.77Z" fill="#344567"/><path d="M93.64,130.94c-2.08-10.23-4.29-23.3-4.29-23.3S86.79,121,85.1,131.26c-1.79,10.82,1.72,12.25,4.29,12.25C92.51,143.51,95.17,138.45,93.64,130.94Z" fill="#344567"/><path d="M204.61,133.61A108.75,108.75,0,0,0,218.12,137a108.94,108.94,0,0,0,15.55,1.25,41.33,41.33,0,0,1-10.1,1.71c-6.09.41-13.71,2.16-19.31,3.22-16.75,3.16-21.2-4-21.27-6.46C182.92,133.87,192.36,130.1,204.61,133.61Z" fill="#344567"/><path d="M213.54,141.48l5.81-.17a.76.76,0,0,0,.72-.58l.62-2.46Z" fill="#344567"/><path d="M206.88,142.78l5.81-.17a.76.76,0,0,0,.72-.58l.62-2.46Z" fill="#344567"/><path d="M200.12,143.69l6.3.62a.76.76,0,0,0,.83-.64l.36-2.28Z" fill="#344567"/><path d="M193.51,143.74l6,1.64a.76.76,0,0,0,.92-.47l.84-2.21Z" fill="#344567"/><path d="M210.48,135.46l5.81.3a.76.76,0,0,1,.72.58l.62,2.46Z" fill="#344567"/><path d="M203.82,133.92l5.81.17a.76.76,0,0,1,.72.58l.62,2.46Z" fill="#344567"/><path d="M197.06,132.6l6.31-.23a.76.76,0,0,1,.83.64l.35,2.31Z" fill="#344567"/><path d="M190.64,133.11l6-1.6a.76.76,0,0,1,.92.47l.7,1.34Z" fill="#344567"/><path d="M188.22,142.37l5.77,2.35a.76.76,0,0,0,1-.35l1.1-2.1Z" fill="#344567"/><path d="M184.37,134.78l5-2.55a.76.76,0,0,1,.72,0l2,1.1Z" fill="#344567"/><path d="M112.6,155.69c-1.43,20.65-7.28,30.18-7.28,30.18s-.72-19.31-1-30.24C103.92,135.21,106,136.88,108,137S114.05,134.82,112.6,155.69Z" fill="#344567"/><path d="M112,139.51l1.79,5.24a.68.68,0,0,1-.37.84l-1.22.68Z" fill="#344567"/><path d="M105.21,140.8,103.42,146a.68.68,0,0,0,.37.84l1.22.68Z" fill="#344567"/><path d="M112.21,145.19l1.53,5.32a.68.68,0,0,1-.41.82l-1.26.61Z" fill="#344567"/><path d="M104.93,147.25l-1.41,5.35a.68.68,0,0,0,.43.81l1.27.59Z" fill="#344567"/><path d="M104.6,154l-1,5.45a.68.68,0,0,0,.49.77l1.31.49Z" fill="#344567"/><path d="M105,160.38l-1,5.45a.68.68,0,0,0,.49.77l1.31.49Z" fill="#344567"/><path d="M112.38,151.95l1.37,5.36a.68.68,0,0,1-.43.81l-1.27.58Z" fill="#344567"/><path d="M111.47,158.35l1.37,5.36a.68.68,0,0,1-.43.81l-1.27.58Z" fill="#344567"/><path d="M129.5,154.22c-2,20.61-8.06,30-8.06,30s-.22-19.32-.18-30.25c.08-20.44,2.16-18.71,4.14-18.58S131.49,133.39,129.5,154.22Z" fill="#344567"/><path d="M129.32,138,131,143.3a.68.68,0,0,1-.39.83l-1.24.65Z" fill="#344567"/><path d="M122.5,139.13l-1.93,5.19a.68.68,0,0,0,.35.85l1.21.71Z" fill="#344567"/><path d="M129.38,143.71l1.39,5.36a.68.68,0,0,1-.43.81l-1.27.58Z" fill="#344567"/><path d="M122.05,145.57l-1.55,5.32a.68.68,0,0,0,.41.82l1.25.62Z" fill="#344567"/><path d="M121.55,152.29l-1.12,5.42a.68.68,0,0,0,.47.79l1.3.52Z" fill="#344567"/><path d="M121.8,158.7l-1.12,5.42a.68.68,0,0,0,.47.79l1.3.52Z" fill="#344567"/><path d="M129.38,150.47l1.23,5.4a.68.68,0,0,1-.46.8l-1.29.54Z" fill="#344567"/><path d="M128.3,156.85l1.23,5.4a.68.68,0,0,1-.46.8l-1.29.54Z" fill="#344567"/><path d="M129.57,114.55c-2-20.6-3.93-26.5-3.93-26.5s-4.39,15.87-4.31,26.8c.15,20.44,2.23,18.7,4.21,18.56S131.64,135.37,129.57,114.55Z" fill="#344567"/><path d="M129.45,130.75l1.64-5.29a.68.68,0,0,0-.39-.83l-1.24-.64Z" fill="#344567"/><path d="M122.63,129.66l-1.94-5.18a.68.68,0,0,1,.34-.85l1.2-.71Z" fill="#344567"/><path d="M129.49,125.06l1.37-5.36a.68.68,0,0,0-.44-.81l-1.27-.58Z" fill="#344567"/><path d="M122.16,123.22l-1.57-5.31a.68.68,0,0,1,.4-.82l1.25-.62Z" fill="#344567"/><path d="M121.63,116.51l-1.14-5.42a.68.68,0,0,1,.47-.79l1.3-.52Z" fill="#344567"/><path d="M121.86,110.09l-1.14-5.42a.68.68,0,0,1,.47-.79l1.3-.52Z" fill="#344567"/><path d="M129.47,118.3l1.21-5.4a.68.68,0,0,0-.46-.79l-1.29-.54Z" fill="#344567"/><path d="M128.37,111.93l1.21-5.4a.68.68,0,0,0-.46-.79l-1.29-.54Z" fill="#344567"/><path d="M145.5,154.22c-2,20.61-8.06,30-8.06,30s-.22-19.32-.18-30.25c.08-20.44,2.16-18.71,4.14-18.58S147.49,133.39,145.5,154.22Z" fill="#344567"/><path d="M145.31,138,147,143.3a.68.68,0,0,1-.39.83l-1.24.65Z" fill="#344567"/><path d="M138.5,139.13l-1.93,5.19a.68.68,0,0,0,.35.85l1.21.71Z" fill="#344567"/><path d="M145.38,143.71l1.39,5.36a.68.68,0,0,1-.43.81l-1.27.58Z" fill="#344567"/><path d="M138.05,145.57l-1.55,5.32a.68.68,0,0,0,.41.82l1.25.62Z" fill="#344567"/><path d="M137.54,152.29l-1.12,5.42a.68.68,0,0,0,.47.79l1.3.52Z" fill="#344567"/><path d="M137.8,158.7l-1.12,5.42a.68.68,0,0,0,.47.79l1.3.52Z" fill="#344567"/><path d="M145.38,150.47l1.23,5.4a.68.68,0,0,1-.46.8l-1.29.54Z" fill="#344567"/><path d="M144.3,156.85l1.23,5.4a.68.68,0,0,1-.46.8l-1.29.54Z" fill="#344567"/><path d="M163,154.9c-2,20.61-8.06,30-8.06,30s-.22-19.32-.18-30.25c.08-20.44,2.16-18.71,4.14-18.58S165,134.07,163,154.9Z" fill="#344567"/><path d="M162.79,138.7l1.66,5.28a.68.68,0,0,1-.39.83l-1.24.65Z" fill="#344567"/><path d="M156,139.81,154,145a.68.68,0,0,0,.35.85l1.21.71Z" fill="#344567"/><path d="M171.86,155.88c1.8,9.34,9.47,19.78,9.47,19.78s2.78-12.77,1.34-22.17c-2.1-13.68-6.19-15.53-10.59-15.53-3.3,0-3.6-.71-1.83,9.55Z" fill="#344567"/><path d="M169.8,139.19l-.62,5.5a.68.68,0,0,0,.54.74l1.34.4Z" fill="#344567"/><path d="M177.71,140l3.88,3.94a.68.68,0,0,1,0,.92l-.81,1.14Z" fill="#344567"/><path d="M181,146.09l2.46,5a.68.68,0,0,1-.26.88l-1.13.83Z" fill="#344567"/><path d="M182,151.76l2,5.17a.68.68,0,0,1-.34.85l-1.2.72Z" fill="#344567"/><path d="M182.79,157.77l1.17,5.41a.68.68,0,0,1-.46.79l-1.29.53Z" fill="#344567"/><path d="M170.4,144.45l-.62,5.5a.68.68,0,0,0,.54.74l1.34.4Z" fill="#344567"/><path d="M171.14,150.22l-.43,5.52a.68.68,0,0,0,.57.72l1.35.35Z" fill="#344567"/><path d="M172.37,157.38l.81,5.48a.68.68,0,0,0,.71.58l1.4,0Z" fill="#344567"/><path d="M171.38,118.06c1.8-9.34,9.47-19.78,9.47-19.78s2.78,12.77,1.34,22.17C180.09,134.12,176,136,171.59,136c-3.3,0-3.6.71-1.83-9.55Z" fill="#344567"/><path d="M169.31,134.74l-.62-5.5a.68.68,0,0,1,.54-.74l1.34-.4Z" fill="#344567"/><path d="M177.22,133.91l3.88-3.94a.68.68,0,0,0,0-.92l-.81-1.14Z" fill="#344567"/><path d="M180.56,127.84l2.46-5a.68.68,0,0,0-.26-.88l-1.13-.83Z" fill="#344567"/><path d="M181.56,122.17l2-5.17a.68.68,0,0,0-.34-.85l-1.2-.72Z" fill="#344567"/><path d="M182.3,116.16l1.17-5.41A.68.68,0,0,0,183,110l-1.29-.53Z" fill="#344567"/><path d="M169.91,129.49l-.62-5.5a.68.68,0,0,1,.54-.74l1.34-.4Z" fill="#344567"/><path d="M102.08,111.65a63.8,63.8,0,0,1,7.55-29.35s-1.9,17.12.41,29.21c3.57,18.67,0,24.25-2.9,24.49-3.29.28-3.28,2.13-4.35-12.43C102.78,123.57,102.08,115.83,102.08,111.65Z" fill="#344567"/><path d="M104.12,134l-2.31-5a.68.68,0,0,1,.28-.87l1.15-.8Z" fill="#344567"/><path d="M109.73,133.21l2.6-4.89a.68.68,0,0,0-.23-.89l-1.1-.86Z" fill="#344567"/><path d="M111.2,124.54l1.2-5.4a.68.68,0,0,0-.46-.79l-1.29-.54Z" fill="#344567"/><path d="M110.31,116l.75-5.48a.68.68,0,0,0-.52-.75l-1.33-.43Z" fill="#344567"/><path d="M108.78,106.75l1.29-5.38a.68.68,0,0,0-.45-.8l-1.28-.56Z" fill="#344567"/><path d="M103.22,127.33l-1.61-5.3a.68.68,0,0,1,.4-.83l1.25-.63Z" fill="#344567"/><path d="M102.53,119.14l-1.86-5.21a.68.68,0,0,1,.36-.84l1.22-.69Z" fill="#344567"/><path d="M102.3,110.55l-1.25-5.39a.68.68,0,0,1,.45-.8l1.29-.55Z" fill="#344567"/><path d="M146.88,109.55c0-16.52-7.55-27.31-7.55-27.31s1.9,15.08-.41,27.17c-3.57,18.67,0,24.25,2.9,24.49,3.29.28,3.28,2.13,4.35-12.43C146.17,121.47,146.88,113.73,146.88,109.55Z" fill="#344567"/><path d="M144.83,131.93l2.31-5a.68.68,0,0,0-.28-.87l-1.15-.8Z" fill="#344567"/><path d="M139.22,131.11l-2.6-4.89a.68.68,0,0,1,.23-.89l1.1-.86Z" fill="#344567"/><path d="M137.76,122.44l-1.2-5.4a.68.68,0,0,1,.46-.79l1.29-.54Z" fill="#344567"/><path d="M138.64,113.91l-.75-5.48a.68.68,0,0,1,.52-.75l1.33-.43Z" fill="#344567"/><path d="M140.17,104.65l-1.29-5.38a.68.68,0,0,1,.45-.8l1.28-.56Z" fill="#344567"/><path d="M145.73,125.23l1.61-5.3a.68.68,0,0,0-.4-.83l-1.25-.63Z" fill="#344567"/><path d="M146.42,117l1.86-5.21a.68.68,0,0,0-.36-.84l-1.22-.69Z" fill="#344567"/><path d="M146.65,108.45l1.25-5.39a.68.68,0,0,0-.45-.8l-1.29-.55Z" fill="#344567"/><path d="M155.83,110.51A63.8,63.8,0,0,1,166.16,82s-3.54,16.86-2.4,29.12c1.76,18.93-2.35,24.14-5.24,24.1-3.3,0-3.47,1.8-3.14-12.8C155.39,122.44,155.43,114.67,155.83,110.51Z" fill="#344567"/><path d="M155.71,133l-1.82-5.23a.68.68,0,0,1,.37-.84l1.22-.68Z" fill="#344567"/><path d="M161.37,132.71l3.06-4.61a.68.68,0,0,0-.14-.91l-1-1Z" fill="#344567"/><path d="M163.67,124.21l1.71-5.26a.68.68,0,0,0-.38-.83l-1.23-.66Z" fill="#344567"/><path d="M163.61,115.64l1.28-5.39a.68.68,0,0,0-.45-.8l-1.28-.56Z" fill="#344567"/><path d="M163,106.28l1.8-5.24a.68.68,0,0,0-.37-.84l-1.22-.68Z" fill="#344567"/><path d="M155.46,126.23l-1.1-5.43a.68.68,0,0,1,.48-.78l1.3-.51Z" fill="#344567"/><path d="M155.56,118l-1.35-5.37a.68.68,0,0,1,.44-.81l1.28-.57Z" fill="#344567"/><path d="M156.16,109.43l-.72-5.49a.68.68,0,0,1,.53-.75l1.33-.42Z" fill="#344567"/><path d="M170.65,123.71l-.43-5.52a.68.68,0,0,1,.57-.72l1.35-.35Z" fill="#344567"/><path d="M171.88,116.56l.81-5.48a.68.68,0,0,1,.71-.58l1.4,0Z" fill="#344567"/><path d="M162.85,144.39l1.39,5.36a.68.68,0,0,1-.43.81l-1.27.58Z" fill="#344567"/><path d="M155.53,146.25,154,151.57a.68.68,0,0,0,.41.82l1.25.62Z" fill="#344567"/><path d="M155,153l-1.12,5.42a.68.68,0,0,0,.47.79l1.3.52Z" fill="#344567"/><path d="M155.28,159.38l-1.12,5.42a.68.68,0,0,0,.47.79l1.3.52Z" fill="#344567"/><path d="M162.85,151.15l1.23,5.4a.68.68,0,0,1-.46.8l-1.29.54Z" fill="#344567"/><path d="M161.78,157.53l1.23,5.4a.68.68,0,0,1-.46.8l-1.29.54Z" fill="#344567"/><path d="M183.79,136.22s-42.28-3.47-53.34-3.63c-10.43-.16-23.18.8-33.65,5.06-.82.33-10,5.2-10.12,5.24C84.22,143.94,46.63,166,46.63,166l-5.26,7.76S84.41,148.7,87,147.25c1-.54,8.24-4.78,10.34-5.64,14.43-5.88,23.66-6.26,33.1-6,3.08.08,47.1,3.39,53.24,3.79a.68.68,0,0,0,.72-.68v-1.8A.68.68,0,0,0,183.79,136.22Z" fill="#344567"/><path d="M61.37,46.54c-.32-13.15-3.79-24.07-9.62-31-4.4-5.21-11.11-7.64-13.34-9.81-7-6.82-9.31-3.91-1,12.63-.55.77-3.45,5.08-3.92,8.49C33.09,29.47,42.26,52.81,44,62.78,40.31,60.22,30,50.4,26.72,46.22c-4-5.1-6.21-3.47-2.34,4.09C26.85,55.12,28,58,31.74,67.52c1.86,4.72,6.53,1.88,4.81,8.44C35.23,85,38,100.83,48,116.77c7.29,11.65,7.79,20.75,5.84,26.86-3.93,12.31-8.51,17.26-19.59,39.71-1.28,2.58-.31,10.38,3,3.19C45.77,168,45.45,169.67,59,150,80.56,118.69,75.88,66.79,61.37,46.54Z" fill="#344567"/><path d="M63.68,75.16l-2.93-7c-1.59,5.07-8.91,7-8.91,7s7.32,0,8.91,5.07Z" fill="#fff"/><polygon points="50.97 89.17 48.04 84.09 45.12 89.17 48.04 94.24 50.97 89.17" fill="#fff"/><path d="M63.85,102.65c.09-.08-3.24-5.62-3.24-5.62l-3.24,5.62c2.23,1.94,3.24,12.59,3.24,12.59S61.78,104.59,63.85,102.65Z" fill="#fff"/><path d="M91.66,18.16l-.44,2.45a12.06,12.06,0,0,0-2.4-.21c-1.93,0-2.71.94-2.71,2s.68,1.78,2.4,3c2.24,1.59,3.58,3.11,3.58,5.46,0,2.85-2.38,5-6.5,5a17.54,17.54,0,0,1-3.71-.39L82.32,33a13.43,13.43,0,0,0,2.61.21c2.17,0,3.11-1,3.11-2s-.63-1.93-2.35-3.16c-2.19-1.62-3.6-3-3.6-5.33,0-2.85,2.19-4.91,6.06-4.91A16.35,16.35,0,0,1,91.66,18.16Z" fill="#344567"/><path d="M94.45,17.95h10.38l1,2.43h-3.71v15.3h-4V20.38H94.45Z" fill="#344567"/><path d="M118.27,17.95l4.23,17.73h-4.36L117.51,32h-3.84l-.6,3.63h-4.15l4.25-17.73Zm-4.2,11.67h3.05L116,22.86l-.21-2.56h-.34l-.21,2.56Z" fill="#344567"/><path d="M132.18,17.76a26.67,26.67,0,0,1,4.31.39L136,20.61a20.14,20.14,0,0,0-2.9-.21c-3.34,0-4.07,1.78-4.07,6.42,0,4.44.5,6.37,2.77,6.37a2.9,2.9,0,0,0,1.38-.26v-7.6h3.94V35.67h-3.94V34.11a3.14,3.14,0,0,1-3.08,1.72c-3.71,0-5.14-3-5.14-9S126.83,17.76,132.18,17.76Z" fill="#344567"/><path d="M145.57,35.67h-3.94V17.95h3.94v7.39h4.28V17.95h4V35.67h-4V27.76h-4.28Z" fill="#344567"/><path d="M164.62,17.76c4.75,0,6.19,3.24,6.19,9.06s-1.7,9-6.45,9-6.21-3.21-6.21-9S159.79,17.76,164.62,17.76Zm-.13,15.43c1.88,0,2.27-2.14,2.27-6.4s-.39-6.4-2.27-6.4-2.27,2.17-2.27,6.4S162.61,33.19,164.49,33.19Z" fill="#344567"/><path d="M187,23.51c0,2.82-1.38,4.59-3.55,5.22l4.2,6.94h-4.36l-3.11-6.32h-1.33v6.32H175V17.95h6.68C184.82,17.95,187,19.93,187,23.51Zm-7-3.13h-1.18v6.55h1.44c1.8,0,2.64-.86,2.64-3.32S182.16,20.38,180.07,20.38Z" fill="#344567"/><path d="M194.66,20.64h-.37l.73,7.52v7.52h-3.78V17.95h5.51L202,33h.39l-.73-7.54V17.95h3.79V35.67H200Z" fill="#344567"/><path d="M107.76,17.95h6.82v2.43h-5.52" fill="#344567"/><path d="M113.7,47.71l-.44,2.4a11.84,11.84,0,0,0-2.35-.21c-1.89,0-2.66.92-2.66,1.94s.66,1.74,2.35,3c2.2,1.56,3.5,3,3.5,5.34,0,2.79-2.33,4.86-6.37,4.86a17.15,17.15,0,0,1-3.63-.38l.43-2.4a13.2,13.2,0,0,0,2.56.2c2.12,0,3-1,3-2s-.61-1.89-2.3-3.09c-2.15-1.58-3.53-3-3.53-5.21,0-2.79,2.15-4.81,5.93-4.81A16,16,0,0,1,113.7,47.71Z" fill="#344567"/><path d="M118.57,47.51h4V58c0,2.53.23,4.45,2,4.45s2.12-1.92,2.12-4.45V47.51h3.78V58.58c0,3.66-1.43,6.44-6.11,6.44s-5.85-2.79-5.85-6.44Z" fill="#344567"/><path d="M140.62,47.51,143,59.06l.33,3.3h.33l.33-3.3,2.38-11.56h5.55l1.76,17.36H149.6l-.51-11.68L149,49.81h-.31l-.41,3.4-2.58,11.66h-4.58l-2.58-11.66-.41-3.4h-.31l-.05,3.37-.51,11.68h-3.91l1.79-17.36Z" fill="#344567"/><path d="M166,47.51l4.14,17.36h-4.27l-.61-3.55h-3.76l-.59,3.55h-4.06L161,47.51Zm-4.12,11.43h3l-1.12-6.62-.21-2.51h-.33l-.2,2.51Z" fill="#344567"/><path d="M172.62,56.22c0-5.9,1.76-8.9,6.8-8.9a18.89,18.89,0,0,1,3.83.38l-.46,2.4a12.11,12.11,0,0,0-2.43-.21c-3.09,0-3.76,1.74-3.76,6.29s.66,6.24,4.17,6.24a5.13,5.13,0,0,0,2.48-.46c0,1.89-1.25,3-4,3C174.18,65,172.62,62.1,172.62,56.22Z" fill="#344567"/><path d="M158.21,49.88h-.84l-.93-2.38H162v2.38h.09" fill="#344567"/></svg>