<?xml version="1.0" encoding="UTF-8"?>
<svg width="250px" height="250px" viewBox="0 0 250 250" version="1.1" xmlns="http://www.w3.org/2000/svg" xmlns:xlink="http://www.w3.org/1999/xlink">
    <!-- Generator: Sketch 43.2 (39069) - http://www.bohemiancoding.com/sketch -->
    <title>Stinging-Nettle-Small Copy 2</title>
    <desc>Created with Sketch.</desc>
    <defs></defs>
    <g id="Page-2" stroke="none" stroke-width="1" fill="none" fill-rule="evenodd">
        <g id="Stinging-Nettle-Small-Copy-2">
            <g id="Group-2" transform="translate(10.000000, 16.000000)">
                <polygon id="Triangle-3-Copy-6" fill="#EBD9D1" transform="translate(106.645311, 107.892113) scale(-1, 1) translate(-106.645311, -107.892113) " points="0.117386282 2.09138783 213.173237 213.692838 0.117386282 129.776934"></polygon>
                <g id="Group-6-Copy-9" transform="translate(129.198814, 175.667694) rotate(-22.000000) translate(-129.198814, -175.667694) translate(74.179509, 143.331787)" fill-rule="nonzero" fill="#344567">
                    <path d="M13.2452201,45.8691653 L3.22560868,27.6740426 L3.22560868,42.3756198 C2.31380355,45.6642652 0.428723269,45.8691653 0.428723269,45.8691653 C0.428723269,45.8691653 2.30355854,46.2379853 3.22560868,49.3627108 L3.22560868,58.9008072 L8.34810943,58.8290922 L8.34810943,47.9181656 L18.3984559,64.361393 L18.3984559,32.8785034 L13.4091402,32.8785034 L13.2452201,45.8691653 Z" id="Shape"></path>
                    <path d="M84.0996505,49.1783008 C85.0319456,46.2277403 86.8350659,45.8691653 86.8350659,45.8691653 C86.8350659,45.8691653 85.0319456,45.6745102 84.0996505,42.5702748 L84.0996505,32.8785034 L78.8951897,32.8785034 L78.8951897,42.7956648 C77.9424046,45.6847552 76.2314894,45.8691653 76.2314894,45.8691653 C76.2314894,45.8691653 77.9424046,46.2072503 78.8951897,48.9426657 L78.8951897,58.8393372 L91.9063417,58.8393372 L91.9063417,53.6451214 L84.0996505,53.6451214 L84.0996505,49.1783008 Z" id="Shape"></path>
                    <path d="M109.374069,38.0727191 L109.374069,32.8785034 L96.3629173,32.8785034 L96.3629173,42.3756198 C95.4511122,45.6642652 93.5660319,45.8691653 93.5660319,45.8691653 C93.5660319,45.8691653 95.4408672,46.2379853 96.3629173,49.3627108 L96.3629173,58.8598272 L109.374069,58.8598272 L109.374069,53.6656114 L101.567378,53.6656114 L101.567378,48.4713956 L109.374069,48.4713956 L109.374069,43.2771799 L101.567378,43.2771799 L101.567378,38.0829641 L109.374069,38.0727191 Z" id="Shape"></path>
                    <path d="M63.7530775,32.8785034 L59.849732,32.8785034 L59.849732,38.0727191 L63.7530775,38.0727191 L63.7530775,42.5190498 C62.8207824,45.6642652 61.0074171,45.8589203 61.0074171,45.8589203 C61.0074171,45.8589203 62.8310274,46.2174953 63.7530775,49.2090358 L63.7530775,58.8495822 L68.9575383,58.8495822 L68.9575383,49.1065857 C69.8693434,46.0330853 71.7544237,45.6130402 71.7544237,45.6130402 C71.7544237,45.6130402 69.8795884,45.4183852 68.9575383,42.1194947 L68.9575383,38.0214941 L72.8608839,38.0214941 L72.8608839,32.8272784 L63.7530775,32.8272784 L63.7530775,32.8785034 Z" id="Shape"></path>
                    <path d="M46.316085,32.8785034 L42.4127394,32.8785034 L42.4127394,38.0727191 L46.316085,38.0727191 L46.316085,42.5190498 C45.3837898,45.6642652 43.5704246,45.8589203 43.5704246,45.8589203 C43.5704246,45.8589203 45.3940348,46.2174953 46.316085,49.2090358 L46.316085,58.8495822 L51.5205457,58.8495822 L51.5205457,49.1065857 C52.4323509,46.0330853 54.3174312,45.6130402 54.3174312,45.6130402 C54.3174312,45.6130402 52.4425959,45.4183852 51.5205457,42.1194947 L51.5205457,38.0214941 L55.4238913,38.0214941 L55.4238913,32.8272784 L46.316085,32.8272784 L46.316085,32.8785034 Z" id="Shape"></path>
                    <path d="M43.6933646,45.8691653 C43.6933646,45.8691653 45.5681999,46.2379853 46.49025,49.3627108 L46.49025,42.3858648 C45.5681999,45.7052452 43.6933646,45.8691653 43.6933646,45.8691653 Z" id="Shape"></path>
                    <path d="M38.1610638,38.0727191 L38.1610638,32.8785034 L25.1908919,32.8785034 L25.1908919,42.3756198 C24.2790868,45.6642652 22.3940065,45.8691653 22.3940065,45.8691653 C22.3940065,45.8691653 24.2688418,46.2379853 25.1908919,49.3627108 L25.1908919,58.8598272 L38.2020438,58.8598272 L38.2020438,53.6656114 L30.3133926,53.6656114 L30.3133926,48.4713956 L38.1200838,48.4713956 L38.1200838,43.2771799 L30.3133926,43.2771799 L30.3133926,38.0829641 L38.1610638,38.0727191 Z" id="Shape"></path>
                    <g id="Group" transform="translate(5.725389, 0.627239)">
                        <path d="M8.48286124,2.0490003 C7.19425874,1.97445902 6.05762081,2.88553844 5.84989586,4.15947061 C5.72695584,5.03029574 6.47484095,5.79867085 7.43787109,6.79243599 L9.63030141,9.05658132 C11.3207267,10.7982316 12.3144918,12.2120418 12.0686118,13.953692 C11.6178317,17.1398875 8.8824163,18.6766377 5.70646583,18.6766377 C2.53051537,18.6766377 0.512250075,16.2178374 0.788865115,14.3737371 C1.00428503,13.1562337 2.01511987,12.2380588 3.24766548,12.1403268 C3.78600748,12.1293681 4.30107643,12.3595748 4.6519869,12.7679791 C5.00289737,13.1763834 5.15292412,13.7202428 5.06103074,14.2507971 C4.90063261,15.1851716 4.25747243,15.9647597 3.37060549,16.2997974 C4.00129548,16.9374266 4.88552421,17.257254 5.77818085,17.1706225 C7.12605477,17.2093085 8.30824858,16.2773601 8.58531126,14.9577022 C8.75947628,13.769282 8.13453119,12.9906619 6.70023098,11.4744017 L4.95858073,9.63030141 C3.11448046,7.69399613 2.34610534,6.55680096 2.60223038,4.85613071 C3.02227544,2.0182653 5.67573083,0.553230081 8.54433125,0.553230081 C10.5318615,0.553230081 13.1443369,1.57773023 12.7960069,3.90334557 C12.6330862,4.9804268 11.7231656,5.78684933 10.6343116,5.81916085 C10.1458821,5.8298895 9.67842549,5.62083073 9.36081022,5.24961788 C9.04319496,4.87840504 8.90896002,4.38423681 8.99511132,3.90334557 C9.07695423,3.31830878 9.40024638,2.79435253 9.88642645,2.45880036 C9.47676809,2.17073367 8.98316245,2.02661523 8.48286124,2.0490003 L8.48286124,2.0490003 Z" id="Shape"></path>
                        <path d="M13.933202,7.59154611 L14.1790821,5.82940585 L16.5661674,5.82940585 L16.9862125,2.84811042 L20.418288,2.84811042 L19.9982429,5.82940585 L23.1844384,5.82940585 L22.9385584,7.59154611 L19.7421179,7.59154611 L18.5741877,15.9207323 C18.5464557,16.105404 18.6027613,16.2928009 18.7276853,16.4316054 C18.8526093,16.5704098 19.0330603,16.6460758 19.2196228,16.6378824 C19.6270399,16.6202259 19.9676407,16.3222002 20.0392229,15.9207323 L20.213388,14.8040272 L21.2378881,14.8040272 L21.0637231,15.9207323 C20.7823729,17.5964606 19.3605302,18.8427144 17.6623826,18.9020278 C16.9012129,18.9197362 16.1722207,18.595159 15.6760706,18.0176402 C15.1799205,17.4401214 14.9689135,16.6705397 15.1011322,15.9207323 L16.2690624,7.59154611 L13.933202,7.59154611 Z" id="Shape"></path>
                        <path d="M26.7804339,18.8917828 C26.0180395,18.9133002 25.2866072,18.5898058 24.7895954,18.011284 C24.2925835,17.4327622 24.0830147,16.6609314 24.2191835,15.9104873 L25.6329937,5.81916085 L29.0650693,5.81916085 L27.661504,15.9104873 C27.6337721,16.095159 27.6900776,16.2825559 27.8150016,16.4213604 C27.9399256,16.5601648 28.1203767,16.6358308 28.3069391,16.6276374 C28.7143563,16.6099809 29.0549571,16.3119552 29.1265393,15.9104873 L29.3007043,14.7937822 L30.3252044,14.7937822 L30.1510394,15.9104873 C29.8721108,17.5753048 28.4668538,18.8182525 26.7804339,18.8917828 L26.7804339,18.8917828 Z M29.5158493,2.49978037 C29.3543147,3.46745278 28.5295307,4.18484305 27.548809,4.21069562 C27.1124255,4.22060771 26.6946515,4.03405308 26.4107472,3.70250043 C26.1268428,3.37094777 26.0068134,2.9294383 26.0837738,2.49978037 C26.2453084,1.53210795 27.0700924,0.814717677 28.0508141,0.788865115 C28.4958877,0.776308418 28.9222041,0.968258942 29.2078356,1.3098183 C29.4934671,1.65137765 29.6069579,2.10493084 29.5158493,2.54076037 L29.5158493,2.49978037 Z" id="Shape"></path>
                        <path d="M38.6646357,7.71448613 C39.4330108,6.68998598 40.5804509,5.27617577 42.4143062,5.27617577 C43.2675479,5.25086929 44.0868569,5.61098097 44.6451599,6.25670508 C45.2034629,6.90242919 45.441446,7.76516422 45.2931516,8.60580126 L44.2686515,15.9104873 C44.2409195,16.095159 44.297225,16.2825559 44.422149,16.4213604 C44.547073,16.5601648 44.7275241,16.6358308 44.9140866,16.6276374 C45.3215037,16.6099809 45.6621045,16.3119552 45.7336867,15.9104873 L45.9078517,14.7937822 L46.9323519,14.7937822 L46.7581868,15.9104873 C46.4768367,17.5862156 45.0549939,18.8324693 43.3568463,18.8917828 C42.5956767,18.9094912 41.8666845,18.5849139 41.3705344,18.0073952 C40.8743842,17.4298764 40.6633773,16.6602947 40.795596,15.9104873 L41.8200961,8.73898628 C41.8591728,8.4805207 41.7828186,8.21793007 41.6112428,8.02071651 C41.439667,7.82350295 41.1901673,7.71154887 40.928781,7.71448613 C40.3550609,7.71448613 39.8120758,8.1857562 38.7670857,9.5790764 L37.8962605,10.7470066 L36.8717604,18.4307577 L33.4396849,18.4307577 L34.8330051,8.60580126 C34.8607371,8.42112959 34.8044316,8.23373267 34.6795075,8.09492821 C34.5545835,7.95612375 34.3741325,7.88045782 34.18757,7.88865115 C33.7801529,7.90630769 33.4395521,8.2043334 33.3679699,8.60580126 L33.1938049,9.72250642 L32.1693047,9.72250642 L32.3434697,8.60580126 C32.6248199,6.93007296 34.0466627,5.68381924 35.7448102,5.62450582 C36.4429241,5.60979202 37.1160904,5.88420045 37.6049673,6.38277729 C38.0938442,6.88135412 38.3549756,7.55978109 38.3265506,8.25747121 L38.6646357,7.71448613 Z" id="Shape"></path>
                        <path d="M49.3501722,15.3675022 C49.458716,14.6924802 49.8967887,14.1160689 50.5181024,13.830752 C49.3715057,13.0581727 48.7730872,11.6937785 48.9813522,10.3269615 C49.5690158,7.753285 51.8845865,5.94705429 54.523898,6.00357088 L58.0994035,6.00357088 C58.5068206,5.98591434 58.8474214,5.68788863 58.9190036,5.28642077 L59.0419436,4.26192062 L60.0664438,4.26192062 L59.7898287,6.31092092 C59.6547065,7.12763495 59.2109034,7.86119377 58.5501836,8.35992122 C58.7889887,8.95772888 58.8667079,9.60774456 58.7755736,10.2450015 C58.539694,11.6637416 57.6832595,12.9033179 56.4397133,13.625852 C57.9722637,14.4747148 58.7956957,16.2039219 58.4887136,17.9287526 C57.9853696,21.01003 55.370138,23.3031888 52.2495076,23.3995834 C49.2374772,23.3995834 47.649502,21.5862182 47.4241119,20.387553 L49.0120872,19.5372179 C49.5875297,20.8390819 50.9248263,21.6332002 52.3433121,21.5153781 C53.7617979,21.397556 54.9497501,20.3936857 55.3025181,19.0147228 C55.4212067,18.3179678 55.2077116,17.6057577 54.7253116,17.0891877 C54.2429115,16.5726176 53.5469543,16.3109558 52.8437177,16.3817574 C51.8704426,16.3817574 51.3479475,17.0067025 50.6820224,17.0067025 C50.272537,17.0059927 49.8850815,16.8211634 49.6268627,16.5033555 C49.3686438,16.1855477 49.2670429,15.7684615 49.3501722,15.3675022 Z M52.2495076,10.2450015 C52.0993538,10.8837363 52.2417776,11.556159 52.6379967,12.0791683 C53.0342158,12.6021775 53.6429749,12.921316 54.2985079,12.9496819 C55.7593882,12.8326996 56.9344478,11.7005254 57.1056384,10.2450015 C57.2597103,9.60586863 57.1188326,8.9313287 56.7218317,8.40728744 C56.3248307,7.88324618 55.7136151,7.56502289 55.0566381,7.5403211 C53.5850323,7.63323048 52.3970405,8.77786495 52.2495076,10.2450015 L52.2495076,10.2450015 Z" id="Shape"></path>
                        <path d="M64.2668944,18.8917828 C63.5045,18.9133002 62.7730677,18.5898058 62.2760558,18.011284 C61.779044,17.4327622 61.5694752,16.6609314 61.705644,15.9104873 L63.1194542,5.81916085 L66.5925097,5.81916085 L65.1786995,15.9104873 C65.1509676,16.095159 65.2072731,16.2825559 65.3321971,16.4213604 C65.4571211,16.5601648 65.6375722,16.6358308 65.8241346,16.6276374 C66.2315517,16.6099809 66.5721525,16.3119552 66.6437347,15.9104873 L66.8178998,14.7937822 L67.8423999,14.7937822 L67.6682349,15.9104873 C67.3868847,17.5862156 65.965042,18.8324693 64.2668944,18.8917828 L64.2668944,18.8917828 Z M67.0023098,2.49978037 C66.8407752,3.46745278 66.0159912,4.18484305 65.0352695,4.21069562 C64.598886,4.22060771 64.181112,4.03405308 63.8972077,3.70250043 C63.6133033,3.37094777 63.4932738,2.9294383 63.5702343,2.49978037 C63.7317689,1.53210795 64.5565529,0.814717677 65.5372746,0.788865115 C65.9823482,0.776308418 66.4086645,0.968258942 66.694296,1.3098183 C66.9799276,1.65137765 67.0934184,2.10493084 67.0023098,2.54076037 L67.0023098,2.49978037 Z" id="Shape"></path>
                        <path d="M76.1408511,7.71448613 C76.9092263,6.68998598 78.0566664,5.27617577 79.8905217,5.27617577 C80.7437634,5.25086929 81.5630724,5.61098097 82.1213754,6.25670508 C82.6796784,6.90242919 82.9176615,7.76516422 82.7693671,8.60580126 L81.744867,15.9104873 C81.717135,16.095159 81.7734405,16.2825559 81.8983645,16.4213604 C82.0232885,16.5601648 82.2037396,16.6358308 82.3903021,16.6276374 C82.7977192,16.6099809 83.13832,16.3119552 83.2099022,15.9104873 L83.3840672,14.7937822 L84.4085673,14.7937822 L84.2344023,15.9104873 C83.9530521,17.5862156 82.5312094,18.8324693 80.8330618,18.8917828 C80.0718921,18.9094912 79.3429,18.5849139 78.8467498,18.0073952 C78.3505997,17.4298764 78.1395928,16.6602947 78.2718114,15.9104873 L79.2963116,8.73898628 C79.3353883,8.4805207 79.2590341,8.21793007 79.0874583,8.02071651 C78.9158825,7.82350295 78.6663828,7.71154887 78.4049965,7.71448613 C77.8312764,7.71448613 77.2882913,8.1857562 76.2433012,9.5790764 L75.372476,10.7470066 L74.3479759,18.4307577 L70.8954104,18.4307577 L72.2887306,8.58531126 C72.3164625,8.40063959 72.260157,8.21324267 72.135233,8.07443821 C72.010309,7.93563375 71.829858,7.85996782 71.6432955,7.86816115 C71.2358784,7.88581769 70.8952776,8.18384339 70.8236954,8.58531126 L70.6495303,9.70201642 L69.6250302,9.70201642 L69.7991952,8.58531126 C70.0805454,6.90958296 71.5023881,5.66332923 73.2005357,5.60401582 C73.8986496,5.58930202 74.5718158,5.86371045 75.0606927,6.36228728 C75.5495696,6.86086412 75.8107011,7.53929109 75.7822761,8.2369812 L76.1408511,7.71448613 Z" id="Shape"></path>
                        <path d="M86.8366327,15.3675022 C86.9451765,14.6924802 87.3832491,14.1160689 88.0045629,13.830752 C86.8579662,13.0581727 86.2595476,11.6937785 86.4678126,10.3269615 C87.0554763,7.753285 89.371047,5.94705429 92.0103585,6.00357088 L95.585864,6.00357088 C95.9932811,5.98591434 96.3338819,5.68788863 96.4054641,5.28642077 L96.5284041,4.26192062 L97.5529043,4.26192062 L97.2762892,6.31092092 C97.141167,7.12763495 96.6973639,7.86119377 96.036644,8.35992122 C96.2888748,8.9541423 96.3807249,9.60415825 96.3030141,10.2450015 C96.0671345,11.6637416 95.2107,12.9033179 93.9671537,13.625852 C95.4997042,14.4747148 96.3231362,16.2039219 96.016154,17.9287526 C95.5128101,21.01003 92.8975784,23.3031888 89.7769481,23.3995834 C86.7649177,23.3995834 85.1769425,21.5862182 84.9515524,20.387553 L86.5395277,19.5372179 C87.1149702,20.8390819 88.4522668,21.6332002 89.8707526,21.5153781 C91.2892384,21.397556 92.4771906,20.3936857 92.8299586,19.0147228 C92.9486472,18.3179678 92.7351521,17.6057577 92.252752,17.0891877 C91.770352,16.5726176 91.0743947,16.3109558 90.3711582,16.3817574 C89.3978831,16.3817574 88.875388,17.0067025 88.2094629,17.0067025 C87.792843,17.0185499 87.3937139,16.8390697 87.1261076,16.5195398 C86.8585013,16.2000099 86.7518531,15.7755769 86.8366327,15.3675022 Z M89.7462131,10.3167165 C89.5960593,10.9554513 89.7384831,11.627874 90.1347022,12.1508833 C90.5309213,12.6738925 91.1396803,12.993031 91.7952134,13.0213969 C93.2560937,12.9044147 94.4311533,11.7722404 94.6023438,10.3167165 C94.7564158,9.67758364 94.6155381,9.00304371 94.2185372,8.47900245 C93.8215362,7.95496119 93.2103206,7.6367379 92.5533435,7.61203611 C91.1018527,7.69472952 89.9165813,8.8024195 89.7359681,10.2450015 L89.7462131,10.3167165 Z" id="Shape"></path>
                    </g>
                </g>
                <path d="M90.4515334,68.8787046 C94.611004,65.8052041 95.6662392,61.9121036 93.8528739,58.4083131 C93.4225839,57.0969529 92.8283738,55.2835876 92.4800437,54.3922725 C92.1021151,53.4312889 91.6464082,52.5027433 91.1174585,51.6158771 L89.6216883,53.8595324 C88.6791482,52.9169923 86.8965179,51.154852 86.0564278,50.3967219 C85.2851313,49.7125874 84.4593853,49.0924214 83.5873824,48.5423766 L83.3517474,50.847502 C81.6715671,50.0688818 79.0590918,48.8702167 77.7989566,48.3579666 C76.5224257,47.8519478 75.2066895,47.4510594 73.864876,47.1593014 L74.4078611,49.7615318 C73.0452759,49.3722217 69.0497253,48.2350266 67.369545,47.8457165 C66.0212844,47.5459631 64.6506726,47.357504 63.2715444,47.2822414 L64.5316796,50.4069669 L63.8350195,50.5094169 C62.1343493,50.0893718 58.8149688,49.2800167 57.3089536,48.9829117 C55.9569813,48.7279129 54.5864052,48.5840024 53.210953,48.5526216 L54.9218682,52.4149872 L55.4136283,52.3330272 L54.6145182,52.5481722 C53.7949181,52.4662122 48.9080523,51.9437171 46.9922371,51.8412671 C45.624608,51.7777792 44.2540802,51.8257477 42.8942365,51.9846971 L45.1174018,55.5499576 L44.8407868,55.6524077 C43.0581565,55.5602026 39.718286,55.4065276 38.2634958,55.3962826 C36.8900089,55.4039861 35.5194482,55.5239102 34.1654952,55.7548577 L36.2144955,58.7054181 C34.6162753,58.7054181 30.7948897,58.8078681 29.1556895,58.9205631 C27.7742839,59.022818 26.403649,59.238693 25.0576889,59.5659982 L27.3628142,62.4243537 C25.6416539,62.5472937 22.1481084,62.8034187 20.6011132,62.9878287 C19.237809,63.1644901 17.8912289,63.4523088 16.5748276,63.8484089 L18.992648,66.5428443 C17.4968778,66.8092143 12.087517,67.7722444 8.10221138,68.5918446 C5.81757604,69.0836046 2.91824062,69.6163447 2.88750561,70.2207998 C2.85677061,70.8252549 5.79708604,71.47069 8.16368138,71.90098 C11.9235969,72.5771501 17.0768327,73.2738102 18.869708,73.5094453 L16.5850726,76.2346157 C17.9289944,76.5861031 19.2996556,76.8259689 20.6830732,76.9517658 C22.3120285,77.0849508 26.082189,77.2283808 27.7008992,77.2898508 L25.4674889,80.3735963 C26.8174685,80.6526796 28.1880626,80.8205774 29.5654895,80.8756014 C31.2764048,80.9268264 35.3641604,80.8756014 36.8291956,80.8756014 L34.6879903,84.1949818 C36.0458755,84.3779271 37.416414,84.4498803 38.7859909,84.4101269 C40.3739661,84.3486569 43.9802066,84.0515518 45.6603869,83.8978768 L43.7240816,87.2582373 C45.0878189,87.369433 46.4583449,87.369433 47.8220822,87.2582373 C49.8710825,87.0738273 55.2189733,86.3156971 55.5160783,86.2337371 L55.6697533,86.2337371 L54.1022681,90.1473277 C55.4813918,90.0720192 56.8519999,89.8835606 58.2002687,89.5838526 C59.7370189,89.2252776 63.1690944,88.2520024 64.8082947,87.7807324 L65.2180947,87.7807324 L64.1218796,91.3869729 C65.4834746,91.1897105 66.8266392,90.8813309 68.1379202,90.4649228 C69.9512854,89.8707127 74.4590861,88.1393074 75.3094212,87.8217124 L74.9406012,91.4177079 C76.2372875,90.9643734 77.4947745,90.405871 78.7005167,89.7477726 C79.8786919,89.1638076 82.3272472,87.6680373 83.9049775,86.6435372 L84.2225725,88.9281725 C85.0854939,88.3637031 85.9009646,87.7298288 86.6608829,87.0328473 C87.419013,86.3259421 88.9455182,84.7687019 89.9085483,83.7749368 L91.4657886,85.9468771 C91.9685872,85.044149 92.3968835,84.1018972 92.7464138,83.1295017 C93.1152338,82.1050015 93.7709139,79.7588962 94.201204,78.457781 C95.7994242,75.0666855 94.621249,71.42971 90.4515334,68.8787046 Z" id="Shape" fill="#344567" fill-rule="nonzero"></path>
                <path d="M224.118068,68.6635596 C220.132762,67.8029794 214.723402,66.8297043 213.227631,66.6145593 L215.645452,63.9201239 C214.32905,63.5240238 212.98247,63.2362051 211.619166,63.0595437 C210.072171,62.8751337 206.58887,62.6190087 204.857465,62.4960687 L207.16259,59.6377132 C205.81663,59.310408 204.445995,59.094533 203.06459,58.9922782 C201.42539,58.8795831 197.604004,58.8078681 196.005784,58.7771331 L198.054784,55.8265727 C196.700831,55.5956252 195.33027,55.4757011 193.956784,55.4679976 C192.461013,55.4679976 189.162123,55.6319177 187.379493,55.7241227 L187.102878,55.6216727 L189.326043,52.0564121 C187.966199,51.8974627 186.595671,51.8494942 185.228042,51.9129821 C183.301982,52.0154321 178.415116,52.5379272 177.605761,52.6198872 L176.806651,52.4047422 L177.298411,52.4867022 L179.009326,48.6243366 C177.633874,48.6557174 176.263298,48.7996279 174.911326,49.0546267 C173.405311,49.3517317 170.08593,50.1610869 168.38526,50.5811319 L167.6886,50.4786819 L168.948735,47.3539564 C167.569607,47.429219 166.198995,47.6176781 164.850734,47.9174315 C163.170554,48.3067416 159.175003,49.4439368 157.812418,49.8332468 L158.416873,47.2002814 C157.07506,47.4920394 155.759324,47.8929278 154.482793,48.3989466 C153.212413,48.9111967 150.599937,50.1098619 148.930002,50.888482 L148.643142,48.5526216 C147.771139,49.1026664 146.945393,49.7228324 146.174097,50.4069669 C145.334006,51.165097 143.561621,52.9272373 142.608836,53.8697774 L141.113066,51.6568571 C140.584116,52.5437233 140.128409,53.4722689 139.750481,54.4332525 C139.412396,55.3245676 138.80794,57.1379329 138.37765,58.4492931 C136.564285,61.9428386 137.61952,65.8769192 141.778991,68.9196846 C137.35315,71.624365 136.28767,75.5584456 138.346915,79.1646861 C138.756715,80.4862913 139.371416,82.5455366 139.760726,83.5085667 C140.121143,84.4749368 140.559715,85.4103278 141.072086,86.3054521 L142.588346,84.1335118 C143.551376,85.158012 144.872981,86.4693722 145.559396,87.1045623 C146.319315,87.8015438 147.134785,88.4354181 147.997707,88.9998875 L148.315302,86.7152522 C149.882787,87.7397524 152.341587,89.2047876 153.540253,89.8707127 C154.745995,90.528811 156.003482,91.0873134 157.300168,91.5406479 L156.931348,87.9446524 C157.771438,88.2622474 162.279239,89.9936527 164.102849,90.5878628 C165.41413,91.0042709 166.757295,91.3126505 168.11889,91.5099129 L167.05341,87.8729374 L167.46321,87.8729374 C169.10241,88.3442074 172.58571,89.3174826 174.071236,89.6760576 C175.419504,89.9757656 176.790113,90.1642242 178.169236,90.2395327 L176.581261,86.2849621 L176.734936,86.2849621 C177.042286,86.2849621 182.400422,87.0840723 184.428932,87.3094623 C185.792669,87.420658 187.163195,87.420658 188.526933,87.3094623 L186.621362,83.8773868 C188.301543,84.0208168 191.907783,84.3281669 193.495758,84.3896369 C194.865335,84.4293903 196.235874,84.3574371 197.593759,84.1744918 L195.452554,80.8551113 C196.907344,80.8551113 200.9951,80.9473164 202.71626,80.8551113 C204.093687,80.8000874 205.464281,80.6321896 206.81426,80.3531063 L204.56036,77.4230358 C206.17907,77.3615658 209.949231,77.2181358 211.578186,77.0849508 C212.961604,76.9591539 214.332265,76.7192882 215.676187,76.3678007 L213.391551,73.6426303 C215.194672,73.4069953 220.337662,72.7103352 224.097578,72.0341651 C226.453928,71.61412 229.394244,70.9379499 229.373754,70.3539848 C229.353264,69.7700197 226.402703,69.1655646 224.118068,68.6635596 Z" id="Shape" fill="#344567" fill-rule="nonzero"></path>
                <path d="M131.247129,95.5669335 C131.11282,94.6498585 130.903809,93.7452894 130.622184,92.8622531 C130.222629,91.6430979 129.054699,88.5900875 128.839554,88.0266124 L131.267619,88.2827374 C130.96188,87.4065043 130.584973,86.5567504 130.140669,85.7419771 C129.689889,84.9326219 128.665389,83.2729317 128.009709,82.2176965 L129.556704,82.0025515 C129.175406,81.418818 128.747109,80.8671723 128.276079,80.3531063 C127.825299,79.8715912 126.852024,78.9085611 126.175854,78.304106 L127.651134,77.5152409 C127.0918,77.095266 126.499026,76.7217838 125.878749,76.3985357 C125.366499,76.1424107 124.352243,75.6711406 123.532643,75.3023205 L124.188323,73.6836103 C123.53044,74.007657 122.844659,74.2716825 122.139323,74.4724754 C121.514378,74.6568854 121.114823,74.7695805 120.735758,74.8412955 C118.973618,74.7286005 117.262702,75.7018756 115.961587,77.8328359 C115.008852,76.3491395 113.484779,75.3256746 111.750892,75.0052155 L111.750892,75.0052155 C110.951066,74.9480034 110.158572,74.8142057 109.384296,74.6056604 C108.682654,74.4412715 107.996969,74.2149956 107.335296,73.9294903 L108.195876,75.7735906 C107.437746,76.0297156 106.628391,76.3063307 106.146876,76.4804957 C105.498188,76.732972 104.871166,77.0379172 104.27204,77.3923008 L105.767811,78.416801 C105.132621,79.0519911 103.9442,80.2506563 103.43195,80.8243763 C102.970605,81.3461086 102.552588,81.9046057 102.18206,82.4943116 L103.75979,82.6889666 C103.237295,83.8261618 102.42794,85.588302 102.07961,86.4386372 C101.738059,87.2996211 101.467375,88.1870543 101.270255,89.0920926 L103.04264,88.6822925 C102.77627,89.6043426 102.01814,92.298778 101.741525,93.4359732 C101.540169,94.3427235 101.41339,95.2644377 101.36246,96.1918786 L103.47293,95.3415435 L103.544645,95.8128135 C103.257785,96.9602537 102.7148,99.203909 102.520145,100.218164 C102.349171,101.130837 102.25323,102.055979 102.233285,102.984315 L104.866251,101.765159 L104.815026,101.437319 L104.958456,101.980304 C104.896986,102.533535 104.548655,105.832425 104.47694,107.102805 C104.435404,108.029516 104.469669,108.958071 104.57939,109.879201 L106.986966,108.38343 L107.048436,108.56784 C106.986966,109.776751 106.884516,111.999916 106.874271,113.003926 C106.880686,113.931137 106.96292,114.856271 107.120151,115.770076 L109.107681,114.387001 C109.107681,115.462726 109.179396,118.044467 109.251111,119.150927 C109.32276,120.076638 109.470098,120.994927 109.691646,121.896587 L111.617707,120.339347 C111.699667,121.507277 111.873832,123.863628 111.996772,124.898373 C112.117181,125.817738 112.312486,126.725732 112.580737,127.613298 L114.404347,125.984343 C114.578512,127.008843 115.234192,130.645819 115.818157,133.330009 C116.156242,134.877004 116.525062,136.8338 116.924617,136.85429 C117.324172,136.87478 117.774952,134.887249 118.061812,133.299274 C118.522838,130.758514 118.994108,127.285458 119.147783,126.066303 L120.991883,127.603053 C121.226656,126.705892 121.387697,125.79104 121.473398,124.867638 C121.565603,123.771423 121.668053,121.220417 121.698788,120.134447 L123.747788,121.650707 C123.935365,120.742815 124.048436,119.821113 124.085873,118.894802 L124.085873,113.997691 L126.329529,115.442236 C126.452937,114.522228 126.500907,113.593669 126.472959,112.665841 C126.472959,111.641341 126.227079,109.16205 126.134874,108.024855 L128.399019,109.325971 C128.474642,108.40205 128.474642,107.473495 128.399019,106.549575 C128.276079,105.156255 127.743339,101.427074 127.733094,101.345114 L127.733094,101.242664 L127.733094,101.242664 L130.376304,102.267164 C130.325328,101.339728 130.19855,100.418018 129.997239,99.5112591 C129.751359,98.4867589 129.095679,96.1508986 128.778084,95.0444384 L128.778084,94.7678234 L131.247129,95.5669335 Z M123.051128,75.5686906 L123.051128,75.5686906 L122.969168,75.5686906 L123.051128,75.5686906 Z" id="Shape" fill="#344567" fill-rule="nonzero"></path>
                <path d="M130.417284,48.4194366 L128.644899,48.8292367 C128.911269,47.9071865 129.669399,45.2127511 129.946014,44.075556 C130.147325,43.1687975 130.274103,42.2470871 130.325079,41.3196506 L128.214609,42.1699857 L128.142894,41.6987156 C128.429754,40.5512755 128.972739,38.3076201 129.167394,37.293365 C129.338232,36.3806723 129.434172,35.4555411 129.454254,34.5272146 L126.852024,35.6848997 L126.903249,36.0127398 L126.759819,35.4697547 C126.821289,34.9165246 127.169619,31.6176341 127.241334,30.347254 C127.282916,29.4205434 127.248651,28.4919843 127.138884,27.5708586 L124.731308,29.0666288 L124.669838,28.8822187 C124.731308,27.6733086 124.833758,25.4501432 124.844003,24.4461331 C124.837497,23.5189262 124.755263,22.5938 124.598123,21.6799827 L122.610593,23.0630579 C122.610593,21.9873327 122.538878,19.4055924 122.467163,18.2991322 C122.395423,17.3734318 122.248087,16.4551502 122.026628,15.5534718 L120.100568,17.110712 C120.018608,15.9427819 119.844443,13.5864315 119.721503,12.5516864 C119.602841,11.6219379 119.407521,10.7035904 119.137538,9.80602596 L117.313927,11.4349812 C117.139762,10.410481 116.484082,6.77350551 115.900117,4.08931512 C115.572277,2.5628099 115.193212,0.585524607 114.803902,0.585524607 C114.414592,0.585524607 113.953567,2.55256489 113.666707,4.14054013 C113.205682,6.6813005 112.734412,10.154356 112.580737,11.3735112 L110.736636,9.80602596 C110.501908,10.7031971 110.340868,11.618045 110.255121,12.5414414 C110.162916,13.6376565 110.060466,16.1886619 110.029731,17.274632 L107.980731,15.7583718 C107.7932,16.6662715 107.680129,17.5879702 107.642646,18.5142772 L107.642646,23.4113879 L105.409236,21.9668427 C105.282403,22.8865705 105.231006,23.8151311 105.255561,24.7432381 C105.255561,25.7677383 105.501441,28.2470287 105.593646,29.3842238 L103.3295,28.0831086 C103.253877,29.0070289 103.253877,29.9355838 103.3295,30.859504 C103.45244,32.2528242 103.98518,35.9820048 103.995425,36.0639648 L103.995425,36.1664148 L103.995425,36.1664148 L101.352215,35.1419147 C101.424463,36.0641784 101.571797,36.979015 101.79275,37.8773301 C102.03863,38.9018302 102.69431,41.2376906 103.011905,42.3441507 L103.011905,42.6207658 L100.573595,41.8831256 C100.70795,42.8001922 100.916959,43.7047576 101.19854,44.587806 C101.598095,45.8069612 102.766025,48.8599717 102.98117,49.4234468 L100.553105,49.1673217 C100.858887,50.043538 101.235793,50.8932884 101.680055,51.7080821 C102.130835,52.5174372 103.155335,54.1771274 103.811015,55.2323626 L102.26402,55.4475076 C102.645319,56.0312412 103.073615,56.5828868 103.544645,57.0969529 C103.995425,57.5784679 104.968701,58.5414981 105.644871,59.1459532 L104.16959,59.9348183 C104.711089,60.3665825 105.286694,60.7537452 105.890751,61.0925035 C106.403001,61.3486285 107.417256,61.8198986 108.236856,62.1887186 L107.581176,63.8074289 C108.23906,63.4833821 108.92484,63.2193567 109.630176,63.0185637 C110.255121,62.8341537 110.654676,62.7214587 111.033741,62.6497437 C112.795882,62.7624387 114.506797,61.7891636 115.807912,59.6582032 C116.760648,61.1418997 118.28472,62.1653645 120.018608,62.4858237 L120.018608,62.4858237 C120.818433,62.5430358 121.610927,62.6768335 122.385203,62.8853787 C123.08686,63.0497157 123.772549,63.2759932 124.434203,63.5615488 L123.573623,61.7174485 C124.331753,61.4613235 125.141108,61.1847085 125.622624,61.0105434 C126.239402,60.7568979 126.835425,60.455461 127.405254,60.1089833 L125.909484,59.0844832 C126.544674,58.4492931 127.733094,57.2506279 128.245344,56.6769078 C128.706654,56.1551469 129.124668,55.5966526 129.495234,55.0069726 L127.917504,54.8123175 C128.439999,53.6751224 129.249354,51.9129821 129.597684,51.062647 C129.942192,50.2052893 130.216298,49.3212969 130.417284,48.4194366 Z M108.667146,61.8813686 L108.667146,61.8813686 L108.749106,61.8813686 L108.667146,61.8813686 Z" id="Shape" fill="#344567" fill-rule="nonzero"></path>
            </g>
        </g>
    </g>
</svg>