<svg xmlns="http://www.w3.org/2000/svg" viewBox="0 0 251.58 211.22"><title>stinging-nettle</title><text transform="translate(165.85 167.33)" font-size="24.26" fill="#676767" font-family="MatrixIIInlineOT-Script, Matrix II Inline OT" letter-spacing="0.02em"> </text><path d="M84.34,193.16,74.56,175.4v14.35c-.89,3.21-2.73,3.41-2.73,3.41s1.83.36,2.73,3.41v9.31l5-.07V195.16l9.81,16.05V180.48H84.5Z" fill="#344567"/><path d="M153.5,196.39c.91-2.88,2.67-3.23,2.67-3.23s-1.76-.19-2.67-3.22v-9.46h-5.08v9.68c-.93,2.82-2.6,3-2.6,3s1.67.33,2.6,3v9.66h12.7v-5.07H153.5Z" fill="#344567"/><path d="M178.17,185.55v-5.07h-12.7v9.27c-.89,3.21-2.73,3.41-2.73,3.41s1.83.36,2.73,3.41v9.27h12.7v-5.07h-7.62v-5.07h7.62v-5.07h-7.62v-5.07Z" fill="#344567"/><path d="M133.64,180.48h-3.81v5.07h3.81v4.34c-.91,3.07-2.68,3.26-2.68,3.26s1.78.35,2.68,3.27v9.41h5.08v-9.51c.89-3,2.73-3.41,2.73-3.41s-1.83-.19-2.73-3.41v-4h3.81v-5.07h-8.89Z" fill="#344567"/><path d="M116.62,180.48h-3.81v5.07h3.81v4.34c-.91,3.07-2.68,3.26-2.68,3.26s1.78.35,2.68,3.27v9.41h5.08v-9.51c.89-3,2.73-3.41,2.73-3.41s-1.83-.19-2.73-3.41v-4h3.81v-5.07h-8.89Z" fill="#344567"/><path d="M114.06,193.16s1.83.36,2.73,3.41v-6.81C115.89,193,114.06,193.16,114.06,193.16Z" fill="#344567"/><path d="M108.66,185.55v-5.07H96v9.27c-.89,3.21-2.73,3.41-2.73,3.41s1.83.36,2.73,3.41v9.27h12.7v-5.07H101v-5.07h7.62v-5.07H101v-5.07Z" fill="#344567"/><g style="isolation:isolate"><path d="M85.28,151a2.46,2.46,0,0,0-2.57,2.06c-.12.85.61,1.6,1.55,2.57l2.14,2.21c1.65,1.7,2.62,3.08,2.38,4.78-.44,3.11-3.11,4.61-6.21,4.61s-5.07-2.4-4.8-4.2a2.65,2.65,0,0,1,2.4-2.18,1.76,1.76,0,0,1,1.77,2.06,2.61,2.61,0,0,1-1.65,2,2.91,2.91,0,0,0,2.35.85,2.72,2.72,0,0,0,2.74-2.16c.17-1.16-.44-1.92-1.84-3.4l-1.7-1.8c-1.8-1.89-2.55-3-2.3-4.66.41-2.77,3-4.2,5.8-4.2,1.94,0,4.49,1,4.15,3.27a2.2,2.2,0,0,1-2.11,1.87,1.59,1.59,0,0,1-1.6-1.87,2.06,2.06,0,0,1,.87-1.41A2.21,2.21,0,0,0,85.28,151Z" fill="#344567"/><path d="M90.6,156.41l.24-1.72h2.33l.41-2.91h3.35l-.41,2.91h3.11l-.24,1.72H96.27l-1.14,8.13a.61.61,0,0,0,.63.7.85.85,0,0,0,.8-.7l.17-1.09h1l-.17,1.09a3.49,3.49,0,0,1-3.32,2.91,2.48,2.48,0,0,1-2.5-2.91l1.14-8.13Z" fill="#344567"/><path d="M103.14,167.44a2.47,2.47,0,0,1-2.5-2.91l1.38-9.85h3.35L104,164.53a.61.61,0,0,0,.63.7.85.85,0,0,0,.8-.7l.17-1.09h1l-.17,1.09A3.49,3.49,0,0,1,103.14,167.44Zm2.67-16a2,2,0,0,1-1.92,1.67,1.42,1.42,0,0,1-1.43-1.67,2,2,0,0,1,1.92-1.67A1.42,1.42,0,0,1,105.81,151.48Z" fill="#344567"/><path d="M114.74,156.53c.75-1,1.87-2.38,3.66-2.38a2.77,2.77,0,0,1,2.81,3.25l-1,7.13a.61.61,0,0,0,.63.7.85.85,0,0,0,.8-.7l.17-1.09h1l-.17,1.09a3.49,3.49,0,0,1-3.32,2.91,2.48,2.48,0,0,1-2.5-2.91l1-7a.87.87,0,0,0-.87-1c-.56,0-1.09.46-2.11,1.82l-.85,1.14-1,7.5h-3.35L111,157.4a.61.61,0,0,0-.63-.7.85.85,0,0,0-.8.7l-.17,1.09h-1l.17-1.09a3.49,3.49,0,0,1,3.32-2.91,2.47,2.47,0,0,1,2.52,2.57Z" fill="#344567"/><path d="M125.17,164a2,2,0,0,1,1.14-1.5,3.49,3.49,0,0,1-1.5-3.42,5.43,5.43,0,0,1,5.41-4.22h3.49a.85.85,0,0,0,.8-.7l.12-1h1l-.27,2a3.15,3.15,0,0,1-1.21,2,3.59,3.59,0,0,1,.22,1.84,4.71,4.71,0,0,1-2.28,3.3,4,4,0,0,1,2,4.2,6.37,6.37,0,0,1-6.09,5.34c-2.94,0-4.49-1.77-4.71-2.94l1.55-.83a3.26,3.26,0,0,0,6.14-.51,2.21,2.21,0,0,0-2.4-2.57c-.95,0-1.46.61-2.11.61A1.33,1.33,0,0,1,125.17,164ZM128,159a2.15,2.15,0,0,0,2,2.64,3,3,0,0,0,2.74-2.64,2.14,2.14,0,0,0-2-2.64A2.94,2.94,0,0,0,128,159Z" fill="#344567"/><path d="M139.73,167.44a2.47,2.47,0,0,1-2.5-2.91l1.38-9.85H142l-1.38,9.85a.61.61,0,0,0,.63.7.85.85,0,0,0,.8-.7l.17-1.09h1l-.17,1.09A3.49,3.49,0,0,1,139.73,167.44Zm2.67-16a2,2,0,0,1-1.92,1.67,1.42,1.42,0,0,1-1.43-1.67,2,2,0,0,1,1.92-1.67A1.42,1.42,0,0,1,142.4,151.48Z" fill="#344567"/><path d="M151.32,156.53c.75-1,1.87-2.38,3.66-2.38a2.77,2.77,0,0,1,2.81,3.25l-1,7.13a.61.61,0,0,0,.63.7.85.85,0,0,0,.8-.7l.17-1.09h1l-.17,1.09a3.49,3.49,0,0,1-3.32,2.91,2.48,2.48,0,0,1-2.5-2.91l1-7a.87.87,0,0,0-.87-1c-.56,0-1.09.46-2.11,1.82l-.85,1.14-1,7.5H146.2l1.36-9.61a.61.61,0,0,0-.63-.7.85.85,0,0,0-.8.7l-.17,1.09h-1l.17-1.09a3.49,3.49,0,0,1,3.32-2.91,2.47,2.47,0,0,1,2.52,2.57Z" fill="#344567"/><path d="M161.76,164a2,2,0,0,1,1.14-1.5,3.49,3.49,0,0,1-1.5-3.42,5.43,5.43,0,0,1,5.41-4.22h3.49a.85.85,0,0,0,.8-.7l.12-1h1l-.27,2a3.15,3.15,0,0,1-1.21,2A3.6,3.6,0,0,1,171,159a4.71,4.71,0,0,1-2.28,3.3,4,4,0,0,1,2,4.2,6.37,6.37,0,0,1-6.09,5.34c-2.94,0-4.49-1.77-4.71-2.94l1.55-.83a3.26,3.26,0,0,0,6.14-.51,2.21,2.21,0,0,0-2.4-2.57c-.95,0-1.46.61-2.11.61A1.33,1.33,0,0,1,161.76,164Zm2.84-4.93a2.15,2.15,0,0,0,2,2.64,3,3,0,0,0,2.74-2.64,2.14,2.14,0,0,0-2-2.64A2.94,2.94,0,0,0,164.59,159Z" fill="#344567"/></g><path d="M99.93,66.66c4.06-3,5.09-6.8,3.32-10.22-.42-1.28-1-3.05-1.34-3.92a18.53,18.53,0,0,0-1.33-2.71L99.12,52c-.92-.92-2.66-2.64-3.48-3.38a18.53,18.53,0,0,0-2.41-1.81L93,49.06c-1.64-.76-4.19-1.93-5.42-2.43a24.61,24.61,0,0,0-3.84-1.17L84.27,48c-1.33-.38-5.23-1.49-6.87-1.87a24.61,24.61,0,0,0-4-.55l1.23,3.05-.68.1c-1.66-.41-4.9-1.2-6.37-1.49a24.61,24.61,0,0,0-4-.42l1.67,3.77.48-.08-.78.21c-.8-.08-5.57-.59-7.44-.69a24.62,24.62,0,0,0-4,.14l2.17,3.48-.27.1c-1.74-.09-5-.24-6.42-.25a24.61,24.61,0,0,0-4,.35l2,2.88c-1.56,0-5.29.1-6.89.21a24.62,24.62,0,0,0-4,.63l2.25,2.79c-1.68.12-5.09.37-6.6.55a24.62,24.62,0,0,0-3.93.84l2.36,2.63c-1.46.26-6.74,1.2-10.63,2-2.23.48-5.06,1-5.09,1.59s2.84,1.22,5.15,1.64c3.67.66,8.7,1.34,10.45,1.57l-2.23,2.66a24.62,24.62,0,0,0,4,.7c1.59.13,5.27.27,6.85.33L36.5,77.88a24.61,24.61,0,0,0,4,.49c1.67.05,5.66,0,7.09,0l-2.09,3.24a24.61,24.61,0,0,0,4,.21c1.55-.06,5.07-.35,6.71-.5l-1.89,3.28a24.61,24.61,0,0,0,4,0c2-.18,7.22-.92,7.51-1l.15,0-1.53,3.82a24.62,24.62,0,0,0,4-.55c1.5-.35,4.85-1.3,6.45-1.76l.4,0-1.07,3.52a24.61,24.61,0,0,0,3.92-.9c1.77-.58,6.17-2.27,7-2.58l-.36,3.51a24.62,24.62,0,0,0,3.67-1.63C89.61,86.46,92,85,93.54,84l.31,2.23a18.52,18.52,0,0,0,2.38-1.85c.74-.69,2.23-2.21,3.17-3.18l1.52,2.12a18.54,18.54,0,0,0,1.25-2.75c.36-1,1-3.29,1.42-4.56C105.15,72.7,104,69.15,99.93,66.66Zm-.78,14.15h0Z" fill="#344567"/><path d="M230.4,66.45c-3.89-.84-9.17-1.79-10.63-2l2.36-2.63a24.62,24.62,0,0,0-3.93-.84c-1.51-.18-4.91-.43-6.6-.55l2.25-2.79a24.62,24.62,0,0,0-4-.63c-1.6-.11-5.33-.18-6.89-.21l2-2.88a24.61,24.61,0,0,0-4-.35c-1.46,0-4.68.16-6.42.25l-.27-.1,2.17-3.48a24.62,24.62,0,0,0-4-.14c-1.88.1-6.65.61-7.44.69l-.78-.21.48.08,1.67-3.77a24.61,24.61,0,0,0-4,.42c-1.47.29-4.71,1.08-6.37,1.49l-.68-.1,1.23-3.05a24.61,24.61,0,0,0-4,.55c-1.64.38-5.54,1.49-6.87,1.87l.59-2.57a24.61,24.61,0,0,0-3.84,1.17c-1.24.5-3.79,1.67-5.42,2.43l-.28-2.28a18.53,18.53,0,0,0-2.41,1.81c-.82.74-2.55,2.46-3.48,3.38l-1.46-2.16a18.53,18.53,0,0,0-1.33,2.71c-.33.87-.92,2.64-1.34,3.92-1.77,3.41-.74,7.25,3.32,10.22-4.32,2.64-5.36,6.48-3.35,10,.4,1.29,1,3.3,1.38,4.24a18.53,18.53,0,0,0,1.28,2.73l1.48-2.12c.94,1,2.23,2.28,2.9,2.9a18.52,18.52,0,0,0,2.38,1.85l.31-2.23c1.53,1,3.93,2.43,5.1,3.08a24.62,24.62,0,0,0,3.67,1.63l-.36-3.51c.82.31,5.22,2,7,2.58a24.61,24.61,0,0,0,3.92.9L174.7,85.2l.4,0c1.6.46,5,1.41,6.45,1.76a24.62,24.62,0,0,0,4,.55L184,83.65l.15,0c.3,0,5.53.78,7.51,1a24.61,24.61,0,0,0,4,0L193.8,81.3c1.64.14,5.16.44,6.71.5a24.61,24.61,0,0,0,4-.21l-2.09-3.24c1.42,0,5.41.09,7.09,0a24.61,24.61,0,0,0,4-.49L211.31,75c1.58-.06,5.26-.2,6.85-.33a24.62,24.62,0,0,0,4-.7l-2.23-2.66c1.76-.23,6.78-.91,10.45-1.57,2.3-.41,5.17-1.07,5.15-1.64S232.63,66.94,230.4,66.45Z" fill="#344567"/><path d="M139.75,92.71a16.61,16.61,0,0,0-.61-2.64c-.39-1.19-1.53-4.17-1.74-4.72l2.37.25a16.61,16.61,0,0,0-1.1-2.48c-.44-.79-1.44-2.41-2.08-3.44l1.51-.21a12.51,12.51,0,0,0-1.25-1.61c-.44-.47-1.39-1.41-2.05-2l1.44-.77A12.51,12.51,0,0,0,134.51,74c-.5-.25-1.49-.71-2.29-1.07l.64-1.58a11.9,11.9,0,0,1-2,.77c-.61.18-1,.29-1.37.36-1.72-.11-3.39.84-4.66,2.92a6.23,6.23,0,0,0-4.11-2.76h0a12.24,12.24,0,0,1-2.31-.39,11.9,11.9,0,0,1-2-.66l.84,1.8c-.74.25-1.53.52-2,.69a12.5,12.5,0,0,0-1.83.89l1.46,1c-.62.62-1.78,1.79-2.28,2.35a12.5,12.5,0,0,0-1.22,1.63l1.54.19c-.51,1.11-1.3,2.83-1.64,3.66a16.61,16.61,0,0,0-.79,2.59l1.73-.4c-.26.9-1,3.53-1.27,4.64a16.61,16.61,0,0,0-.37,2.69l2.06-.83.07.46c-.28,1.12-.81,3.31-1,4.3a16.6,16.6,0,0,0-.28,2.7L114,98.76l-.05-.32.14.53c-.06.54-.4,3.76-.47,5a16.62,16.62,0,0,0,.1,2.71l2.35-1.46.06.18c-.06,1.18-.16,3.35-.17,4.33a16.6,16.6,0,0,0,.24,2.7l1.94-1.35c0,1.05.07,3.57.14,4.65a16.6,16.6,0,0,0,.43,2.68l1.88-1.52c.08,1.14.25,3.44.37,4.45a16.62,16.62,0,0,0,.57,2.65l1.78-1.59c.17,1,.81,4.55,1.38,7.17.33,1.51.69,3.42,1.08,3.44s.83-1.92,1.11-3.47c.45-2.48.91-5.87,1.06-7.06l1.8,1.5a16.61,16.61,0,0,0,.47-2.67c.09-1.07.19-3.56.22-4.62l2,1.48a16.61,16.61,0,0,0,.33-2.69c0-1.13,0-3.82,0-4.78l2.19,1.41a16.62,16.62,0,0,0,.14-2.71c0-1-.24-3.42-.33-4.53l2.21,1.27a16.61,16.61,0,0,0,0-2.71c-.12-1.36-.64-5-.65-5.08l0-.1h0l2.58,1a16.62,16.62,0,0,0-.37-2.69c-.24-1-.88-3.28-1.19-4.36l0-.27Zm-8-19.52,0,0-.08,0Z" fill="#344567"/><path d="M138.94,46.69l-1.73.4c.26-.9,1-3.53,1.27-4.64a16.62,16.62,0,0,0,.37-2.69l-2.06.83-.07-.46c.28-1.12.81-3.31,1-4.3a16.63,16.63,0,0,0,.28-2.7l-2.54,1.13.05.32-.14-.53c.06-.54.4-3.76.47-5a16.61,16.61,0,0,0-.1-2.71l-2.35,1.46-.06-.18c.06-1.18.16-3.35.17-4.33a16.62,16.62,0,0,0-.24-2.7l-1.94,1.35c0-1.05-.07-3.57-.14-4.65a16.62,16.62,0,0,0-.43-2.68l-1.88,1.52c-.08-1.14-.25-3.44-.37-4.45A16.6,16.6,0,0,0,127.93,9l-1.78,1.59c-.17-1-.81-4.55-1.38-7.17C124.45,1.93,124.08,0,123.7,0s-.83,1.92-1.11,3.47c-.45,2.48-.91,5.87-1.06,7.06L119.73,9a16.62,16.62,0,0,0-.47,2.67c-.09,1.07-.19,3.56-.22,4.62l-2-1.48a16.62,16.62,0,0,0-.33,2.69c0,1.13,0,3.82,0,4.78l-2.18-1.41a16.62,16.62,0,0,0-.15,2.71c0,1,.24,3.42.33,4.53l-2.21-1.27a16.61,16.61,0,0,0,0,2.71c.12,1.36.64,5,.65,5.08l0,.1h0l-2.58-1A16.61,16.61,0,0,0,111,36.4c.24,1,.88,3.28,1.19,4.36l0,.27-2.38-.72a16.62,16.62,0,0,0,.61,2.64c.39,1.19,1.53,4.17,1.74,4.72l-2.37-.25a16.62,16.62,0,0,0,1.1,2.48c.44.79,1.44,2.41,2.08,3.44l-1.51.21a12.51,12.51,0,0,0,1.25,1.61c.44.47,1.39,1.41,2.05,2l-1.44.77A12.51,12.51,0,0,0,115,59.06c.5.25,1.49.71,2.29,1.07l-.64,1.58a11.9,11.9,0,0,1,2-.77c.61-.18,1-.29,1.37-.36,1.72.11,3.39-.84,4.66-2.92a6.23,6.23,0,0,0,4.11,2.76h0a12.24,12.24,0,0,1,2.31.39,11.89,11.89,0,0,1,2,.66l-.84-1.8c.74-.25,1.53-.52,2-.69A12.5,12.5,0,0,0,136,58.1l-1.46-1c.62-.62,1.78-1.79,2.28-2.35a12.51,12.51,0,0,0,1.22-1.63l-1.54-.19c.51-1.11,1.3-2.83,1.64-3.66A16.61,16.61,0,0,0,138.94,46.69ZM117.71,59.83l0,0,.08,0Z" fill="#344567"/></svg>