<svg xmlns="http://www.w3.org/2000/svg" width="251.32" height="190.52" viewBox="0 0 251.32 190.52"><title>sweet-cicely</title><polygon points="118.39 177.87 125.03 185.49 131.67 177.87 125.03 170.25 118.39 177.87" fill="#344567"/><path d="M23.76,186.62l-1.85.81H21.6v-5.1h.75a5.17,5.17,0,0,0,5.33,4.58c2.37,0,4.6-1,4.6-3.48,0-5.67-10.37-3.72-10.37-10.61,0-3.85,3.38-4.86,5.77-4.86,2.89,0,5.17,1.25,6.08,3.3L31.3,173H31a4.57,4.57,0,0,0,.18-1.12c0-2.05-1.3-3.17-3.61-3.17-2.08,0-3.69,1.22-3.69,3.2,0,5,10.45,3.72,10.45,10.17,0,3.74-2.81,5.75-6.76,5.75A6,6,0,0,1,23.76,186.62Z" fill="#344567"/><path d="M37.44,170.65l-1.27-2.11v-.23h4.91v.23l-1,2.11,4.29,12.56L47.11,173l-1.4-4.5v-.23h4.19v.23L49.24,171l3.38,12.22,4.11-12.53-1.33-2.11v-.23h3.9v.23l-1.4,2.11-5.8,17.13h-.55l-3.82-12.87-3.56,12.87h-.62Z" fill="#344567"/><path d="M75.74,186.12c-1.4,1.14-2.44,1.38-5.43,1.3H61v-.23L62.66,185v-14.3l-2-2.18v-.23H73.6l.94,4.19h-.42l-3.25-3.41H65v7.36h4.29l1.87-1.33h.26v4h-.26l-1.87-1.79H65v9.31h4.5a4,4,0,0,0,3.9-3Z" fill="#344567"/><path d="M92.74,186.12c-1.4,1.14-2.44,1.38-5.43,1.3H78v-.23L79.66,185v-14.3l-2-2.18v-.23H90.61l.94,4.19h-.42l-3.25-3.41H82v7.36h4.29l1.87-1.33h.26v4h-.26l-1.87-1.79H82v9.31h4.5a4,4,0,0,0,3.9-3Z" fill="#344567"/><path d="M99.4,187.19,101,185V169.09H97.91l-3.25,3.51h-.42l.83-4.29h14.2l.83,4.29h-.42l-3.25-3.51h-3.09V185l1.61,2.18v.23H99.4Z" fill="#344567"/><path d="M141.25,177.88c0-6,3.9-9.93,9.46-9.93,2.52,0,7,1.14,8.42,5.36l-2.39,2.18c-.23-2.5-2-6.86-6.29-6.86-4.11,0-6.79,3.17-6.79,8.19,0,5.67,3.07,9.57,7.54,9.57a6.11,6.11,0,0,0,6.06-4H158v5h-.36l-1.53-1.12a8.47,8.47,0,0,1-5.28,1.48C145.15,187.79,141.25,183.73,141.25,177.88Z" fill="#344567"/><path d="M161.33,187.16l1.46-2.16V170.65l-1-2.08v-.26h4.34v.26l-1,2.08V185l1.43,2.16v.26h-5.23Z" fill="#344567"/><path d="M169.15,177.88c0-6,3.9-9.93,9.46-9.93,2.52,0,7,1.14,8.42,5.36l-2.39,2.18c-.23-2.5-2-6.86-6.29-6.86-4.11,0-6.79,3.17-6.79,8.19,0,5.67,3.07,9.57,7.54,9.57a6.1,6.1,0,0,0,6.06-4h.73v5h-.36L184,186.31a8.47,8.47,0,0,1-5.28,1.48C173.05,187.79,169.15,183.73,169.15,177.88Z" fill="#344567"/><path d="M203.21,186.12c-1.4,1.14-2.44,1.38-5.43,1.3H188.5v-.23l1.64-2.16v-14.3l-2-2.18v-.23h12.95l.94,4.19h-.42l-3.25-3.41h-5.88v7.36h4.29l1.87-1.33h.26v4h-.26l-1.87-1.79h-4.29v9.31H197a4,4,0,0,0,3.9-3Z" fill="#344567"/><path d="M205.63,187.19,207,185V170.65l-1.46-2.05v-.29h5.25v.29l-1.46,2.05v15.94h3.54a3.81,3.81,0,0,0,3.82-3.07l2.34,1.74c-.31,1.12-1.14,2.16-6,2.16h-7.41Z" fill="#344567"/><path d="M222.09,187.19l1.56-2.18v-6.58l-5.72-9.88v-.23h5.17v.23l-1.25,2.11,3.59,6.34,3.8-6.32-1.46-2.13v-.23h3.93v.23L226,178v7l1.56,2.18v.23h-5.46Z" fill="#344567"/><path d="M115.13,119.64a123,123,0,0,0-14.37-14.51c-1.07-.89-8.47-5.49-9.3-5.49s-.61,1.21-1.3,1.24c-1,0-1.73-2.05-4.36-4.15a16.78,16.78,0,0,0-6.17-2.63c-1.31.06-.86,2.19-1.06,2.16s0-.59-.26-1.18c-.19-.4-.83-.87-4.64-2.62A14.24,14.24,0,0,0,69,91.3c-.16.09,0,.57-.33.76-.74.45-3.44-1.15-6.68-2.35-2.48-.92-6.43-3.47-6.63-3-.11.25.67,4.67,2.7,6.12.71.51,3,1.33,3,2S58.16,94.7,58,95c-.3.59,3.92,3.44,3.64,3.92s-3.59-.32-3.88.07c-.17.24.89,1.48,1.27,2,2,2.73,7.38,3.41,7.33,3.63s-5-.52-6.16,0c-.49.23,1.41,2.39,2,3.07,2.67,3.09,9,3.91,11,4.08-1,0-3.06-.08-4.85,0a12.46,12.46,0,0,0-3.33.6c-.21.35,4.26,4.26,8,5.36,6.23,1.81,8.64,3.3,9,3.57s-10.31-1.85-10.58-1c-.16.49,5.38,5,6.57,5.71,2.57,1.57,9.55-.29,11.13-.11-.36.65-4.23,3.75-4,4.2.31.77,26.13,13.74,38.06.44A117,117,0,0,0,115.13,119.64Z" fill="#344567"/><path d="M132.79,119.61a123,123,0,0,1,14.37-14.51c1.07-.89,8.47-5.49,9.3-5.49s.61,1.21,1.3,1.24c1,0,1.73-2.05,4.36-4.15a16.78,16.78,0,0,1,6.17-2.63c1.31.06.86,2.19,1.06,2.16s0-.59.26-1.18c.19-.4.83-.87,4.64-2.62a14.24,14.24,0,0,1,4.63-1.16c.16.09,0,.57.33.76.74.45,3.44-1.15,6.68-2.35,2.48-.92,6.43-3.47,6.63-3,.11.25-.67,4.67-2.7,6.12-.71.51-3,1.33-3,2s2.93-.09,3.07.17c.3.59-3.92,3.44-3.64,3.92s3.59-.32,3.88.07c.17.24-.89,1.48-1.27,2-2,2.73-7.38,3.41-7.33,3.63s5-.52,6.16,0c.49.23-1.41,2.39-2,3.07-2.67,3.09-9,3.91-11,4.08,1,0,3.06-.08,4.85,0a12.46,12.46,0,0,1,3.33.6c.21.35-4.26,4.26-8,5.36-6.23,1.81-8.64,3.3-9,3.57s10.31-1.85,10.58-1c.16.49-5.38,5-6.57,5.71-2.57,1.57-9.55-.29-11.13-.11.36.65,4.23,3.75,4,4.2-.31.77-26.13,13.74-38.06.44A117,117,0,0,1,132.79,119.61Z" fill="#344567"/><path d="M149.24,80.59a45.76,45.76,0,0,1-6.57,3.73c.19-.31,5.16-8.2,6-12.31a33.2,33.2,0,0,0,.51-9.43.86.86,0,0,0-1.34-.58c-1.1.78-4.13,3.42-5.5,3.79.05-.61,1.82-6.26,1.55-10.4-.17-2.58-1.13-5.15-1.25-6.86a.88.88,0,0,0-1.53-.62,11,11,0,0,0-.8,1c-.42.62-1.62,2.42-2,3.07,0-.1,1.51-7.79,1-11.54-.2-1.41-.47-3-.62-3.93a.44.44,0,0,0-.66-.34l-4,3.12s1.69-4.47,1.7-7.45a51.66,51.66,0,0,0-1.05-7.35.43.43,0,0,0-.79-.21l-4.77,2.45a6.24,6.24,0,0,0,1-4.89c-1.24-6.29-4.27-15.76-5.37-19.31a.42.42,0,0,0-.26-.27l-.08.05-.08-.05-.08.05-.08-.05a.42.42,0,0,0-.26.27c-1.1,3.55-4.13,13-5.37,19.31a6.24,6.24,0,0,0,1,4.89l-4.77-2.45a.43.43,0,0,0-.79.21,51.66,51.66,0,0,0-1.05,7.35c0,3,1.7,7.45,1.7,7.45l-4-3.12a.44.44,0,0,0-.66.34c-.15.9-.42,2.52-.62,3.93-.53,3.75,1,11.44,1,11.54-.37-.64-1.57-2.44-2-3.07a11,11,0,0,0-.8-1,.88.88,0,0,0-1.53.62c-.12,1.7-1.08,4.27-1.25,6.86-.27,4.14,1.5,9.79,1.55,10.4-1.37-.37-4.4-3-5.5-3.79a.86.86,0,0,0-1.34.58A33.2,33.2,0,0,0,99.91,72c.82,4.11,5.8,12,6,12.31a45.76,45.76,0,0,1-6.57-3.73C94.82,77.24,91.12,78,91.12,78s1.11,10.93,2.78,13.56c6,9.44,18.43,10.07,25.78,21.3,1.61,2.46,2.69,30,2.87,36.86a1,1,0,0,0,.9,1.09h1.67a1,1,0,0,0,.9-1.09c.19-6.89,1.26-34.4,2.87-36.86,7.35-11.23,19.79-11.86,25.78-21.3,1.67-2.63,2.78-13.56,2.78-13.56S153.75,77.24,149.24,80.59Z" fill="#344567"/></svg>