<?xml version="1.0" encoding="UTF-8"?>
<svg width="250px" height="250px" viewBox="0 0 250 250" version="1.1" xmlns="http://www.w3.org/2000/svg" xmlns:xlink="http://www.w3.org/1999/xlink">
    <!-- Generator: Sketch 43.2 (39069) - http://www.bohemiancoding.com/sketch -->
    <title>Sweet-Cicely-Small</title>
    <desc>Created with Sketch.</desc>
    <defs></defs>
    <g id="Page-2" stroke="none" stroke-width="1" fill="none" fill-rule="evenodd">
        <g id="Sweet-Cicely-Small">
            <polygon id="Rectangle-2-Copy-2" fill="#EBD9D1" points="21 151.058291 229 151.058291 229 169.058291 21 169.058291"></polygon>
            <polygon id="Rectangle-2-Copy-3" fill="#EBD9D1" points="21 114.605037 229 114.605037 229 132.605037 21 132.605037"></polygon>
            <g id="Group" transform="translate(21.000000, 43.000000)" fill="#EBD9D1">
                <polygon id="Rectangle-2-Copy-4" points="0 35.1517818 208 35.1517818 208 53.1517818 0 53.1517818"></polygon>
                <polygon id="Rectangle-2-Copy-5" points="0 0.129951595 208 0.129951595 208 18.1299516 0 18.1299516"></polygon>
            </g>
            <g id="Group-2-Copy-3" transform="translate(25.439429, 188.964422)" fill-rule="nonzero" fill="#344567">
                <polygon id="Shape" points="92.7690972 9.65232878 99.1292505 16.9511794 105.489404 9.65232878 99.1292505 2.35347821"></polygon>
                <path d="M2.12733477,18.0335548 L0.355304119,18.8094169 L0.0583692529,18.8094169 L0.0583692529,13.9243594 L0.776760057,13.9243594 C1.07036423,16.4962945 3.29529589,18.4081495 5.88212404,18.3113326 C8.15223898,18.3113326 10.2882543,17.3534782 10.2882543,14.9779993 C10.2882543,9.5469648 0.355304119,11.4147809 0.355304119,4.81516403 C0.355304119,1.12742457 3.59285201,0.159991619 5.88212404,0.159991619 C8.65032328,0.159991619 10.8342313,1.35730963 11.7058788,3.32091116 L9.34955699,4.98757783 L9.06220067,4.98757783 C9.16400301,4.6385271 9.22192034,4.27815258 9.23461446,3.91478089 C9.23461446,1.95117936 7.98940374,0.878382423 5.77676006,0.878382423 C3.78442289,0.878382423 2.2422773,2.0469648 2.2422773,3.94351652 C2.2422773,8.73278855 12.2518558,7.50673491 12.2518558,13.6848958 C12.2518558,17.2672713 9.56028496,19.1925587 5.77676006,19.1925587 C4.46356559,19.234736 3.17556513,18.825686 2.12733477,18.0335548 L2.12733477,18.0335548 Z" id="Shape"></path>
                <polygon id="Shape" points="15.230783 2.73661997 14.014308 0.715547174 14.014308 0.495240661 18.7173731 0.495240661 18.7173731 0.715547174 17.7595187 2.73661997 21.8687141 14.7672713 24.4932352 4.98757783 23.152239 0.677232998 23.152239 0.456926485 27.1656489 0.456926485 27.1656489 0.677232998 26.533465 3.07186901 29.7710129 14.7768499 33.7077945 2.77493415 32.4338482 0.753861351 32.4338482 0.533554837 36.1694804 0.533554837 36.1694804 0.753861351 34.8284842 2.77493415 29.2729286 19.1829801 28.7461087 19.1829801 25.0871049 6.85539392 21.6771432 19.1829801 21.0832735 19.1829801"></polygon>
                <path d="M51.9166068,17.5546276 C50.5756106,18.6465817 49.579442,18.8764667 46.7154574,18.7998384 L37.7978329,18.7998384 L37.7978329,18.5795318 L39.3878712,16.4818307 L39.3878712,2.78451269 L37.4721624,0.696390086 L37.4721624,0.476083573 L49.8667984,0.476083573 L50.7671815,4.48949353 L50.3648827,4.48949353 L47.2518558,1.22321001 L41.6292505,1.22321001 L41.6292505,8.27301844 L45.7384459,8.27301844 L47.5296336,6.99907208 L47.7786758,6.99907208 L47.7786758,10.8304897 L47.5296336,10.8304897 L45.7384459,9.11593032 L41.6292505,9.11593032 L41.6292505,18.0335548 L45.9395953,18.0335548 C47.6963409,18.0454101 49.2360711,16.8610023 49.6752275,15.1599916 L51.9166068,17.5546276 Z" id="Shape"></path>
                <path d="M68.2001317,17.5546276 C66.8591355,18.6465817 65.862967,18.8764667 62.9989823,18.7998384 L54.0813578,18.7998384 L54.0813578,18.5795318 L55.6713961,16.4818307 L55.6713961,2.78451269 L53.7556873,0.696390086 L53.7556873,0.476083573 L66.1599018,0.476083573 L67.060285,4.48949353 L66.6579861,4.48949353 L63.5449593,1.22321001 L57.9127754,1.22321001 L57.9127754,8.27301844 L62.0219708,8.27301844 L63.8131585,6.99907208 L64.0622007,6.99907208 L64.0622007,10.8304897 L63.8131585,10.8304897 L62.0219708,9.11593032 L57.9127754,9.11593032 L57.9127754,18.0335548 L62.2231202,18.0335548 C63.9798658,18.0454101 65.519596,16.8610023 65.9587524,15.1599916 L68.2001317,17.5546276 Z" id="Shape"></path>
                <polygon id="Shape" points="74.579442 18.5795318 76.1120091 16.4818307 76.1120091 1.2423671 73.152239 1.2423671 70.0392122 4.60443606 69.6369133 4.60443606 70.4319325 0.495240661 84.033465 0.495240661 84.8284842 4.60443606 84.4261853 4.60443606 81.3131585 1.2423671 78.3533884 1.2423671 78.3533884 16.4818307 79.895534 18.5699533 79.895534 18.7902598 74.579442 18.7902598"></polygon>
                <path d="M114.665649,9.66190733 C114.665649,3.91478089 118.401281,0.150413075 123.726952,0.150413075 C126.140745,0.150413075 130.431932,1.2423671 131.792086,5.28451269 L129.502814,7.3726353 C129.282507,4.97799928 127.587105,0.801754071 123.477909,0.801754071 C119.541128,0.801754071 116.974078,3.83815254 116.974078,8.64658166 C116.974078,14.0776161 119.914691,17.8132483 124.1963,17.8132483 C126.762502,17.948997 129.117046,16.3948421 130.000898,13.9818307 L130.70971,13.9818307 L130.70971,18.7711027 L130.364883,18.7711027 L128.899365,17.6983058 C127.417374,18.7185749 125.638273,19.2172623 123.841894,19.1159303 C118.401281,19.1542445 114.665649,15.2653556 114.665649,9.66190733 Z" id="Shape"></path>
                <polygon id="Shape" points="133.899365 18.5507962 135.297833 16.4818307 135.297833 2.73661997 134.339978 0.744282807 134.339978 0.495240661 138.497067 0.495240661 138.497067 0.744282807 137.539212 2.73661997 137.539212 16.4818307 138.908944 18.5507962 138.908944 18.7998384 133.899365 18.7998384"></polygon>
                <path d="M141.389787,9.66190733 C141.389787,3.91478089 145.125419,0.150413075 150.45109,0.150413075 C152.864883,0.150413075 157.15607,1.2423671 158.516224,5.28451269 L156.226952,7.3726353 C156.006645,4.97799928 154.311243,0.801754071 150.202047,0.801754071 C146.265266,0.801754071 143.698216,3.83815254 143.698216,8.64658166 C143.698216,14.0776161 146.638829,17.8132483 150.920438,17.8132483 C153.487498,17.9521616 155.843757,16.3968756 156.725036,13.9818307 L157.42427,13.9818307 L157.42427,18.7711027 L157.079442,18.7711027 L155.613925,17.73662 C154.131934,18.7568891 152.352833,19.2555764 150.556454,19.1542445 C145.125419,19.1542445 141.389787,15.2653556 141.389787,9.66190733 Z" id="Shape"></path>
                <path d="M174.014308,17.5546276 C172.673312,18.6465817 171.677143,18.8764667 168.813159,18.7998384 L159.92427,18.7998384 L159.92427,18.5795318 L161.495151,16.5105663 L161.495151,2.81324832 L159.579442,0.725125718 L159.579442,0.504819205 L171.983657,0.504819205 L172.88404,4.51822917 L172.481741,4.51822917 L169.368714,1.25194564 L163.73653,1.25194564 L163.73653,8.30175407 L167.845726,8.30175407 L169.636913,7.02780771 L169.885955,7.02780771 L169.885955,10.8592253 L169.636913,10.8592253 L167.845726,9.14466595 L163.73653,9.14466595 L163.73653,18.0622905 L168.066032,18.0622905 C169.822778,18.0741458 171.362508,16.889738 171.801664,15.1887273 L174.014308,17.5546276 Z" id="Shape"></path>
                <path d="M176.332316,18.5795318 L177.644576,16.4818307 L177.644576,2.73661997 L176.246109,0.773018439 L176.246109,0.495240661 L181.274844,0.495240661 L181.274844,0.773018439 L179.876377,2.73661997 L179.876377,18.0048192 L183.267182,18.0048192 C185.039086,18.0431395 186.58237,16.8028569 186.926185,15.0642062 L189.167565,16.7308728 C188.87063,17.8036698 188.075611,18.7998384 183.420438,18.7998384 L176.322737,18.7998384 L176.332316,18.5795318 Z" id="Shape"></path>
                <polygon id="Shape" points="192.098599 18.5795318 193.592852 16.4914092 193.592852 10.1887273 188.113925 0.725125718 188.113925 0.504819205 193.066032 0.504819205 193.066032 0.725125718 191.868714 2.74619852 195.307411 8.81899545 198.947258 2.7653556 197.548791 0.725125718 197.548791 0.504819205 201.313159 0.504819205 201.313159 0.725125718 195.84381 9.77684986 195.84381 16.4818307 197.338063 18.5699533 197.338063 18.7902598 192.108178 18.7902598"></polygon>
            </g>
            <g id="Group-3-Copy-7" transform="translate(58.088671, 16.920636)" fill-rule="nonzero" fill="#344567">
                <path d="M58.1631286,112.919958 C53.9681927,107.913608 49.3642062,103.264767 44.3987608,99.021491 C43.3738566,98.1690006 36.285734,93.7628703 35.4907148,93.7628703 C34.6956957,93.7628703 34.9064237,94.9218741 34.2455041,94.9506098 C33.2876497,94.9506098 32.588416,92.9870082 30.0692589,90.975514 C28.2888785,89.7466273 26.2787426,88.8897947 24.1592972,88.4563569 C22.9045079,88.5138282 23.3355424,90.554058 23.1439715,90.5253224 C22.9524007,90.4965868 23.1439715,89.9601883 22.8949294,89.3950542 C22.7129371,89.0119125 22.0999102,88.5617209 18.450485,86.8854757 C17.0332507,86.264037 15.520599,85.8883033 13.9773049,85.7743646 C13.8240482,85.8605715 13.9773049,86.3203416 13.6612129,86.5023339 C12.9524007,86.9333684 10.3661938,85.4008013 7.26274549,84.2513761 C4.88726657,83.37015 1.10374166,80.9276213 0.912170781,81.3778128 C0.806806796,81.6172764 1.55393323,85.8509929 3.49837768,87.2398818 C4.17845431,87.7283875 6.3719409,88.5138282 6.3719409,89.1555906 C6.3719409,89.7973531 3.59416312,89.0310695 3.44090641,89.3184259 C3.15355009,89.88356 7.19569569,92.613445 6.92749645,93.0732151 C6.65929722,93.5329852 3.48879913,92.7667017 3.21102136,93.1402649 C3.04818611,93.37015 4.06351178,94.5578895 4.42749645,95.0559738 C6.34320526,97.6709163 11.496462,98.3222573 11.4485692,98.5329852 C11.4006765,98.7437132 6.65929722,98.034901 5.54818611,98.5329852 C5.07883745,98.7532918 6.89876082,100.822257 7.46389492,101.473598 C10.0213662,104.433368 16.0845846,105.218809 18.0002934,105.381644 C17.042439,105.381644 15.0692589,105.305016 13.3546995,105.381644 C12.2702948,105.427289 11.1971843,105.620642 10.1650443,105.956357 C9.96389492,106.291606 14.2455041,110.036817 17.8278796,111.090457 C23.7953125,112.824173 26.1037417,114.251376 26.4485692,114.509997 C26.7933968,114.768617 16.5730903,112.737966 16.3144696,113.552142 C16.1612129,114.021491 21.4677263,118.341414 22.6075731,119.021491 C25.0692589,120.525322 31.7550827,118.743713 33.2684926,118.916127 C32.923665,119.538732 29.2167685,122.508081 29.437075,122.939116 C29.7340099,123.676663 54.4658106,136.100035 65.8930137,123.360571 C63.5204295,119.733832 60.9394662,116.247772 58.1631286,112.919958 Z" id="Shape"></path>
                <path d="M75.0788374,112.891223 C79.2737734,107.884872 83.8777599,103.236031 88.8432053,98.9927554 C89.8681095,98.1402649 96.9562321,93.7341347 97.7512512,93.7341347 C98.5462704,93.7341347 98.3355424,94.8931385 98.996462,94.9218741 C99.9543164,94.9218741 100.65355,92.9582726 103.172707,90.9467784 C104.953088,89.7178917 106.963224,88.861059 109.082669,88.4276213 C110.337458,88.4850925 109.906424,90.5253224 110.097995,90.4965868 C110.289565,90.4678511 110.097995,89.9314527 110.347037,89.3663186 C110.529029,88.9831768 111.142056,88.5329852 114.791481,86.85674 C116.196727,86.2394894 117.696073,85.8638432 119.226347,85.7456289 C119.379604,85.8318358 119.226347,86.2916059 119.542439,86.4735983 C120.251251,86.9046328 122.837458,85.3720657 125.940906,84.2226404 C128.316385,83.3414144 132.09991,80.8988856 132.291481,81.3490772 C132.396845,81.5885408 131.649719,85.8222573 129.705274,87.2111462 C129.025198,87.6996519 126.831711,88.4850925 126.831711,89.126855 C126.831711,89.7686174 129.638224,89.0406481 129.772324,89.2896902 C130.05968,89.8548243 126.017535,92.5847094 126.285734,93.0444795 C126.553933,93.5042496 129.724431,92.7379661 130.002209,93.1115293 C130.165044,93.3414144 129.149719,94.5291538 128.785734,95.0272381 C126.870025,97.6421807 121.716768,98.2935216 121.764661,98.5042496 C121.812554,98.7149776 126.553933,98.0061653 127.665044,98.5042496 C128.134393,98.7245561 126.31447,100.793522 125.749336,101.444863 C123.191864,104.404633 117.128646,105.190073 115.212937,105.352909 C116.170791,105.352909 118.143972,105.27628 119.858531,105.352909 C120.942936,105.398554 122.016046,105.591907 123.048186,105.927621 C123.249336,106.26287 118.967726,110.008081 115.385351,111.061721 C109.417918,112.795437 107.109489,114.22264 106.764661,114.481261 C106.419834,114.739882 116.64014,112.70923 116.898761,113.523407 C117.052018,113.992755 111.745504,118.312679 110.605657,118.992755 C108.143972,120.496587 101.458148,118.714978 99.9447378,118.887391 C100.289565,119.509997 103.996462,122.479345 103.776155,122.91038 C103.479221,123.647928 78.7474198,136.071299 67.3202168,123.331836 C69.7020992,119.70435 72.2926687,116.218275 75.0788374,112.891223 L75.0788374,112.891223 Z" id="Shape"></path>
                <path d="M90.8355424,75.5157439 C88.8399069,76.8781018 86.7350338,78.0731058 84.542439,79.0885408 C84.7244313,78.7916059 89.4849677,71.2341347 90.2895654,67.2973531 C90.8819773,64.325157 91.0464763,61.2835374 90.7780712,58.264786 C90.7360086,57.9833814 90.5517019,57.7436068 90.2905816,57.6305846 C90.0294613,57.5175624 89.7285017,57.5472963 89.4945463,57.7092305 C88.4409064,58.4563569 85.5386076,60.9850925 84.226347,61.3394987 C84.2742397,60.7552075 85.969642,55.3433301 85.7110214,51.3778128 C85.5481861,48.9065485 84.6286459,46.4448626 84.5137033,44.8069316 C84.5246294,44.454276 84.3147603,44.1321299 83.9877635,43.9996214 C83.6607668,43.8671129 83.2858412,43.9522834 83.0481861,44.2130619 C82.7743736,44.5171946 82.5185123,44.8370213 82.2819026,45.1709163 C81.8796037,45.764786 80.7301784,47.4889239 80.3661938,48.1115293 C80.3661938,48.0157439 81.8125539,40.6498435 81.3240482,37.0578895 C81.1324773,35.7073148 80.8738566,34.1843262 80.7301784,33.2935216 C80.7170807,33.1500202 80.6315751,33.0231569 80.5034757,32.9571663 C80.3753762,32.8911757 80.2224407,32.8952057 80.0979945,32.9678511 L76.2665769,35.9563569 C76.2665769,35.9563569 77.8853509,31.6747477 77.8949294,28.8203416 C77.7289706,26.4525134 77.3928537,24.0996952 76.8891823,21.7801117 C76.8791885,21.6022258 76.7559518,21.4509323 76.5837651,21.4051611 C76.4115784,21.35939 76.2294826,21.4295192 76.1324773,21.5789623 L71.5635118,23.9257056 C72.5205052,22.5656447 72.8675969,20.8683664 72.5213662,19.2417975 C71.3336267,13.2168933 68.4313279,4.14601207 67.377688,0.745628927 C67.3398788,0.625105001 67.2476578,0.529336984 67.1286459,0.487008237 L67.0520175,0.534900958 L66.9753892,0.487008237 L66.8987608,0.534900958 L66.8221325,0.487008237 C66.7031206,0.529336984 66.6108995,0.625105001 66.5730903,0.745628927 C65.5194505,4.14601207 62.6171516,13.1977362 61.4294122,19.2417975 C61.0831815,20.8683664 61.4302731,22.5656447 62.3872666,23.9257056 L57.818301,21.5789623 C57.7212957,21.4295192 57.5391999,21.35939 57.3670132,21.4051611 C57.1948265,21.4509323 57.0715899,21.6022258 57.0615961,21.7801117 C56.5579247,24.0996952 56.2218078,26.4525134 56.0558489,28.8203416 C56.0558489,31.6939048 57.6842014,35.9563569 57.6842014,35.9563569 L53.8527838,32.9678511 C53.7283376,32.8952057 53.5754021,32.8911757 53.4473027,32.9571663 C53.3192033,33.0231569 53.2336977,33.1500202 53.2205999,33.2935216 C53.0769217,34.1555906 52.818301,35.7073148 52.6267302,37.0578895 C52.1190673,40.6498435 53.5845846,48.0157439 53.5845846,48.1115293 C53.2301784,47.4985025 52.0807532,45.7743646 51.6688758,45.1709163 C51.4322661,44.8370213 51.1764047,44.5171946 50.9025922,44.2130619 C50.6649371,43.9522834 50.2900116,43.8671129 49.9630148,43.9996214 C49.6360181,44.1321299 49.426149,44.454276 49.437075,44.8069316 C49.3221325,46.4352841 48.4025922,48.8969699 48.239757,51.3778128 C47.9811363,55.3433301 49.6765386,60.7552075 49.7244313,61.3394987 C48.4121708,60.9850925 45.5098719,58.4659354 44.4562321,57.7092305 C44.2222766,57.5472963 43.921317,57.5175624 43.6601967,57.6305846 C43.3990764,57.7436068 43.2147697,57.9833814 43.1727072,58.264786 C42.8799909,61.276726 43.0186819,64.3150284 43.5845846,67.2877745 C44.3700252,71.2245561 49.1401401,78.7820274 49.331711,79.0789623 C47.1391162,78.0635273 45.0342431,76.8685232 43.0386076,75.5061653 C38.7091056,72.3069316 35.1650443,73.034901 35.1650443,73.034901 C35.1650443,73.034901 36.2282627,83.5042496 37.8278796,86.0234067 C43.575006,95.0655523 55.4811363,95.6690006 62.5213662,106.425706 C64.0635118,108.782027 65.0979945,135.161338 65.2704083,141.732219 C65.2204124,142.258503 65.6062414,142.725784 66.1324773,142.77628 L67.7320942,142.77628 C68.25833,142.725784 68.6441591,142.258503 68.5941631,141.732219 C68.7761555,135.132602 69.8010597,108.782027 71.3432053,106.425706 C78.3834351,95.6690006 90.299144,95.0655523 96.0366919,86.0234067 C97.6363087,83.5042496 98.6995271,73.034901 98.6995271,73.034901 C98.6995271,73.034901 95.1554658,72.3069316 90.8355424,75.5157439 Z" id="Shape"></path>
            </g>
        </g>
    </g>
</svg>