<?xml version="1.0" encoding="UTF-8"?>
<svg width="250px" height="250px" viewBox="0 0 250 250" version="1.1" xmlns="http://www.w3.org/2000/svg" xmlns:xlink="http://www.w3.org/1999/xlink">
    <!-- Generator: Sketch 43.2 (39069) - http://www.bohemiancoding.com/sketch -->
    <title>Wild-Violet-Small</title>
    <desc>Created with Sketch.</desc>
    <defs></defs>
    <g id="Page-2" stroke="none" stroke-width="1" fill="none" fill-rule="evenodd">
        <g id="Wild-Violet-Small">
            <rect id="Rectangle-3-Copy-6" fill="#EBD9D1" x="27.5887811" y="30.0624987" width="194.179389" height="194.179389"></rect>
            <g id="Group-8-Copy-12" transform="translate(5.021987, 19.595705)" fill-rule="nonzero">
                <ellipse id="Oval" fill="#FFFFFF" cx="119.657473" cy="64.5315184" rx="18.105916" ry="11.1889313"></ellipse>
                <path d="M227.841633,16.784381 C244.939915,23.5964039 240.353083,45.5124344 223.769114,44.0744573 C229.132663,57.0372436 203.889343,65.0143428 195.891251,49.0286558 C188.764343,34.7958313 194.390297,18.1488848 196.195641,16.4904878 C198.000984,14.8320909 212.611671,10.7175871 227.841633,16.784381 Z" id="Shape" fill="#344567"></path>
                <path d="M11.630755,16.784381 C-5.46752743,23.5964039 -0.880695372,45.5124344 15.7032741,44.0744573 C10.3397245,56.9952588 35.5830451,64.9723581 43.5811367,49.0286558 C50.7080451,34.7958313 45.0820909,18.1488848 43.2767474,16.4904878 C41.4714039,14.8320909 26.8502207,10.7175871 11.630755,16.784381 Z" id="Shape" fill="#344567"></path>
                <path d="M115.175602,10.0878161 C127.66606,19.7338084 133.103083,44.399839 124.160335,54.8540375 C114.79774,65.8015565 91.0448771,59.6927779 81.5878161,47.9265565 C78.260526,43.7805642 76.8960222,37.5458313 74.1775107,25.0763657 C71.3225489,12.0401062 69.9790375,5.4485031 73.4007932,2.08972448 C77.0219764,-1.45798545 83.8864802,0.179419132 94.9494573,2.84544967 C105.267205,5.27006799 110.462816,6.45613669 115.175602,10.0878161 Z" id="Shape" fill="#344567"></path>
                <path d="M127.634572,10.0878161 C115.144114,19.7338084 109.707091,44.399839 118.649839,54.8540375 C128.012434,65.8015565 151.765297,59.6927779 161.222358,47.9265565 C164.549648,43.7805642 165.914152,37.5458313 168.632663,25.0763657 C171.487625,12.0401062 172.831137,5.4485031 169.409381,2.08972448 C165.788198,-1.45798545 158.913198,0.179419132 147.860717,2.81396112 C137.542969,5.27006799 132.336862,6.45613669 127.634572,10.0878161 Z" id="Shape" fill="#344567"></path>
                <path d="M120.896022,60.4275107 C106.558236,58.9370527 93.6689229,81.1469764 95.0229306,97.164152 C95.4952588,102.790106 98.8435413,108.583999 105.519114,120.150793 C112.509572,132.252892 116.099266,138.30919 120.896022,138.351175 C125.965679,138.351175 129.775793,132.053465 135.926557,121.903656 C141.667969,112.40461 144.585908,107.660335 145.457091,101.40461 C147.776747,84.7786558 134.583045,61.8444955 120.896022,60.4275107 Z" id="Shape" fill="#344567"></path>
                <path d="M174.961862,56.774839 C163.332091,46.1107168 138.099266,44.9666329 129.313961,55.5572817 C120.119305,66.6517474 130.195641,89.0191138 143.410335,96.3244573 C148.060144,98.8960222 154.431328,99.1794191 167.18419,99.7357168 C180.514343,100.323503 187.242396,100.533427 189.960908,96.5868619 C192.836862,92.3883886 190.055373,85.9332359 185.573503,75.4790375 C181.396022,65.7175871 179.33877,60.7948771 174.961862,56.774839 Z" id="Shape" fill="#344567"></path>
                <path d="M64.510526,56.774839 C76.140297,46.1107168 101.373121,44.9666329 110.158427,55.5572817 C119.353083,66.6517474 109.276747,89.0191138 96.0620527,96.3244573 C91.4122436,98.8960222 85.0410604,99.1794191 72.2881978,99.7357168 C58.9580451,100.323503 52.2299917,100.533427 49.5114802,96.5868619 C46.635526,92.3883886 49.4170146,85.9332359 53.8988848,75.4790375 C58.0763657,65.7175871 60.1231214,60.7948771 64.510526,56.774839 Z" id="Shape" fill="#344567"></path>
                <path d="M119.090679,53.5735031 L110.084953,61.9704497 C109.44355,62.4367848 109.176378,63.2637455 109.423694,64.0172054 L112.792969,74.5868619 C113.038933,75.3402971 113.742772,75.8490963 114.535335,75.8464039 L125.671786,75.8464039 C126.464348,75.8490963 127.168187,75.3402971 127.414152,74.5868619 L130.8569,63.996213 C131.104216,63.2427531 130.837044,62.4157924 130.195641,61.9494573 L121.189915,53.5525107 C120.555656,53.1164564 119.716091,53.124852 119.090679,53.5735031 L119.090679,53.5735031 Z" id="Shape" fill="#FFFFFF"></path>
                <path d="M118.355946,70.0210222 L113.107854,78.5754115 C112.708591,79.2226748 112.690619,80.03526 113.060875,80.6995427 C113.431131,81.3638254 114.131705,81.7759094 114.892205,81.7767474 L125.388389,81.7767474 C126.148889,81.7759094 126.849463,81.3638254 127.219719,80.6995427 C127.589975,80.03526 127.572003,79.2226748 127.17274,78.5754115 L121.924648,70.0210222 C121.541875,69.4033912 120.866922,69.0276271 120.140297,69.0276271 C119.413672,69.0276271 118.738719,69.4033912 118.355946,70.0210222 Z" id="Shape" fill="#344567"></path>
                <path d="M121.126938,79.5935413 C120.854867,79.1234035 120.352854,78.833906 119.809667,78.833906 C119.26648,78.833906 118.764467,79.1234035 118.492396,79.5935413 C118.492396,79.5935413 115.679419,83.0992665 115.689915,84.5162512 C115.700411,85.9332359 118.534381,89.4389611 118.534381,89.4389611 C118.806452,89.9090989 119.308465,90.1985964 119.851652,90.1985964 C120.394839,90.1985964 120.896852,89.9090989 121.168923,89.4389611 C121.168923,89.4389611 123.939915,85.7757932 123.908427,84.3273199 C123.876938,82.8788466 121.126938,79.5935413 121.126938,79.5935413 Z" id="Shape" fill="#FFFFFF"></path>
            </g>
            <g id="Group-6-Copy-7" transform="translate(43.333056, 177.207687)" fill-rule="nonzero" fill="#344567">
                <path d="M15.5983123,0.620258826 C15.8292283,0.620258826 15.9656787,0.714724475 15.9656787,0.956136689 C15.9656787,1.3864802 15.0000298,2.3836176 15.1994573,3.27579318 C15.6298008,5.22808325 18.7786558,17.4666329 18.7786558,17.4666329 C18.7786558,17.4666329 18.8416329,17.6660604 18.9465947,17.6660604 C19.0515565,17.6660604 19.1145336,17.4666329 19.1145336,17.4666329 C19.1145336,17.4666329 21.2977397,5.50098402 21.5286558,3.44373211 C21.6336176,2.61453364 20.0696863,1.260526 20.0696863,0.956136689 C20.0696863,0.651747376 20.2061367,0.620258826 20.4370527,0.620258826 L26.2729306,0.620258826 C26.5038466,0.620258826 26.640297,0.714724475 26.640297,0.956136689 C26.640297,1.3864802 25.3177779,2.00575501 25.0448771,3.41224356 L20.9618619,22.9981214 C20.7309458,23.890297 21.7280833,24.8874344 21.7280833,25.3177779 C21.7280833,25.5486939 21.5916329,25.6536558 21.3607168,25.6536558 L16.5954497,25.6536558 C16.3645336,25.6536558 16.2280833,25.5591901 16.2280833,25.3177779 C16.2280833,24.8874344 17.1937321,23.890297 16.9943046,22.9981214 L13.5095718,9.56300692 C13.5095718,9.56300692 13.5095718,9.36357944 13.3731214,9.36357944 C13.236671,9.36357944 13.236671,9.56300692 13.236671,9.56300692 L9.7624344,22.9981214 C9.56300692,23.890297 10.5286558,24.8874344 10.5286558,25.3177779 C10.5286558,25.5486939 10.3922054,25.6536558 10.1612894,25.6536558 L5.385526,25.6536558 C5.15460997,25.6536558 5.01815959,25.5591901 5.01815959,25.3177779 C5.01815959,24.8874344 6.01529699,23.890297 5.78438096,22.9981214 L1.71186188,3.40174738 C1.34449547,2.04773974 0.116442032,1.37598402 0.116442032,0.945640506 C0.116442032,0.714724475 0.252892414,0.609762643 0.483808445,0.609762643 L6.31968631,0.609762643 C6.55060234,0.609762643 6.68705272,0.704228292 6.68705272,0.945640506 C6.68705272,1.18705272 5.1336176,2.60403745 5.22808325,3.43323593 C5.45899928,5.53247257 7.97808325,17.4561367 7.97808325,17.4561367 C7.97808325,17.4561367 8.04106035,17.6555642 8.14602219,17.6555642 C8.25098402,17.6555642 8.31396112,17.4561367 8.31396112,17.4561367 C8.31396112,17.4561367 11.1269382,5.22808325 11.5572817,3.26529699 C11.7567092,2.37312142 10.7910604,1.37598402 10.7910604,0.945640506 C10.7910604,0.714724475 10.9275107,0.609762643 11.1584268,0.609762643 L15.5983123,0.620258826 Z" id="Shape"></path>
                <path d="M33.2004115,22.9981214 C33.2004115,23.9637703 34.6278924,24.8874344 34.6278924,25.3177779 C34.6278924,25.5486939 34.491442,25.6536558 34.260526,25.6536558 L28.8235031,25.6536558 C28.5925871,25.6536558 28.4561367,25.5591901 28.4561367,25.3177779 C28.4561367,24.8874344 29.8836176,23.9637703 29.8836176,22.9981214 L29.8836176,3.26529699 C29.8836176,2.29964814 28.4561367,1.37598402 28.4561367,0.945640506 C28.4561367,0.714724475 28.5925871,0.609762643 28.8235031,0.609762643 L34.260526,0.609762643 C34.491442,0.609762643 34.6278924,0.704228292 34.6278924,0.945640506 C34.6278924,1.37598402 33.2004115,2.29964814 33.2004115,3.26529699 L33.2004115,22.9981214 Z" id="Shape"></path>
                <path d="M44.8406787,22.9981214 C45.2034448,22.9756049 45.482506,22.6686375 45.4704497,22.3053733 L45.4704497,20.1221672 C45.4704497,19.5553733 45.5649153,19.3244573 45.8063275,19.1565184 C46.607434,18.5439067 47.4609198,18.0030144 48.3569,17.5401062 C48.6507932,17.5401062 48.7872436,17.7080451 48.7872436,18.0019382 L48.7872436,24.6985031 C48.7872436,25.2967855 48.4828542,25.6221672 47.7901062,25.6221672 L37.1469764,25.6221672 C36.9160604,25.6221672 36.77961,25.5277016 36.77961,25.2862894 C36.77961,24.8559458 38.2070909,23.9322817 38.2070909,22.9666329 L38.2070909,3.26529699 C38.2070909,2.29964814 36.77961,1.37598402 36.77961,0.945640506 C36.77961,0.714724475 36.9160604,0.609762643 37.1469764,0.609762643 L42.5839993,0.609762643 C42.8149153,0.609762643 42.9513657,0.704228292 42.9513657,0.945640506 C42.9513657,1.37598402 41.5238848,2.29964814 41.5238848,3.26529699 L41.5238848,22.2633886 C41.5238848,22.7567092 41.7233123,22.9876252 42.2166329,22.9876252 L44.8406787,22.9981214 Z" id="Shape"></path>
                <path d="M64.5630069,23.5229306 C64.5630069,24.8769382 63.5133886,25.6221672 61.9809458,25.6221672 L51.4847626,25.6221672 C51.2538466,25.6221672 51.1173962,25.5277016 51.1173962,25.2862894 C51.1173962,24.8559458 52.5448771,23.9322817 52.5448771,22.9666329 L52.5448771,3.26529699 C52.5448771,2.29964814 51.1173962,1.37598402 51.1173962,0.945640506 C51.1173962,0.714724475 51.2538466,0.609762643 51.4847626,0.609762643 L61.52961,0.609762643 C63.5238848,0.609762643 64.5839993,1.43896112 64.5839993,3.35976264 L64.5630069,23.5229306 Z M61.246213,4.29392295 C61.246213,3.52770157 60.9838084,3.24430463 60.1965947,3.24430463 L56.3864802,3.24430463 C56.2229063,3.25496888 56.0705449,3.33114749 55.9638664,3.4556057 C55.857188,3.58006391 55.8052079,3.74228368 55.8196863,3.90556417 L55.8196863,22.4418237 C55.8044638,22.5805455 55.8500084,22.7190687 55.9445819,22.8216909 C56.0391554,22.9243132 56.1735059,22.9809956 56.3130069,22.9771291 L60.1965947,22.9771291 C60.4860547,23.0202268 60.7788136,22.9236004 60.985749,22.716665 C61.1926844,22.5097296 61.2893108,22.2169708 61.246213,21.9275107 L61.246213,4.29392295 Z" id="Shape"></path>
                <path d="M88.0429688,3.40174738 L88.0429688,3.23380844 C88.0429688,2.43609852 86.8778924,1.20804509 86.8778924,0.945640506 C86.8778924,0.683235926 87.0143428,0.609762643 87.2452588,0.609762643 L92.8502207,0.609762643 C93.0811367,0.609762643 93.2175871,0.704228292 93.2175871,0.945640506 C93.2175871,1.37598402 91.9580451,1.99525883 91.6221672,3.40174738 L86.7204497,22.9981214 C86.7043949,23.095428 86.7043949,23.194708 86.7204497,23.2920146 C86.7204497,24.121213 87.5181596,24.9189229 87.5181596,25.3177779 C87.5181596,25.5486939 87.3817092,25.6536558 87.1507932,25.6536558 L81.7137703,25.6536558 C81.4828542,25.6536558 81.3464039,25.5591901 81.3464039,25.3177779 C81.3464039,24.9189229 82.1441138,24.121213 82.1441138,23.2920146 C82.1597989,23.194678 82.1597989,23.095458 82.1441138,22.9981214 L77.1059458,3.40174738 C76.770068,2.04773974 75.510526,1.37598402 75.510526,0.945640506 C75.510526,0.714724475 75.6469764,0.609762643 75.8778924,0.609762643 L81.3778924,0.609762643 C81.6088084,0.609762643 81.7452588,0.704228292 81.7452588,0.945640506 C81.7452588,1.18705272 80.5801825,2.43609852 80.5801825,3.23380844 L80.5801825,3.40174738 C81.0420146,5.35403745 84.1278924,18.621213 84.1278924,18.621213 C84.1278924,18.621213 84.1908695,18.8206405 84.2958313,18.8206405 C84.4007932,18.8206405 84.4637703,18.621213 84.4637703,18.621213 C84.4637703,18.621213 87.6021291,5.35403745 88.0429688,3.40174738 Z" id="Shape"></path>
                <path d="M99.746213,22.9981214 C99.746213,23.9637703 101.173694,24.8874344 101.173694,25.3177779 C101.173694,25.5486939 101.037244,25.6536558 100.806328,25.6536558 L95.3693046,25.6536558 C95.1383886,25.6536558 95.0019382,25.5591901 95.0019382,25.3177779 C95.0019382,24.8874344 96.4294191,23.9637703 96.4294191,22.9981214 L96.4294191,3.26529699 C96.4294191,2.29964814 95.0019382,1.37598402 95.0019382,0.945640506 C95.0019382,0.714724475 95.1383886,0.609762643 95.3693046,0.609762643 L100.806328,0.609762643 C101.037244,0.609762643 101.173694,0.704228292 101.173694,0.945640506 C101.173694,1.37598402 99.746213,2.29964814 99.746213,3.26529699 L99.746213,22.9981214 Z" id="Shape"></path>
                <path d="M113.443732,25.6431596 L106.915106,25.6431596 C105.361671,25.6431596 104.333045,24.8769382 104.333045,23.5439229 L104.333045,2.74048783 C104.333045,1.3864802 105.382663,0.641251193 106.915106,0.641251193 L113.443732,0.641251193 C114.825115,0.526108934 116.039968,1.54864939 116.162244,2.92941913 L116.162244,23.3864802 C116.023891,24.7546069 114.813948,25.7589997 113.443732,25.6431596 Z M112.215679,3.26529699 L108.332091,3.26529699 C107.83877,3.26529699 107.639343,3.49621302 107.639343,3.98953364 L107.639343,22.2528924 C107.639343,22.746213 107.83877,22.9771291 108.332091,22.9771291 L112.215679,22.9771291 C112.578445,22.9546126 112.857506,22.6476451 112.84545,22.284381 L112.84545,3.96854127 C112.863378,3.60127237 112.582693,3.28784132 112.215679,3.26529699 L112.215679,3.26529699 Z" id="Shape"></path>
                <path d="M127.204228,22.9981214 C127.566994,22.9756049 127.846056,22.6686375 127.833999,22.3053733 L127.833999,20.1221672 C127.833999,19.5553733 127.928465,19.3244573 128.169877,19.1565184 C128.971571,18.5508486 129.82506,18.0169785 130.72045,17.5610985 C131.014343,17.5610985 131.150793,17.7290375 131.150793,18.0229306 L131.150793,24.7194955 C131.150793,25.3177779 130.8569,25.6431596 130.153656,25.6431596 L119.510526,25.6431596 C119.27961,25.6431596 119.14316,25.5486939 119.14316,25.3072817 C119.14316,24.8769382 120.570641,23.9532741 120.570641,22.9876252 L120.570641,3.26529699 C120.570641,2.29964814 119.14316,1.37598402 119.14316,0.945640506 C119.14316,0.714724475 119.27961,0.609762643 119.510526,0.609762643 L124.947549,0.609762643 C125.178465,0.609762643 125.314915,0.704228292 125.314915,0.945640506 C125.314915,1.37598402 123.887434,2.29964814 123.887434,3.26529699 L123.887434,22.2633886 C123.887434,22.7567092 124.086862,22.9876252 124.580182,22.9876252 L127.204228,22.9981214 Z" id="Shape"></path>
                <path d="M143.147931,3.89506799 C143.162409,3.7317875 143.110429,3.56956773 143.00375,3.44510952 C142.897072,3.32065131 142.744711,3.24447269 142.581137,3.23380844 L138.66606,3.23380844 C138.372167,3.23380844 138.204228,3.40174738 138.204228,3.76911379 L138.204228,13.7824726 L142.402702,11.2319 C142.605874,11.069987 142.842496,10.9552608 143.09545,10.8960222 C143.294877,10.8960222 143.389343,11.0954497 143.389343,11.3263657 L143.389343,13.9819 C143.389343,14.380755 143.158427,14.5486939 142.696595,14.8425871 L138.183236,17.5610985 L138.183236,22.4313275 C138.168013,22.5700494 138.213558,22.7085725 138.308132,22.8111947 C138.402705,22.913817 138.537056,22.9704994 138.676557,22.9666329 L142.486671,22.9666329 C142.849437,22.9441164 143.128498,22.637149 143.116442,22.2738848 L143.116442,20.0906787 C143.116442,19.5238848 143.221404,19.2929687 143.45232,19.1250298 C144.261287,18.5790252 145.114443,18.1015387 146.002892,17.6975489 C146.296786,17.6975489 146.433236,17.8654878 146.433236,18.159381 L146.433236,24.6880069 C146.433236,25.2862894 146.139343,25.611671 145.436099,25.611671 L133.785335,25.611671 C133.554419,25.611671 133.417969,25.5172054 133.417969,25.2757932 C133.417969,24.8454497 134.84545,23.9217855 134.84545,22.9561367 L134.84545,3.26529699 C134.84545,2.29964814 133.417969,1.37598402 133.417969,0.945640506 C133.417969,0.714724475 133.554419,0.609762643 133.785335,0.609762643 L145.436099,0.609762643 C146.170831,0.609762643 146.485717,0.945640506 146.485717,1.40747257 L146.485717,5.15460997 C146.485717,5.72140386 146.391251,5.9523199 146.149839,6.12025883 C145.348084,6.72583902 144.494602,7.25970401 143.599266,7.71567867 C143.305373,7.71567867 143.168923,7.54773974 143.168923,7.25384661 L143.147931,3.89506799 Z" id="Shape"></path>
                <path d="M158.535335,0.945640506 C159.500984,0.945640506 160.917969,0.609762643 161.348312,0.609762643 C161.579228,0.609762643 161.68419,0.746213025 161.68419,0.977129055 L161.68419,5.17560234 C161.68419,5.40651837 161.589724,5.54296875 161.348312,5.54296875 C161.1069,5.54296875 160.917969,5.24907562 160.08877,4.28342677 C159.553465,3.65365577 158.734763,3.59067867 157.370259,3.59067867 C157.219071,3.58779812 157.073225,3.64658827 156.9663,3.75351356 C156.859375,3.86043885 156.800584,4.00628481 156.803465,4.15747257 L156.803465,23.0506023 C156.803465,24.0162512 158.230946,24.9399153 158.230946,25.3702588 C158.230946,25.6011749 158.094495,25.7061367 157.863579,25.7061367 L152.426557,25.7061367 C152.195641,25.7061367 152.05919,25.611671 152.05919,25.3702588 C152.05919,24.9399153 153.486671,24.0162512 153.486671,23.0506023 L153.486671,4.15747257 C153.489552,4.00628481 153.430761,3.86043885 153.323836,3.75351356 C153.216911,3.64658827 153.071065,3.58779812 152.919877,3.59067867 C151.555373,3.59067867 150.726175,3.65365577 150.201366,4.28342677 C149.372167,5.24907562 149.151747,5.54296875 148.941824,5.54296875 C148.7319,5.54296875 148.605946,5.40651837 148.605946,5.17560234 L148.605946,0.977129055 C148.605946,0.746213025 148.710908,0.609762643 148.941824,0.609762643 C149.372167,0.609762643 150.799648,0.945640506 151.765297,0.945640506 L158.535335,0.945640506 Z" id="Shape"></path>
            </g>
        </g>
    </g>
</svg>