<svg xmlns="http://www.w3.org/2000/svg" width="251.98" height="190.52" viewBox="0 0 251.98 190.52"><title>wild-violet</title><path d="M63.4,162.88c.22,0,.35.09.35.32,0,.41-.92,1.36-.73,2.21.41,1.86,3.41,13.52,3.41,13.52s.06.19.16.19.16-.19.16-.19,2.08-11.4,2.3-13.36c.1-.79-1.39-2.08-1.39-2.37s.13-.32.35-.32h5.56c.22,0,.35.09.35.32,0,.41-1.26,1-1.52,2.34L68.51,184.2c-.22.85.73,1.8.73,2.21,0,.22-.13.32-.35.32H64.35c-.22,0-.35-.09-.35-.32,0-.41.92-1.36.73-2.21L61.41,171.4s0-.19-.13-.19-.13.19-.13.19L57.84,184.2c-.19.85.73,1.8.73,2.21,0,.22-.13.32-.35.32H53.67c-.22,0-.35-.09-.35-.32,0-.41.95-1.36.73-2.21l-3.88-18.67c-.35-1.29-1.52-1.93-1.52-2.34,0-.22.13-.32.35-.32h5.56c.22,0,.35.09.35.32s-1.48,1.58-1.39,2.37c.22,2,2.62,13.36,2.62,13.36s.06.19.16.19.16-.19.16-.19,2.68-11.65,3.09-13.52c.19-.85-.73-1.8-.73-2.21,0-.22.13-.32.35-.32Z" fill="#273C82"/><path d="M80.17,184.2c0,.92,1.36,1.8,1.36,2.21,0,.22-.13.32-.35.32H76c-.22,0-.35-.09-.35-.32,0-.41,1.36-1.29,1.36-2.21V165.4c0-.92-1.36-1.8-1.36-2.21,0-.22.13-.32.35-.32h5.18c.22,0,.35.09.35.32,0,.41-1.36,1.29-1.36,2.21Z" fill="#273C82"/><path d="M91.26,184.2a.64.64,0,0,0,.6-.66v-2.08c0-.54.09-.76.32-.92A16.37,16.37,0,0,1,94.61,179c.28,0,.41.16.41.44v6.38c0,.57-.29.88-.95.88H83.93c-.22,0-.35-.09-.35-.32,0-.41,1.36-1.29,1.36-2.21V165.4c0-.92-1.36-1.8-1.36-2.21,0-.22.13-.32.35-.32h5.18c.22,0,.35.09.35.32,0,.41-1.36,1.29-1.36,2.21v18.1c0,.47.19.69.66.69Z" fill="#273C82"/><path d="M110.05,184.7c0,1.29-1,2-2.46,2h-10c-.22,0-.35-.09-.35-.32,0-.41,1.36-1.29,1.36-2.21V165.4c0-.92-1.36-1.8-1.36-2.21,0-.22.13-.32.35-.32h9.57c1.9,0,2.91.79,2.91,2.62Zm-3.16-18.32c0-.73-.25-1-1-1h-3.63a.58.58,0,0,0-.54.63v17.66a.46.46,0,0,0,.47.51h3.7a.88.88,0,0,0,1-1Z" fill="#273C82"/><path d="M132.42,165.53c0-.06,0-.09,0-.16,0-.76-1.11-1.93-1.11-2.18s.13-.32.35-.32H137c.22,0,.35.09.35.32,0,.41-1.2,1-1.52,2.34l-4.67,18.67a.86.86,0,0,0,0,.28c0,.79.76,1.55.76,1.93,0,.22-.13.32-.35.32h-5.18c-.22,0-.35-.09-.35-.32,0-.38.76-1.14.76-1.93a.88.88,0,0,0,0-.28L122,165.53c-.32-1.29-1.52-1.93-1.52-2.34,0-.22.13-.32.35-.32h5.24c.22,0,.35.09.35.32s-1.11,1.42-1.11,2.18c0,.06,0,.09,0,.16.44,1.86,3.38,14.5,3.38,14.5s.06.19.16.19.16-.19.16-.19S132,167.39,132.42,165.53Z" fill="#273C82"/><path d="M143.57,184.2c0,.92,1.36,1.8,1.36,2.21,0,.22-.13.32-.35.32H139.4c-.22,0-.35-.09-.35-.32,0-.41,1.36-1.29,1.36-2.21V165.4c0-.92-1.36-1.8-1.36-2.21,0-.22.13-.32.35-.32h5.18c.22,0,.35.09.35.32,0,.41-1.36,1.29-1.36,2.21Z" fill="#273C82"/><path d="M156.62,186.72H150.4c-1.48,0-2.46-.73-2.46-2V164.9c0-1.29,1-2,2.46-2h6.22a2.4,2.4,0,0,1,2.59,2.18v19.49A2.4,2.4,0,0,1,156.62,186.72Zm-1.17-21.32h-3.7c-.47,0-.66.22-.66.69v17.4c0,.47.19.69.66.69h3.7a.64.64,0,0,0,.6-.66V166.07A.64.64,0,0,0,155.45,165.4Z" fill="#273C82"/><path d="M169.73,184.2a.64.64,0,0,0,.6-.66v-2.08c0-.54.09-.76.32-.92a16.3,16.3,0,0,1,2.43-1.52c.28,0,.41.16.41.44v6.38c0,.57-.28.88-.95.88H162.4c-.22,0-.35-.09-.35-.32,0-.41,1.36-1.29,1.36-2.21V165.4c0-.92-1.36-1.8-1.36-2.21,0-.22.13-.32.35-.32h5.18c.22,0,.35.09.35.32,0,.41-1.36,1.29-1.36,2.21v18.1c0,.47.19.69.66.69Z" fill="#273C82"/><path d="M184.92,166a.58.58,0,0,0-.54-.63h-3.73c-.28,0-.44.16-.44.51v9.54l4-2.43a1.67,1.67,0,0,1,.66-.32c.19,0,.28.19.28.41v2.53c0,.38-.22.54-.66.82l-4.3,2.59v4.64a.46.46,0,0,0,.47.51h3.63a.64.64,0,0,0,.6-.66v-2.08c0-.54.1-.76.32-.92a16.7,16.7,0,0,1,2.43-1.36c.28,0,.41.16.41.44v6.22c0,.57-.28.88-.95.88H176c-.22,0-.35-.09-.35-.32,0-.41,1.36-1.29,1.36-2.21V165.4c0-.92-1.36-1.8-1.36-2.21,0-.22.13-.32.35-.32H187.1c.7,0,1,.32,1,.76v3.57c0,.54-.09.76-.32.92a16.32,16.32,0,0,1-2.43,1.52c-.28,0-.41-.16-.41-.44Z" fill="#273C82"/><path d="M199.58,163.19c.92,0,2.27-.32,2.68-.32.22,0,.32.13.32.35v4c0,.22-.09.35-.32.35s-.41-.28-1.2-1.2c-.51-.6-1.29-.66-2.59-.66a.53.53,0,0,0-.54.54v18c0,.92,1.36,1.8,1.36,2.21,0,.22-.13.32-.35.32h-5.18c-.22,0-.35-.09-.35-.32,0-.41,1.36-1.29,1.36-2.21v-18a.53.53,0,0,0-.54-.54c-1.3,0-2.09.06-2.59.66-.79.92-1,1.2-1.2,1.2s-.32-.13-.32-.35v-4c0-.22.1-.35.32-.35.41,0,1.77.32,2.69.32Z" fill="#273C82"/><ellipse cx="125.54" cy="64.77" rx="17.25" ry="10.66" fill="#273C82"/><path d="M228.61,19.28c16.29,6.49,11.92,27.37-3.88,26,5.11,12.35-18.94,19.95-26.56,4.72-6.79-13.56-1.43-29.42.29-31S214.1,13.5,228.61,19.28Z" fill="#273C82"/><path d="M22.62,19.28c-16.29,6.49-11.92,27.37,3.88,26C21.39,57.59,45.44,65.19,53.06,50c6.79-13.56,1.43-29.42-.29-31S37.12,13.5,22.62,19.28Z" fill="#273C82"/><path d="M121.27,12.9c11.9,9.19,17.08,32.69,8.56,42.65-8.92,10.43-31.55,4.61-40.56-6.6C86.1,45,84.8,39.06,82.21,27.18c-2.72-12.42-4-18.7-.74-21.9C84.92,1.9,91.46,3.46,102,6,111.83,8.31,116.78,9.44,121.27,12.9Z" fill="#273C82"/><path d="M133.14,12.9c-11.9,9.19-17.08,32.69-8.56,42.65,8.92,10.43,31.55,4.61,40.56-6.6,3.17-3.95,4.47-9.89,7.06-21.77,2.72-12.42,4-18.7.74-21.9-3.45-3.38-10-1.82-20.53.69C142.58,8.31,137.62,9.44,133.14,12.9Z" fill="#273C82"/><path d="M126.72,60.86c-13.66-1.42-25.94,19.74-24.65,35,.45,5.36,3.64,10.88,10,21.9,6.66,11.53,10.08,17.3,14.65,17.34,4.83,0,8.46-6,14.32-15.67,5.47-9.05,8.25-13.57,9.08-19.53C152.33,84.06,139.76,62.21,126.72,60.86Z" fill="#273C82"/><path d="M178.23,57.38c-11.08-10.16-35.12-11.25-43.49-1.16-8.76,10.57.84,31.88,13.43,38.84,4.43,2.45,10.5,2.72,22.65,3.25,12.7.56,19.11.76,21.7-3,2.74-4,.09-10.15-4.18-20.11C184.36,65.9,182.4,61.21,178.23,57.38Z" fill="#273C82"/><path d="M73,57.38c11.08-10.16,35.12-11.25,43.49-1.16,8.76,10.57-.84,31.88-13.43,38.84-4.43,2.45-10.5,2.72-22.65,3.25-12.7.56-19.11.76-21.7-3-2.74-4-.09-10.15,4.18-20.11C66.87,65.9,68.82,61.21,73,57.38Z" fill="#273C82"/><path d="M125,54.33l-8.58,8a1.74,1.74,0,0,0-.63,1.95L119,74.35a1.74,1.74,0,0,0,1.66,1.2h10.61a1.74,1.74,0,0,0,1.66-1.2l3.28-10.09a1.74,1.74,0,0,0-.63-1.95l-8.58-8A1.74,1.74,0,0,0,125,54.33Z" fill="#fff"/><path d="M124.3,70l-5,8.15A2,2,0,0,0,121,81.2H131a2,2,0,0,0,1.7-3.05l-5-8.15A2,2,0,0,0,124.3,70Z" fill="#273C82"/><path d="M126.94,79.12a1.45,1.45,0,0,0-2.51,0s-2.68,3.34-2.67,4.69,2.71,4.69,2.71,4.69a1.45,1.45,0,0,0,2.51,0s2.64-3.49,2.61-4.87S126.94,79.12,126.94,79.12Z" fill="#fff"/></svg>